G04*
G04 #@! TF.GenerationSoftware,Altium Limited,Altium Designer,25.8.1 (18)*
G04*
G04 Layer_Color=15132400*
%FSLAX25Y25*%
%MOIN*%
G70*
G04*
G04 #@! TF.SameCoordinates,5B65FB0A-FCFC-48FD-BDDF-372C2C71C5DB*
G04*
G04*
G04 #@! TF.FilePolarity,Positive*
G04*
G01*
G75*
%ADD11C,0.00100*%
D11*
X35900Y135000D02*
X39100D01*
X45900D02*
X49100D01*
X55900D02*
X59100D01*
X65900D02*
X69100D01*
X75900D02*
X79100D01*
X85900D02*
X89100D01*
X95900D02*
X99100D01*
X105900D02*
X109100D01*
X135000Y105900D02*
Y109100D01*
Y75900D02*
Y79100D01*
Y35900D02*
Y39100D01*
Y45900D02*
Y49100D01*
Y55900D02*
Y59100D01*
Y55900D02*
Y59100D01*
Y65900D02*
Y69100D01*
Y85900D02*
Y89100D01*
Y95900D02*
Y99100D01*
X95900Y10000D02*
X99100D01*
X105900D02*
X109100D01*
X75900D02*
X79100D01*
X85900D02*
X89100D01*
X55900D02*
X59100D01*
X65900D02*
X69100D01*
X45900D02*
X49100D01*
X35900D02*
X39100D01*
X10000Y35900D02*
Y39100D01*
Y45900D02*
Y49100D01*
Y55900D02*
Y59100D01*
Y65900D02*
Y69100D01*
Y75900D02*
Y79100D01*
Y85900D02*
Y89100D01*
Y95900D02*
Y99100D01*
Y105900D02*
Y109100D01*
X138500Y20000D02*
Y29100D01*
X29100Y0D02*
Y6500D01*
X6500Y20000D02*
Y29100D01*
X0D02*
X6500D01*
X0Y20000D02*
X6500D01*
X20000Y138500D02*
X29100D01*
X138500Y115900D02*
Y125000D01*
X6500Y115900D02*
Y125000D01*
X0Y145000D02*
X20000D01*
X0Y125000D02*
Y145000D01*
Y125000D02*
X6500D01*
X20000Y138500D02*
Y145000D01*
X145000Y125000D02*
Y145000D01*
X125000D02*
X145000D01*
X125000Y138500D02*
Y145000D01*
X138500Y125000D02*
X145000D01*
X125000Y0D02*
Y6500D01*
X138500Y20000D02*
X145000D01*
Y0D02*
Y20000D01*
X125000Y0D02*
X145000D01*
X0D02*
Y20000D01*
Y0D02*
X20000D01*
Y6500D01*
X109100Y0D02*
X115900D01*
X99100D02*
X105900D01*
X89100D02*
X95900D01*
X79100D02*
X85900D01*
X69100D02*
X75900D01*
X59100D02*
X65900D01*
X49100D02*
X55900D01*
X39100D02*
X45900D01*
X29100D02*
X35900D01*
X145000Y109100D02*
Y115900D01*
Y99100D02*
Y105900D01*
Y89100D02*
Y95900D01*
Y79100D02*
Y85900D01*
Y69100D02*
Y75900D01*
Y59100D02*
Y65900D01*
Y49100D02*
Y55900D01*
Y39100D02*
Y45900D01*
Y29100D02*
Y35900D01*
X109100Y145000D02*
X115900D01*
X99100D02*
X105900D01*
X89100D02*
X95900D01*
X79100D02*
X85900D01*
X69100D02*
X75900D01*
X59100D02*
X65900D01*
X49100D02*
X55900D01*
X39100D02*
X45900D01*
X29100D02*
X35900D01*
X0Y29100D02*
Y35900D01*
Y39100D02*
Y45900D01*
Y49100D02*
Y55900D01*
Y59100D02*
Y65900D01*
Y69100D02*
Y75900D01*
Y79100D02*
Y85900D01*
Y89100D02*
Y95900D01*
Y99100D02*
Y105900D01*
Y109100D02*
Y115900D01*
Y109100D02*
X10000D01*
X0Y105900D02*
X10000D01*
X0Y99100D02*
X10000D01*
X0Y95900D02*
X10000D01*
X0Y89100D02*
X10000D01*
X0Y85900D02*
X10000D01*
X0Y79100D02*
X10000D01*
X0Y75900D02*
X10000D01*
X0Y69100D02*
X10000D01*
X0Y65900D02*
X10000D01*
X0Y59100D02*
X10000D01*
X0Y55900D02*
X10000D01*
X0Y49100D02*
X10000D01*
X0Y45900D02*
X10000D01*
X0Y39100D02*
X10000D01*
X0Y35900D02*
X10000D01*
X35900Y0D02*
Y10000D01*
X39100Y0D02*
Y10000D01*
X45900Y0D02*
Y10000D01*
X49100Y0D02*
Y10000D01*
X55900Y0D02*
Y10000D01*
X59100Y0D02*
Y10000D01*
X65900Y0D02*
Y10000D01*
X69100Y0D02*
Y10000D01*
X75900Y0D02*
Y10000D01*
X79100Y0D02*
Y10000D01*
X85900Y0D02*
Y10000D01*
X89100Y0D02*
Y10000D01*
X95900Y0D02*
Y10000D01*
X99100Y0D02*
Y10000D01*
X105900Y0D02*
Y10000D01*
X109100Y0D02*
Y10000D01*
X115900Y0D02*
Y6500D01*
X125000D01*
X138500Y29100D02*
X145000D01*
X135000Y35900D02*
X145000D01*
X135000Y39100D02*
X145000D01*
X135000Y45900D02*
X145000D01*
X135000Y49100D02*
X145000D01*
X135000Y55900D02*
X145000D01*
X135000Y59100D02*
X145000D01*
X135000Y65900D02*
X145000D01*
X135000Y69100D02*
X145000D01*
X135000Y75900D02*
X145000D01*
X135000Y79100D02*
X145000D01*
X135000Y85900D02*
X145000D01*
X135000Y89100D02*
X145000D01*
X135000Y95900D02*
X145000D01*
X135000Y99100D02*
X145000D01*
X135000Y105900D02*
X145000D01*
X135000Y109100D02*
X145000D01*
X115900Y138500D02*
Y145000D01*
X109100Y135000D02*
Y145000D01*
X105900Y135000D02*
Y145000D01*
X99100Y135000D02*
Y145000D01*
X95900Y135000D02*
Y145000D01*
X89100Y135000D02*
Y145000D01*
X85900Y135000D02*
Y145000D01*
X79100Y135000D02*
Y145000D01*
X75900Y135000D02*
Y145000D01*
X69100Y135000D02*
Y145000D01*
X65900Y135000D02*
Y145000D01*
X59100Y135000D02*
Y145000D01*
X55900Y135000D02*
Y145000D01*
X49100Y135000D02*
Y145000D01*
X45900Y135000D02*
Y145000D01*
X39100Y135000D02*
Y145000D01*
X35900Y135000D02*
Y145000D01*
X29100Y138500D02*
Y145000D01*
X0Y109100D02*
X10000D01*
X0Y105900D02*
X10000D01*
X0Y99100D02*
X10000D01*
X0Y95900D02*
X10000D01*
X0Y75900D02*
X10000D01*
X0Y69100D02*
X10000D01*
X0Y49100D02*
X10000D01*
X20000Y6500D02*
X29100D01*
X115900Y138500D02*
X125000D01*
X35900Y0D02*
Y10000D01*
X39100Y0D02*
Y10000D01*
X45900Y0D02*
Y10000D01*
X49100Y0D02*
Y10000D01*
X55900Y0D02*
Y10000D01*
X59100Y0D02*
Y10000D01*
X65900Y0D02*
Y10000D01*
X69100Y0D02*
Y10000D01*
X75900Y0D02*
Y10000D01*
X79100Y0D02*
Y10000D01*
X85900Y0D02*
Y10000D01*
X89100Y0D02*
Y10000D01*
X95900Y0D02*
Y10000D01*
X99100Y0D02*
Y10000D01*
X105900Y0D02*
Y10000D01*
X109100Y0D02*
Y10000D01*
X135000Y35900D02*
X145000D01*
X135000Y39100D02*
X145000D01*
X135000Y45900D02*
X145000D01*
X135000Y49100D02*
X145000D01*
X135000Y55900D02*
X145000D01*
X135000Y59100D02*
X145000D01*
X135000Y65900D02*
X145000D01*
X135000Y69100D02*
X145000D01*
X135000Y85900D02*
X145000D01*
X135000Y89100D02*
X145000D01*
X135000Y75900D02*
X145000D01*
X135000Y79100D02*
X145000D01*
X135000Y95900D02*
X145000D01*
X135000Y99100D02*
X145000D01*
X135000Y105900D02*
X145000D01*
X135000Y109100D02*
X145000D01*
X138500Y115900D02*
X145000D01*
X109100Y135000D02*
Y145000D01*
X105900Y135000D02*
Y145000D01*
X99100Y135000D02*
Y145000D01*
X95900Y135000D02*
Y145000D01*
X89100Y135000D02*
Y145000D01*
X85900Y135000D02*
Y145000D01*
X79100Y135000D02*
Y145000D01*
X75900Y135000D02*
Y145000D01*
X69100Y135000D02*
Y145000D01*
X65900Y135000D02*
Y145000D01*
X59100Y135000D02*
Y145000D01*
X55900Y135000D02*
Y145000D01*
X49100Y135000D02*
Y145000D01*
X45900Y135000D02*
Y145000D01*
X39100Y135000D02*
Y145000D01*
X35900Y135000D02*
Y145000D01*
X0Y115900D02*
X6500D01*
X0Y39100D02*
X10000D01*
X0Y35900D02*
X10000D01*
X0Y45900D02*
X10000D01*
X0Y59100D02*
X10000D01*
X0Y55900D02*
X10000D01*
X0Y65900D02*
X10000D01*
X0Y79100D02*
X10000D01*
X0Y89100D02*
X10000D01*
X0Y85900D02*
X10000D01*
M02*
