M48
;Layer_Color=6321
;FILE_FORMAT=2:5
INCH,LZ
;TYPE=PLATED
T01F00S00C0.00600
T02F00S00C0.00800
T03F00S00C0.02800
T04F00S00C0.07000
;TYPE=NON_PLATED
T05F00S00C0.03500
%
T01
X00238Y00245
Y00273
Y0030952
Y00339
Y0037961
Y004095
X0032221Y006022
X0030252Y0074
X00302Y00839
X0032221Y0085811
X0034189
X0036158
X0038126
Y0083842
Y0081912
X0036158Y0081874
X0034189Y0081889
X0038126Y0079905
Y0075968
Y0074
Y0072031
X0036158Y0070063
X0034189
X0036158Y0068094
X00381Y00681
X0036158Y0066126
X0034189
Y0064157
Y0062189
X0036158
X0038126
Y006022
X0042063Y0064157
X0046
X0047969
X0049937
X0051906
X0053874
X00558Y00642
X0057811Y0064157
X005978Y0066126
Y0062189
X0057799Y006022
X0052004Y0062189
X0046
X0044032Y0066126
X0042063Y0068094
X0044032Y0072031
X0046
X0047969
Y0074
Y0075968
X0046
X0044032
Y0074
X0046Y00796
X00421Y00799
X0042063Y0083842
X0042016Y0085811
X0040095
X0047969Y0083842
X005Y00819
X0049937Y0079905
X0053874
X0055843
Y0081874
X0057811
Y0085811
Y0087779
X005978
Y0085811
X0061748
X0053874
Y0089748
X005395Y00936
X00591Y00938
X0049937Y0087779
X0053874Y0075968
Y0074
Y0072031
X0057811
X005978Y0070063
X0053874Y0068094
X0051906Y0070063
X003614Y0075963
X00342Y00759
X0075716Y0087093
X00757Y0090577
X00672Y01031
X00874Y00727
X0117938Y0069605
T02
X00256Y00199
X00275Y00222
X00229Y00453
X00302Y00488
X003029Y0051729
X0032033Y0053933
X00285Y00562
X00264Y00545
X00279Y00873
X00258Y0119268
X0031895
X0034151Y0123948
X00409Y01226
X00411Y01151
X003665Y0108949
X00348Y00977
X00486Y01032
X00536Y01092
X00636Y01141
X00656Y01123
X00682Y01136
Y01156
X00812Y01177
X00858Y01178
Y01197
Y01159
X01009Y01178
X01043
X0113667Y0115711
X0113278Y0106811
X01172Y01068
X01183Y01006
X01181Y00944
X0118Y009
X01134Y00895
X0111752Y0084302
X01182Y00839
X01176Y00794
X011038Y0076933
X0109196Y0073683
X0110308Y0069605
X01135Y0063
X01111Y00556
X0106Y00564
X0101362Y0056222
X00987Y00537
X00921Y00448
X0094688Y0037927
X00876Y0037415
X00826
Y0032415
X00876
X00826Y0042415
X00784Y00513
X00759Y005445
X00805Y00561
X00797Y006155
X00759Y00624
X0071Y00642
X00664Y0066
X00725Y006985
X00716Y00761
X00677Y00762
X0063593Y0084772
X00636Y00995
X00594Y00973
X00814Y00975
X00836Y009363
X0083634Y0088826
X0080591Y0087445
X00805Y0074
X00845Y0066
X00897Y006625
X00919Y00679
X00878Y00631
X00948Y00773
X0092006Y0080287
X00987Y00796
X0102Y00786
X01025Y0073637
X0098166Y008885
X0095445Y0091259
X0092851Y0089031
X0093048Y0093952
X0098068Y0094051
X0108733Y0093555
X0108831Y0100314
X0101448Y010446
X00993Y01082
X0087374Y0099526
X01207Y00693
X01236Y00456
X01214Y00348
X0118667Y0028609
X0108667
X01037Y00286
X0098941Y0028609
X0108667Y0045542
X00681Y00447
Y00403
X00547Y00405
X00542Y00369
Y00342
X00461Y00324
X00412Y00323
X00382Y0036
X00381Y0039
X00391Y0045
X00407Y00477
X00438Y00442
X00483
X00519Y00485
X00477Y00203
X00348Y00274
X00361Y00305
X00768Y00196
T03
X0005Y00325
Y00425
Y00525
Y00625
Y00725
Y00825
Y00925
Y01025
Y01125
X0015Y01175
Y01075
Y00975
Y00875
Y00775
Y00675
Y00575
Y00475
Y00375
Y00275
X00275Y0015
X00325Y0005
X00275Y013
X00375
X00475
X00575
X00675
X00775
X00875
X00975
X01075
X01175
X013Y01175
Y01075
Y00975
Y00875
Y00775
Y00675
Y00575
Y00475
Y00375
Y00275
X014Y00325
Y00425
Y00525
Y00625
Y00725
Y00825
Y00925
Y01025
Y01125
X01175Y0015
X01075
X00975
X00875
X00775
X00675
X00575
X00475
X00375
X00425Y0005
X00525
X00625
X00725
X00825
X00925
X01025
X01125
Y014
X01025
X00925
X00825
X00725
X00625
X00525
X00425
X00325
T04
X001Y001
X0135
Y0135
X001
T05
X00811Y0027415
X00891
X00851Y0047415
M30
