G04*
G04 #@! TF.GenerationSoftware,Altium Limited,Altium Designer,25.8.1 (18)*
G04*
G04 Layer_Physical_Order=3*
G04 Layer_Color=56745*
%FSLAX25Y25*%
%MOIN*%
G70*
G04*
G04 #@! TF.SameCoordinates,5B65FB0A-FCFC-48FD-BDDF-372C2C71C5DB*
G04*
G04*
G04 #@! TF.FilePolarity,Positive*
G04*
G01*
G75*
%ADD31C,0.01200*%
%ADD85R,0.07500X0.05000*%
%ADD88C,0.01800*%
G36*
X20000Y137633D02*
X29100D01*
X29200Y137551D01*
Y135450D01*
X35033D01*
Y135000D01*
X35099Y134668D01*
X35287Y134387D01*
X35568Y134199D01*
X35900Y134133D01*
X39100D01*
X39432Y134199D01*
X39713Y134387D01*
X39901Y134668D01*
X39967Y135000D01*
Y135450D01*
X45033D01*
Y135000D01*
X45099Y134668D01*
X45287Y134387D01*
X45568Y134199D01*
X45900Y134133D01*
X49100D01*
X49432Y134199D01*
X49713Y134387D01*
X49901Y134668D01*
X49967Y135000D01*
Y135450D01*
X55033D01*
Y135000D01*
X55099Y134668D01*
X55287Y134387D01*
X55568Y134199D01*
X55900Y134133D01*
X59100D01*
X59432Y134199D01*
X59713Y134387D01*
X59901Y134668D01*
X59967Y135000D01*
Y135450D01*
X65033D01*
Y135000D01*
X65099Y134668D01*
X65287Y134387D01*
X65568Y134199D01*
X65900Y134133D01*
X69100D01*
X69432Y134199D01*
X69713Y134387D01*
X69901Y134668D01*
X69967Y135000D01*
Y135450D01*
X75033D01*
Y135000D01*
X75099Y134668D01*
X75287Y134387D01*
X75568Y134199D01*
X75900Y134133D01*
X79100D01*
X79432Y134199D01*
X79713Y134387D01*
X79901Y134668D01*
X79967Y135000D01*
Y135450D01*
X85033D01*
Y135000D01*
X85099Y134668D01*
X85287Y134387D01*
X85568Y134199D01*
X85900Y134133D01*
X89100D01*
X89432Y134199D01*
X89713Y134387D01*
X89901Y134668D01*
X89967Y135000D01*
Y135450D01*
X95033D01*
Y135000D01*
X95099Y134668D01*
X95287Y134387D01*
X95568Y134199D01*
X95900Y134133D01*
X99100D01*
X99432Y134199D01*
X99713Y134387D01*
X99901Y134668D01*
X99967Y135000D01*
Y135450D01*
X105033D01*
Y135000D01*
X105099Y134668D01*
X105287Y134387D01*
X105568Y134199D01*
X105900Y134133D01*
X109100D01*
X109432Y134199D01*
X109713Y134387D01*
X109901Y134668D01*
X109967Y135000D01*
Y135450D01*
X115800D01*
Y137551D01*
X115900Y137633D01*
X125000D01*
X125200Y137673D01*
X125585Y137455D01*
X125700Y137344D01*
Y125700D01*
X137344D01*
X137455Y125585D01*
X137673Y125200D01*
X137633Y125000D01*
Y115900D01*
X137551Y115800D01*
X135450D01*
Y109967D01*
X135000D01*
X134668Y109901D01*
X134387Y109713D01*
X134199Y109432D01*
X134133Y109100D01*
Y105900D01*
X134199Y105568D01*
X134387Y105287D01*
X134668Y105099D01*
X135000Y105033D01*
X135450D01*
Y99967D01*
X135000D01*
X134668Y99901D01*
X134387Y99713D01*
X134199Y99432D01*
X134133Y99100D01*
Y95900D01*
X134199Y95568D01*
X134387Y95287D01*
X134668Y95099D01*
X135000Y95033D01*
X135450D01*
Y89967D01*
X135000D01*
X134668Y89901D01*
X134387Y89713D01*
X134199Y89432D01*
X134133Y89100D01*
Y85900D01*
X134199Y85568D01*
X134387Y85287D01*
X134668Y85099D01*
X135000Y85033D01*
X135750D01*
Y83000D01*
X140000D01*
Y82000D01*
X135750D01*
Y79967D01*
X135000D01*
X134668Y79901D01*
X134387Y79713D01*
X134199Y79432D01*
X134133Y79100D01*
Y75900D01*
X134199Y75568D01*
X134387Y75287D01*
X134668Y75099D01*
X135000Y75033D01*
X135450D01*
Y69967D01*
X135000D01*
X134668Y69901D01*
X134387Y69713D01*
X134199Y69432D01*
X134133Y69100D01*
Y65900D01*
X134199Y65568D01*
X134387Y65287D01*
X134668Y65099D01*
X135000Y65033D01*
X135450D01*
Y59967D01*
X135000D01*
X134668Y59901D01*
X134387Y59713D01*
X134199Y59432D01*
X134133Y59100D01*
Y55900D01*
X134199Y55568D01*
X134387Y55287D01*
X134668Y55099D01*
X135000Y55033D01*
X135450D01*
Y49967D01*
X135000D01*
X134668Y49901D01*
X134387Y49713D01*
X134199Y49432D01*
X134133Y49100D01*
Y45900D01*
X134199Y45568D01*
X134387Y45287D01*
X134668Y45099D01*
X135000Y45033D01*
X135450D01*
Y39967D01*
X135000D01*
X134668Y39901D01*
X134387Y39713D01*
X134199Y39432D01*
X134133Y39100D01*
Y35900D01*
X134199Y35568D01*
X134387Y35287D01*
X134668Y35099D01*
X135000Y35033D01*
X135450D01*
Y29200D01*
X137551D01*
X137633Y29100D01*
Y20000D01*
X137673Y19800D01*
X137455Y19415D01*
X137344Y19300D01*
X125700D01*
Y7656D01*
X125585Y7545D01*
X125200Y7327D01*
X125000Y7367D01*
X115900D01*
X115800Y7449D01*
Y9550D01*
X109967D01*
Y10000D01*
X109901Y10332D01*
X109713Y10613D01*
X109432Y10801D01*
X109100Y10867D01*
X105900D01*
X105568Y10801D01*
X105287Y10613D01*
X105099Y10332D01*
X105033Y10000D01*
Y9550D01*
X99967D01*
Y10000D01*
X99901Y10332D01*
X99713Y10613D01*
X99432Y10801D01*
X99100Y10867D01*
X95900D01*
X95568Y10801D01*
X95287Y10613D01*
X95099Y10332D01*
X95033Y10000D01*
Y9550D01*
X89967D01*
Y10000D01*
X89901Y10332D01*
X89713Y10613D01*
X89432Y10801D01*
X89100Y10867D01*
X85900D01*
X85568Y10801D01*
X85287Y10613D01*
X85099Y10332D01*
X85033Y10000D01*
Y9550D01*
X79967D01*
Y10000D01*
X79901Y10332D01*
X79713Y10613D01*
X79432Y10801D01*
X79100Y10867D01*
X75900D01*
X75568Y10801D01*
X75287Y10613D01*
X75099Y10332D01*
X75033Y10000D01*
Y9550D01*
X69967D01*
Y10000D01*
X69901Y10332D01*
X69713Y10613D01*
X69432Y10801D01*
X69100Y10867D01*
X65900D01*
X65568Y10801D01*
X65287Y10613D01*
X65099Y10332D01*
X65033Y10000D01*
Y9550D01*
X59967D01*
Y10000D01*
X59901Y10332D01*
X59713Y10613D01*
X59432Y10801D01*
X59100Y10867D01*
X55900D01*
X55568Y10801D01*
X55287Y10613D01*
X55099Y10332D01*
X55033Y10000D01*
Y9550D01*
X49967D01*
Y10000D01*
X49901Y10332D01*
X49713Y10613D01*
X49432Y10801D01*
X49100Y10867D01*
X45900D01*
X45568Y10801D01*
X45287Y10613D01*
X45099Y10332D01*
X45033Y10000D01*
Y9550D01*
X39967D01*
Y10000D01*
X39901Y10332D01*
X39713Y10613D01*
X39432Y10801D01*
X39100Y10867D01*
X35900D01*
X35568Y10801D01*
X35287Y10613D01*
X35099Y10332D01*
X35033Y10000D01*
Y9550D01*
X29200D01*
Y7449D01*
X29100Y7367D01*
X20000D01*
X19800Y7327D01*
X19415Y7545D01*
X19300Y7656D01*
Y19300D01*
X7656D01*
X7545Y19415D01*
X7327Y19800D01*
X7367Y20000D01*
Y29100D01*
X7449Y29200D01*
X9550D01*
Y35033D01*
X10000D01*
X10332Y35099D01*
X10613Y35287D01*
X10801Y35568D01*
X10867Y35900D01*
Y39100D01*
X10801Y39432D01*
X10613Y39713D01*
X10332Y39901D01*
X10000Y39967D01*
X9550D01*
Y45033D01*
X10000D01*
X10332Y45099D01*
X10613Y45287D01*
X10801Y45568D01*
X10867Y45900D01*
Y49100D01*
X10801Y49432D01*
X10613Y49713D01*
X10332Y49901D01*
X10000Y49967D01*
X9550D01*
Y55033D01*
X10000D01*
X10332Y55099D01*
X10613Y55287D01*
X10801Y55568D01*
X10867Y55900D01*
Y59100D01*
X10801Y59432D01*
X10613Y59713D01*
X10332Y59901D01*
X10000Y59967D01*
X9550D01*
Y65033D01*
X10000D01*
X10332Y65099D01*
X10613Y65287D01*
X10801Y65568D01*
X10867Y65900D01*
Y69100D01*
X10801Y69432D01*
X10613Y69713D01*
X10332Y69901D01*
X10000Y69967D01*
X9550D01*
Y75033D01*
X10000D01*
X10332Y75099D01*
X10613Y75287D01*
X10801Y75568D01*
X10867Y75900D01*
Y79100D01*
X10801Y79432D01*
X10613Y79713D01*
X10332Y79901D01*
X10000Y79967D01*
X9550D01*
Y85033D01*
X10000D01*
X10332Y85099D01*
X10613Y85287D01*
X10801Y85568D01*
X10867Y85900D01*
Y89100D01*
X10801Y89432D01*
X10613Y89713D01*
X10332Y89901D01*
X10000Y89967D01*
X9550D01*
Y95033D01*
X10000D01*
X10332Y95099D01*
X10613Y95287D01*
X10801Y95568D01*
X10867Y95900D01*
Y99100D01*
X10801Y99432D01*
X10613Y99713D01*
X10332Y99901D01*
X10000Y99967D01*
X9550D01*
Y105033D01*
X10000D01*
X10332Y105099D01*
X10613Y105287D01*
X10801Y105568D01*
X10867Y105900D01*
Y109100D01*
X10801Y109432D01*
X10613Y109713D01*
X10332Y109901D01*
X10000Y109967D01*
X9550D01*
Y115800D01*
X7449D01*
X7367Y115900D01*
Y125000D01*
X7327Y125200D01*
X7545Y125585D01*
X7656Y125700D01*
X19300D01*
Y137344D01*
X19415Y137455D01*
X19800Y137673D01*
X20000Y137633D01*
D02*
G37*
%LPC*%
G36*
X122050Y133300D02*
X112950D01*
Y126700D01*
X122050D01*
Y133300D01*
D02*
G37*
G36*
X112050D02*
X102950D01*
Y126700D01*
X112050D01*
Y133300D01*
D02*
G37*
G36*
X102050D02*
X92950D01*
Y126700D01*
X102050D01*
Y133300D01*
D02*
G37*
G36*
X92050D02*
X82950D01*
Y126700D01*
X92050D01*
Y133300D01*
D02*
G37*
G36*
X82050D02*
X72950D01*
Y126700D01*
X82050D01*
Y133300D01*
D02*
G37*
G36*
X72050D02*
X62950D01*
Y126700D01*
X72050D01*
Y133300D01*
D02*
G37*
G36*
X62050D02*
X52950D01*
Y126700D01*
X62050D01*
Y133300D01*
D02*
G37*
G36*
X52050D02*
X42950D01*
Y126700D01*
X52050D01*
Y133300D01*
D02*
G37*
G36*
X42050D02*
X32950D01*
Y126700D01*
X42050D01*
Y133300D01*
D02*
G37*
G36*
X32050D02*
X22950D01*
Y126700D01*
X32050D01*
Y133300D01*
D02*
G37*
G36*
X34489Y125648D02*
X33813D01*
X33188Y125389D01*
X32710Y124911D01*
X32451Y124286D01*
Y123610D01*
X32710Y122985D01*
X33188Y122507D01*
X33813Y122248D01*
X34489D01*
X35114Y122507D01*
X35592Y122985D01*
X35851Y123610D01*
Y124286D01*
X35592Y124911D01*
X35114Y125389D01*
X34489Y125648D01*
D02*
G37*
G36*
X41238Y124300D02*
X40562D01*
X39937Y124041D01*
X39459Y123563D01*
X39200Y122938D01*
Y122262D01*
X39459Y121637D01*
X39937Y121159D01*
X40562Y120900D01*
X41238D01*
X41863Y121159D01*
X42341Y121637D01*
X42600Y122262D01*
Y122938D01*
X42341Y123563D01*
X41863Y124041D01*
X41238Y124300D01*
D02*
G37*
G36*
X104638Y119500D02*
X103962D01*
X103337Y119241D01*
X102859Y118763D01*
X102850Y118742D01*
X102350D01*
X102341Y118763D01*
X101863Y119241D01*
X101238Y119500D01*
X100562D01*
X99937Y119241D01*
X99459Y118763D01*
X99200Y118138D01*
Y117462D01*
X99459Y116837D01*
X99937Y116359D01*
X100562Y116100D01*
X101238D01*
X101863Y116359D01*
X102341Y116837D01*
X102350Y116858D01*
X102850D01*
X102859Y116837D01*
X103337Y116359D01*
X103962Y116100D01*
X104638D01*
X105263Y116359D01*
X105741Y116837D01*
X106000Y117462D01*
Y118138D01*
X105741Y118763D01*
X105263Y119241D01*
X104638Y119500D01*
D02*
G37*
G36*
X32233Y120968D02*
X31556D01*
X30932Y120709D01*
X30453Y120231D01*
X30195Y119606D01*
Y118930D01*
X30453Y118305D01*
X30932Y117827D01*
X31556Y117568D01*
X32233D01*
X32857Y117827D01*
X33336Y118305D01*
X33595Y118930D01*
Y119606D01*
X33336Y120231D01*
X32857Y120709D01*
X32233Y120968D01*
D02*
G37*
G36*
X26138D02*
X25462D01*
X24837Y120709D01*
X24359Y120231D01*
X24100Y119606D01*
Y118930D01*
X24359Y118305D01*
X24837Y117827D01*
X25462Y117568D01*
X26138D01*
X26763Y117827D01*
X27241Y118305D01*
X27500Y118930D01*
Y119606D01*
X27241Y120231D01*
X26763Y120709D01*
X26138Y120968D01*
D02*
G37*
G36*
X81538Y119400D02*
X80862D01*
X80237Y119141D01*
X79759Y118663D01*
X79500Y118038D01*
Y117362D01*
X79759Y116737D01*
X80237Y116259D01*
X80862Y116000D01*
X81538D01*
X82163Y116259D01*
X82641Y116737D01*
X82900Y117362D01*
Y118038D01*
X82641Y118663D01*
X82163Y119141D01*
X81538Y119400D01*
D02*
G37*
G36*
X86138Y121400D02*
X85462D01*
X84837Y121141D01*
X84359Y120663D01*
X84100Y120038D01*
Y119362D01*
X84353Y118750D01*
X84100Y118138D01*
Y117462D01*
X84353Y116850D01*
X84100Y116238D01*
Y115562D01*
X84359Y114937D01*
X84837Y114459D01*
X85462Y114200D01*
X86138D01*
X86763Y114459D01*
X87241Y114937D01*
X87500Y115562D01*
Y116238D01*
X87247Y116850D01*
X87500Y117462D01*
Y118138D01*
X87247Y118750D01*
X87500Y119362D01*
Y120038D01*
X87241Y120663D01*
X86763Y121141D01*
X86138Y121400D01*
D02*
G37*
G36*
X114005Y117411D02*
X113328D01*
X112704Y117153D01*
X112225Y116674D01*
X111967Y116050D01*
Y115373D01*
X112225Y114748D01*
X112704Y114270D01*
X113328Y114011D01*
X114005D01*
X114629Y114270D01*
X115108Y114748D01*
X115367Y115373D01*
Y116050D01*
X115108Y116674D01*
X114629Y117153D01*
X114005Y117411D01*
D02*
G37*
G36*
X41438Y116800D02*
X40762D01*
X40137Y116541D01*
X39659Y116063D01*
X39400Y115438D01*
Y114762D01*
X39659Y114137D01*
X40137Y113659D01*
X40762Y113400D01*
X41438D01*
X42063Y113659D01*
X42541Y114137D01*
X42800Y114762D01*
Y115438D01*
X42541Y116063D01*
X42063Y116541D01*
X41438Y116800D01*
D02*
G37*
G36*
X133300Y122050D02*
X126700D01*
Y112950D01*
X133300D01*
Y122050D01*
D02*
G37*
G36*
X18300D02*
X11700D01*
Y112950D01*
X18300D01*
Y122050D01*
D02*
G37*
G36*
X68538Y117300D02*
X67862D01*
X67237Y117041D01*
X66759Y116563D01*
X66500Y115938D01*
Y115262D01*
X66759Y114637D01*
X66796Y114600D01*
X66759Y114563D01*
X66500Y113938D01*
Y113262D01*
X66759Y112637D01*
X67237Y112159D01*
X67862Y111900D01*
X68538D01*
X69163Y112159D01*
X69641Y112637D01*
X69900Y113262D01*
Y113938D01*
X69641Y114563D01*
X69604Y114600D01*
X69641Y114637D01*
X69900Y115262D01*
Y115938D01*
X69641Y116563D01*
X69163Y117041D01*
X68538Y117300D01*
D02*
G37*
G36*
X53938Y110900D02*
X53262D01*
X52637Y110641D01*
X52159Y110163D01*
X51900Y109538D01*
Y108862D01*
X52159Y108237D01*
X52637Y107759D01*
X53262Y107500D01*
X53938D01*
X54563Y107759D01*
X55041Y108237D01*
X55300Y108862D01*
Y109538D01*
X55041Y110163D01*
X54563Y110641D01*
X53938Y110900D01*
D02*
G37*
G36*
X36988Y110650D02*
X36312D01*
X35687Y110391D01*
X35208Y109912D01*
X34950Y109288D01*
Y108611D01*
X35208Y107986D01*
X35687Y107508D01*
X36312Y107249D01*
X36988D01*
X37613Y107508D01*
X38091Y107986D01*
X38350Y108611D01*
Y109288D01*
X38091Y109912D01*
X37613Y110391D01*
X36988Y110650D01*
D02*
G37*
G36*
X99638Y109900D02*
X98962D01*
X98337Y109641D01*
X97859Y109163D01*
X97600Y108538D01*
Y107862D01*
X97859Y107237D01*
X98337Y106759D01*
X98962Y106500D01*
X99638D01*
X100263Y106759D01*
X100741Y107237D01*
X101000Y107862D01*
Y108538D01*
X100741Y109163D01*
X100263Y109641D01*
X99638Y109900D01*
D02*
G37*
G36*
X113616Y108511D02*
X112939D01*
X112315Y108252D01*
X111836Y107774D01*
X111578Y107149D01*
Y106473D01*
X111836Y105848D01*
X112315Y105370D01*
X112939Y105111D01*
X113616D01*
X114241Y105370D01*
X114719Y105848D01*
X114978Y106473D01*
Y107149D01*
X114719Y107774D01*
X114241Y108252D01*
X113616Y108511D01*
D02*
G37*
G36*
X117538Y108500D02*
X116862D01*
X116237Y108241D01*
X115759Y107763D01*
X115500Y107138D01*
Y106462D01*
X115759Y105837D01*
X116237Y105359D01*
X116862Y105100D01*
X117538D01*
X118163Y105359D01*
X118641Y105837D01*
X118900Y106462D01*
Y107138D01*
X118641Y107763D01*
X118163Y108241D01*
X117538Y108500D01*
D02*
G37*
G36*
X133300Y112050D02*
X126700D01*
Y102950D01*
X133300D01*
Y112050D01*
D02*
G37*
G36*
X18300D02*
X11700D01*
Y102950D01*
X18300D01*
Y112050D01*
D02*
G37*
G36*
X101786Y106160D02*
X101110D01*
X100485Y105901D01*
X100006Y105423D01*
X99748Y104798D01*
Y104122D01*
X100006Y103497D01*
X100485Y103019D01*
X101110Y102760D01*
X101786D01*
X102411Y103019D01*
X102889Y103497D01*
X103148Y104122D01*
Y104798D01*
X102889Y105423D01*
X102411Y105901D01*
X101786Y106160D01*
D02*
G37*
G36*
X67479Y104500D02*
X66922D01*
X66407Y104287D01*
X66013Y103893D01*
X65800Y103378D01*
Y102822D01*
X66013Y102307D01*
X66407Y101913D01*
X66922Y101700D01*
X67479D01*
X67993Y101913D01*
X68387Y102307D01*
X68600Y102822D01*
Y103378D01*
X68387Y103893D01*
X67993Y104287D01*
X67479Y104500D01*
D02*
G37*
G36*
X48938Y104900D02*
X48262D01*
X47637Y104641D01*
X47159Y104163D01*
X46900Y103538D01*
Y102862D01*
X47159Y102237D01*
X47637Y101759D01*
X48262Y101500D01*
X48938D01*
X49563Y101759D01*
X50041Y102237D01*
X50300Y102862D01*
Y103538D01*
X50041Y104163D01*
X49563Y104641D01*
X48938Y104900D01*
D02*
G37*
G36*
X118638Y102300D02*
X117962D01*
X117337Y102041D01*
X116859Y101563D01*
X116600Y100938D01*
Y100262D01*
X116859Y99637D01*
X117337Y99159D01*
X117962Y98900D01*
X118638D01*
X119263Y99159D01*
X119741Y99637D01*
X120000Y100262D01*
Y100938D01*
X119741Y101563D01*
X119263Y102041D01*
X118638Y102300D01*
D02*
G37*
G36*
X109169Y102014D02*
X108493D01*
X107868Y101755D01*
X107390Y101277D01*
X107131Y100652D01*
Y99975D01*
X107390Y99351D01*
X107868Y98872D01*
X108493Y98614D01*
X109169D01*
X109794Y98872D01*
X110272Y99351D01*
X110531Y99975D01*
Y100652D01*
X110272Y101277D01*
X109794Y101755D01*
X109169Y102014D01*
D02*
G37*
G36*
X87713Y101226D02*
X87036D01*
X86411Y100967D01*
X85933Y100489D01*
X85674Y99864D01*
Y99188D01*
X85933Y98563D01*
X86411Y98085D01*
X87036Y97826D01*
X87713D01*
X88337Y98085D01*
X88816Y98563D01*
X89074Y99188D01*
Y99864D01*
X88816Y100489D01*
X88337Y100967D01*
X87713Y101226D01*
D02*
G37*
G36*
X63938Y101200D02*
X63262D01*
X62637Y100941D01*
X62159Y100463D01*
X61900Y99838D01*
Y99162D01*
X62159Y98537D01*
X62637Y98059D01*
X63262Y97800D01*
X63938D01*
X64563Y98059D01*
X65041Y98537D01*
X65300Y99162D01*
Y99838D01*
X65041Y100463D01*
X64563Y100941D01*
X63938Y101200D01*
D02*
G37*
G36*
X35138Y99400D02*
X34462D01*
X33837Y99141D01*
X33359Y98663D01*
X33100Y98038D01*
Y97362D01*
X33359Y96737D01*
X33837Y96259D01*
X34462Y96000D01*
X35138D01*
X35763Y96259D01*
X36241Y96737D01*
X36500Y97362D01*
Y98038D01*
X36241Y98663D01*
X35763Y99141D01*
X35138Y99400D01*
D02*
G37*
G36*
X81738Y99200D02*
X81062D01*
X80437Y98941D01*
X79959Y98463D01*
X79700Y97838D01*
Y97162D01*
X79959Y96537D01*
X80437Y96059D01*
X81062Y95800D01*
X81738D01*
X82363Y96059D01*
X82841Y96537D01*
X83100Y97162D01*
Y97838D01*
X82841Y98463D01*
X82363Y98941D01*
X81738Y99200D01*
D02*
G37*
G36*
X133300Y102050D02*
X126700D01*
Y92950D01*
X133300D01*
Y102050D01*
D02*
G37*
G36*
X18300D02*
X11700D01*
Y92950D01*
X18300D01*
Y102050D01*
D02*
G37*
G36*
X98406Y95751D02*
X97730D01*
X97105Y95492D01*
X96627Y95014D01*
X96368Y94389D01*
Y93713D01*
X96595Y93163D01*
X96450Y92929D01*
X96262Y92760D01*
X95784Y92958D01*
X95107D01*
X94999Y92914D01*
X94617Y93296D01*
X94748Y93614D01*
Y94290D01*
X94489Y94915D01*
X94011Y95393D01*
X93386Y95652D01*
X92710D01*
X92085Y95393D01*
X91607Y94915D01*
X91348Y94290D01*
Y93614D01*
X91607Y92989D01*
X92085Y92511D01*
X92710Y92252D01*
X93386D01*
X93494Y92297D01*
X93877Y91914D01*
X93745Y91597D01*
Y91042D01*
X93461Y90769D01*
X93302Y90684D01*
X93189Y90731D01*
X92513D01*
X91888Y90472D01*
X91410Y89994D01*
X91151Y89369D01*
Y88693D01*
X91410Y88068D01*
X91888Y87590D01*
X92513Y87331D01*
X93189D01*
X93814Y87590D01*
X94292Y88068D01*
X94551Y88693D01*
Y89248D01*
X94835Y89520D01*
X94995Y89605D01*
X95107Y89559D01*
X95784D01*
X96140Y89706D01*
X96522Y89323D01*
X96466Y89188D01*
Y88512D01*
X96725Y87887D01*
X97203Y87409D01*
X97828Y87150D01*
X98504D01*
X99129Y87409D01*
X99607Y87887D01*
X99866Y88512D01*
Y89188D01*
X99607Y89813D01*
X99129Y90291D01*
X98504Y90550D01*
X97828D01*
X97472Y90403D01*
X97089Y90785D01*
X97145Y90920D01*
Y91597D01*
X96918Y92146D01*
X97063Y92380D01*
X97251Y92549D01*
X97730Y92351D01*
X98406D01*
X99031Y92610D01*
X99509Y93088D01*
X99768Y93713D01*
Y94389D01*
X99509Y95014D01*
X99031Y95492D01*
X98406Y95751D01*
D02*
G37*
G36*
X118438Y96100D02*
X117762D01*
X117137Y95841D01*
X116659Y95363D01*
X116400Y94738D01*
Y94062D01*
X116659Y93437D01*
X117137Y92959D01*
X117762Y92700D01*
X118438D01*
X119063Y92959D01*
X119541Y93437D01*
X119800Y94062D01*
Y94738D01*
X119541Y95363D01*
X119063Y95841D01*
X118438Y96100D01*
D02*
G37*
G36*
X59738Y99000D02*
X59062D01*
X58437Y98741D01*
X57959Y98263D01*
X57700Y97638D01*
Y96962D01*
X57959Y96337D01*
X58437Y95859D01*
X58821Y95700D01*
X58821Y95351D01*
X58771Y95179D01*
X58307Y94987D01*
X57913Y94593D01*
X57700Y94078D01*
Y93521D01*
X57913Y93007D01*
X58307Y92613D01*
X58821Y92400D01*
X59378D01*
X59893Y92613D01*
X60287Y93007D01*
X60500Y93521D01*
Y94078D01*
X60287Y94593D01*
X59893Y94987D01*
X59620Y95100D01*
X59719Y95600D01*
X59738D01*
X60363Y95859D01*
X60841Y96337D01*
X61100Y96962D01*
Y97638D01*
X60841Y98263D01*
X60363Y98741D01*
X59738Y99000D01*
D02*
G37*
G36*
X54229Y95000D02*
X53671D01*
X53157Y94787D01*
X52763Y94393D01*
X52550Y93879D01*
Y93322D01*
X52763Y92807D01*
X53157Y92413D01*
X53671Y92200D01*
X54229D01*
X54743Y92413D01*
X55137Y92807D01*
X55350Y93322D01*
Y93879D01*
X55137Y94393D01*
X54743Y94787D01*
X54229Y95000D01*
D02*
G37*
G36*
X83938Y95330D02*
X83262D01*
X82637Y95071D01*
X82159Y94593D01*
X81900Y93968D01*
Y93292D01*
X82159Y92667D01*
X82637Y92189D01*
X83262Y91930D01*
X83938D01*
X84563Y92189D01*
X85041Y92667D01*
X85300Y93292D01*
Y93968D01*
X85041Y94593D01*
X84563Y95071D01*
X83938Y95330D01*
D02*
G37*
G36*
X109071Y95254D02*
X108395D01*
X107770Y94996D01*
X107291Y94517D01*
X107033Y93893D01*
Y93216D01*
X107291Y92592D01*
X107770Y92113D01*
X108395Y91855D01*
X109071D01*
X109696Y92113D01*
X110174Y92592D01*
X110433Y93216D01*
Y93893D01*
X110174Y94517D01*
X109696Y94996D01*
X109071Y95254D01*
D02*
G37*
G36*
X75978Y91977D02*
X75422D01*
X74907Y91763D01*
X74513Y91370D01*
X74300Y90855D01*
Y90298D01*
X74513Y89784D01*
X74907Y89390D01*
X75422Y89177D01*
X75978D01*
X76493Y89390D01*
X76887Y89784D01*
X77100Y90298D01*
Y90855D01*
X76887Y91370D01*
X76493Y91763D01*
X75978Y91977D01*
D02*
G37*
G36*
X60058Y89179D02*
X59501D01*
X58987Y88966D01*
X58795Y88775D01*
X58604Y88966D01*
X58090Y89179D01*
X57533D01*
X57018Y88966D01*
X56624Y88573D01*
X56411Y88058D01*
Y87501D01*
X56624Y86987D01*
X56815Y86795D01*
X56624Y86604D01*
X56411Y86089D01*
Y85532D01*
X56624Y85018D01*
X57018Y84624D01*
X57533Y84411D01*
X58090D01*
X58604Y84624D01*
X58795Y84815D01*
X58987Y84624D01*
X59501Y84411D01*
X60058D01*
X60573Y84624D01*
X60764Y84815D01*
X60955Y84624D01*
X61470Y84411D01*
X61902D01*
X62152Y83808D01*
X62630Y83330D01*
X63255Y83072D01*
X63931D01*
X64556Y83330D01*
X65034Y83808D01*
X65293Y84433D01*
Y85110D01*
X65034Y85734D01*
X64556Y86213D01*
X63931Y86471D01*
X63255D01*
X63029Y86378D01*
X62935Y86604D01*
X62541Y86998D01*
X62027Y87211D01*
X61601D01*
X61351Y87383D01*
X61180Y87632D01*
Y88058D01*
X60966Y88573D01*
X60573Y88966D01*
X60058Y89179D01*
D02*
G37*
G36*
X54153Y91148D02*
X53596D01*
X53081Y90935D01*
X52687Y90541D01*
X52474Y90026D01*
Y89470D01*
X52687Y88955D01*
X53081Y88561D01*
X53596Y88348D01*
X54153D01*
X54667Y88561D01*
X55061Y88955D01*
X55274Y89470D01*
Y90026D01*
X55061Y90541D01*
X54667Y90935D01*
X54153Y91148D01*
D02*
G37*
G36*
X118338Y91700D02*
X117662D01*
X117037Y91441D01*
X116559Y90963D01*
X116300Y90338D01*
Y89662D01*
X116559Y89037D01*
X117037Y88559D01*
X117662Y88300D01*
X118338D01*
X118963Y88559D01*
X119441Y89037D01*
X119700Y89662D01*
Y90338D01*
X119441Y90963D01*
X118963Y91441D01*
X118338Y91700D01*
D02*
G37*
G36*
X83972Y90526D02*
X83296D01*
X82671Y90267D01*
X82193Y89789D01*
X81934Y89164D01*
Y88488D01*
X82193Y87863D01*
X82671Y87385D01*
X83296Y87126D01*
X83972D01*
X84597Y87385D01*
X85075Y87863D01*
X85334Y88488D01*
Y89164D01*
X85075Y89789D01*
X84597Y90267D01*
X83972Y90526D01*
D02*
G37*
G36*
X42295Y87211D02*
X41738D01*
X41223Y86998D01*
X41055Y86830D01*
X40887Y86998D01*
X40373Y87211D01*
X39816D01*
X39301Y86998D01*
X39110Y86807D01*
X38919Y86998D01*
X38405Y87211D01*
X37848D01*
X37333Y86998D01*
X37142Y86807D01*
X36950Y86998D01*
X36436Y87211D01*
X35879D01*
X35364Y86998D01*
X35173Y86807D01*
X34982Y86998D01*
X34468Y87211D01*
X33911D01*
X33396Y86998D01*
X33205Y86807D01*
X33013Y86998D01*
X32499Y87211D01*
X31942D01*
X31427Y86998D01*
X31034Y86604D01*
X30821Y86089D01*
Y85699D01*
X30562Y85397D01*
X30376Y85300D01*
X29921D01*
X29407Y85087D01*
X29013Y84693D01*
X28800Y84179D01*
Y83622D01*
X29013Y83107D01*
X29407Y82713D01*
X29921Y82500D01*
X30479D01*
X30993Y82713D01*
X31387Y83107D01*
X31600Y83622D01*
Y84012D01*
X31859Y84314D01*
X32045Y84411D01*
X32499D01*
X33013Y84624D01*
X33205Y84815D01*
X33396Y84624D01*
X33911Y84411D01*
X34468D01*
X34982Y84624D01*
X35173Y84815D01*
X35364Y84624D01*
X35879Y84411D01*
X36305D01*
X36554Y84239D01*
X36726Y83990D01*
Y83695D01*
X36554Y83446D01*
X36305Y83274D01*
X35879D01*
X35364Y83061D01*
X35181Y82877D01*
X34982Y83076D01*
X34468Y83289D01*
X33911D01*
X33396Y83076D01*
X33002Y82682D01*
X32789Y82168D01*
Y81611D01*
X33002Y81096D01*
X33396Y80702D01*
X33911Y80489D01*
X34468D01*
X34982Y80702D01*
X35166Y80886D01*
X35364Y80687D01*
X35879Y80474D01*
X36436D01*
X36950Y80687D01*
X37344Y81081D01*
X37558Y81595D01*
Y82021D01*
X37729Y82271D01*
X37979Y82442D01*
X38405D01*
X38919Y82656D01*
X39313Y83049D01*
X39526Y83564D01*
Y83990D01*
X39698Y84239D01*
X39947Y84411D01*
X40242D01*
X40491Y84239D01*
X40663Y83990D01*
Y83564D01*
X40876Y83049D01*
X41270Y82656D01*
X41785Y82442D01*
X42342D01*
X42856Y82656D01*
X43250Y83049D01*
X43463Y83564D01*
Y84121D01*
X43250Y84636D01*
X43035Y84850D01*
X43203Y85018D01*
X43416Y85532D01*
Y86089D01*
X43203Y86604D01*
X42809Y86998D01*
X42295Y87211D01*
D02*
G37*
G36*
X50216Y89179D02*
X49659D01*
X49144Y88966D01*
X48750Y88573D01*
X48537Y88058D01*
Y87501D01*
X48750Y86987D01*
X49144Y86593D01*
X49659Y86379D01*
X50216D01*
X50730Y86593D01*
X51124Y86987D01*
X51337Y87501D01*
Y88058D01*
X51124Y88573D01*
X50730Y88966D01*
X50216Y89179D01*
D02*
G37*
G36*
X75995Y88493D02*
X75438D01*
X74923Y88280D01*
X74529Y87886D01*
X74316Y87371D01*
Y86814D01*
X74529Y86300D01*
X74923Y85906D01*
X75438Y85693D01*
X75995D01*
X76509Y85906D01*
X76903Y86300D01*
X77116Y86814D01*
Y87371D01*
X76903Y87886D01*
X76509Y88280D01*
X75995Y88493D01*
D02*
G37*
G36*
X28238Y89000D02*
X27562D01*
X26937Y88741D01*
X26459Y88263D01*
X26200Y87638D01*
Y86962D01*
X26459Y86337D01*
X26937Y85859D01*
X27562Y85600D01*
X28238D01*
X28863Y85859D01*
X29341Y86337D01*
X29600Y86962D01*
Y87638D01*
X29341Y88263D01*
X28863Y88741D01*
X28238Y89000D01*
D02*
G37*
G36*
X54153Y87211D02*
X53596D01*
X53081Y86998D01*
X52687Y86604D01*
X52474Y86089D01*
Y85532D01*
X52687Y85018D01*
X53081Y84624D01*
X53596Y84411D01*
X54153D01*
X54667Y84624D01*
X55061Y85018D01*
X55274Y85532D01*
Y86089D01*
X55061Y86604D01*
X54667Y86998D01*
X54153Y87211D01*
D02*
G37*
G36*
X133300Y92050D02*
X126700D01*
Y82950D01*
X133300D01*
Y92050D01*
D02*
G37*
G36*
X18300D02*
X11700D01*
Y82950D01*
X18300D01*
Y92050D01*
D02*
G37*
G36*
X58090Y83274D02*
X57533D01*
X57018Y83061D01*
X56827Y82870D01*
X56636Y83061D01*
X56121Y83274D01*
X55564D01*
X55050Y83061D01*
X54656Y82667D01*
X54443Y82152D01*
Y81727D01*
X54271Y81477D01*
X54022Y81305D01*
X53596D01*
X53081Y81092D01*
X52687Y80699D01*
X52474Y80184D01*
Y79627D01*
X52687Y79112D01*
X53081Y78719D01*
X53596Y78505D01*
X54153D01*
X54667Y78719D01*
X54858Y78910D01*
X55050Y78719D01*
X55564Y78505D01*
X56121D01*
X56636Y78719D01*
X57029Y79112D01*
X57243Y79627D01*
Y80053D01*
X57414Y80302D01*
X57664Y80474D01*
X58090D01*
X58604Y80687D01*
X58998Y81081D01*
X59211Y81595D01*
Y82152D01*
X58998Y82667D01*
X58604Y83061D01*
X58090Y83274D01*
D02*
G37*
G36*
X112090Y86002D02*
X111414D01*
X110789Y85743D01*
X110311Y85265D01*
X110052Y84640D01*
Y83964D01*
X110311Y83339D01*
X110789Y82861D01*
X111414Y82602D01*
X112090D01*
X112715Y82861D01*
X113193Y83339D01*
X113452Y83964D01*
Y84640D01*
X113193Y85265D01*
X112715Y85743D01*
X112090Y86002D01*
D02*
G37*
G36*
X118538Y85600D02*
X117862D01*
X117237Y85341D01*
X116759Y84863D01*
X116500Y84238D01*
Y83562D01*
X116759Y82937D01*
X117237Y82459D01*
X117862Y82200D01*
X118538D01*
X119163Y82459D01*
X119641Y82937D01*
X119900Y83562D01*
Y84238D01*
X119641Y84863D01*
X119163Y85341D01*
X118538Y85600D01*
D02*
G37*
G36*
X92345Y81987D02*
X91668D01*
X91044Y81728D01*
X90565Y81250D01*
X90307Y80625D01*
Y79949D01*
X90565Y79324D01*
X91044Y78846D01*
X91668Y78587D01*
X92345D01*
X92970Y78846D01*
X93448Y79324D01*
X93707Y79949D01*
Y80625D01*
X93448Y81250D01*
X92970Y81728D01*
X92345Y81987D01*
D02*
G37*
G36*
X48247Y85242D02*
X47690D01*
X47175Y85029D01*
X46782Y84636D01*
X46569Y84121D01*
Y83564D01*
X46782Y83049D01*
X47175Y82656D01*
X47690Y82442D01*
X48168D01*
X48342Y82336D01*
X48600Y82047D01*
Y81621D01*
X48813Y81107D01*
X48986Y80934D01*
X48750Y80699D01*
X48537Y80184D01*
Y79627D01*
X48750Y79112D01*
X49144Y78719D01*
X49659Y78505D01*
X50216D01*
X50730Y78719D01*
X51124Y79112D01*
X51337Y79627D01*
Y80184D01*
X51124Y80699D01*
X50951Y80871D01*
X51187Y81107D01*
X51400Y81621D01*
Y82178D01*
X51187Y82693D01*
X50793Y83087D01*
X50279Y83300D01*
X49800D01*
X49627Y83406D01*
X49369Y83695D01*
Y84121D01*
X49155Y84636D01*
X48761Y85029D01*
X48247Y85242D01*
D02*
G37*
G36*
X42379Y81300D02*
X41822D01*
X41307Y81087D01*
X40913Y80693D01*
X40700Y80178D01*
Y79621D01*
X40913Y79107D01*
X41307Y78713D01*
X41822Y78500D01*
X42379D01*
X42893Y78713D01*
X43287Y79107D01*
X43500Y79621D01*
Y80178D01*
X43287Y80693D01*
X42893Y81087D01*
X42379Y81300D01*
D02*
G37*
G36*
X46279Y81000D02*
X45722D01*
X45207Y80787D01*
X44813Y80393D01*
X44600Y79878D01*
Y79321D01*
X44813Y78807D01*
X45207Y78413D01*
X45722Y78200D01*
X46279D01*
X46793Y78413D01*
X47187Y78807D01*
X47400Y79321D01*
Y79878D01*
X47187Y80393D01*
X46793Y80787D01*
X46279Y81000D01*
D02*
G37*
G36*
X117938Y81100D02*
X117262D01*
X116637Y80841D01*
X116159Y80363D01*
X115900Y79738D01*
Y79062D01*
X116159Y78437D01*
X116637Y77959D01*
X117262Y77700D01*
X117938D01*
X118563Y77959D01*
X119041Y78437D01*
X119300Y79062D01*
Y79738D01*
X119041Y80363D01*
X118563Y80841D01*
X117938Y81100D01*
D02*
G37*
G36*
X48247Y77368D02*
X47690D01*
X47175Y77155D01*
X46984Y76964D01*
X46793Y77155D01*
X46279Y77368D01*
X45722D01*
X45207Y77155D01*
X45016Y76964D01*
X44824Y77155D01*
X44310Y77368D01*
X43753D01*
X43238Y77155D01*
X42845Y76762D01*
X42632Y76247D01*
Y75690D01*
X42845Y75175D01*
X43036Y74984D01*
X42845Y74793D01*
X42632Y74278D01*
Y73721D01*
X42845Y73207D01*
X43036Y73016D01*
X42845Y72825D01*
X42632Y72310D01*
Y71753D01*
X42845Y71238D01*
X43238Y70845D01*
X43753Y70631D01*
X44310D01*
X44824Y70845D01*
X45016Y71036D01*
X45207Y70845D01*
X45722Y70631D01*
X46279D01*
X46793Y70845D01*
X46984Y71036D01*
X47175Y70845D01*
X47690Y70631D01*
X48247D01*
X48761Y70845D01*
X49155Y71238D01*
X49369Y71753D01*
Y72310D01*
X49155Y72825D01*
X48964Y73016D01*
X49155Y73207D01*
X49369Y73721D01*
Y74278D01*
X49155Y74793D01*
X48964Y74984D01*
X49155Y75175D01*
X49369Y75690D01*
Y76247D01*
X49155Y76762D01*
X48761Y77155D01*
X48247Y77368D01*
D02*
G37*
G36*
X36418Y77363D02*
X35862D01*
X35347Y77150D01*
X35138Y76941D01*
X34993Y77087D01*
X34479Y77300D01*
X33922D01*
X33407Y77087D01*
X33013Y76693D01*
X32800Y76178D01*
Y75621D01*
X33013Y75107D01*
X33407Y74713D01*
X33922Y74500D01*
X34479D01*
X34993Y74713D01*
X35201Y74922D01*
X35347Y74776D01*
X35862Y74563D01*
X36303D01*
X36534Y74408D01*
X36726Y74149D01*
Y73721D01*
X36939Y73207D01*
X37333Y72813D01*
X37848Y72600D01*
X38405D01*
X38919Y72813D01*
X39313Y73207D01*
X39526Y73721D01*
Y74278D01*
X39313Y74793D01*
X38919Y75187D01*
X38405Y75400D01*
X37963D01*
X37732Y75555D01*
X37540Y75814D01*
Y76241D01*
X37327Y76756D01*
X36933Y77150D01*
X36418Y77363D01*
D02*
G37*
G36*
X99038Y81300D02*
X98362D01*
X97737Y81041D01*
X97259Y80563D01*
X97000Y79938D01*
Y79262D01*
X97259Y78637D01*
X97737Y78159D01*
X98362Y77900D01*
X99038D01*
X99663Y78159D01*
X99800Y78296D01*
X99969Y78284D01*
X100351Y78139D01*
X100559Y77637D01*
X101037Y77159D01*
X101662Y76900D01*
X102338D01*
X102963Y77159D01*
X103441Y77637D01*
X103700Y78262D01*
Y78938D01*
X103441Y79563D01*
X102963Y80041D01*
X102338Y80300D01*
X101662D01*
X101037Y80041D01*
X100900Y79904D01*
X100731Y79916D01*
X100349Y80061D01*
X100141Y80563D01*
X99663Y81041D01*
X99038Y81300D01*
D02*
G37*
G36*
X95138Y79000D02*
X94462D01*
X93837Y78741D01*
X93359Y78263D01*
X93100Y77638D01*
Y76962D01*
X93359Y76337D01*
X93837Y75859D01*
X94462Y75600D01*
X95138D01*
X95763Y75859D01*
X96241Y76337D01*
X96500Y76962D01*
Y77638D01*
X96241Y78263D01*
X95763Y78741D01*
X95138Y79000D01*
D02*
G37*
G36*
X68038Y77900D02*
X67362D01*
X66737Y77641D01*
X66259Y77163D01*
X66000Y76538D01*
Y75862D01*
X66259Y75237D01*
X66737Y74759D01*
X67362Y74500D01*
X68038D01*
X68663Y74759D01*
X69141Y75237D01*
X69400Y75862D01*
Y76538D01*
X69141Y77163D01*
X68663Y77641D01*
X68038Y77900D01*
D02*
G37*
G36*
X71938Y77800D02*
X71262D01*
X70637Y77541D01*
X70159Y77063D01*
X69900Y76438D01*
Y75762D01*
X70159Y75137D01*
X70637Y74659D01*
X71262Y74400D01*
X71938D01*
X72563Y74659D01*
X73041Y75137D01*
X73300Y75762D01*
Y76438D01*
X73041Y77063D01*
X72563Y77541D01*
X71938Y77800D01*
D02*
G37*
G36*
X133300Y82050D02*
X126700D01*
Y72950D01*
X133300D01*
Y82050D01*
D02*
G37*
G36*
X18300D02*
X11700D01*
Y72950D01*
X18300D01*
Y82050D01*
D02*
G37*
G36*
X54153Y75400D02*
X53596D01*
X53081Y75187D01*
X52687Y74793D01*
X52474Y74278D01*
Y73721D01*
X52687Y73207D01*
X53081Y72813D01*
X53596Y72600D01*
X54153D01*
X54667Y72813D01*
X55061Y73207D01*
X55274Y73721D01*
Y74278D01*
X55061Y74793D01*
X54667Y75187D01*
X54153Y75400D01*
D02*
G37*
G36*
X30531D02*
X29974D01*
X29459Y75187D01*
X29065Y74793D01*
X28852Y74278D01*
Y73721D01*
X29065Y73207D01*
X29459Y72813D01*
X29974Y72600D01*
X30531D01*
X31045Y72813D01*
X31439Y73207D01*
X31652Y73721D01*
Y74278D01*
X31439Y74793D01*
X31045Y75187D01*
X30531Y75400D01*
D02*
G37*
G36*
X80838Y75700D02*
X80162D01*
X79537Y75441D01*
X79059Y74963D01*
X78800Y74338D01*
Y73662D01*
X79059Y73037D01*
X79537Y72559D01*
X80162Y72300D01*
X80838D01*
X81463Y72559D01*
X81941Y73037D01*
X82200Y73662D01*
Y74338D01*
X81941Y74963D01*
X81463Y75441D01*
X80838Y75700D01*
D02*
G37*
G36*
X110718Y78633D02*
X110042D01*
X109417Y78375D01*
X108939Y77896D01*
X108680Y77272D01*
Y76595D01*
X108939Y75971D01*
X109026Y75883D01*
X108858Y75383D01*
X108233Y75124D01*
X107755Y74646D01*
X107496Y74021D01*
Y73345D01*
X107755Y72720D01*
X108233Y72242D01*
X108858Y71983D01*
X109535D01*
X110159Y72242D01*
X110638Y72720D01*
X110896Y73345D01*
Y74021D01*
X110638Y74646D01*
X110550Y74734D01*
X110718Y75234D01*
X111343Y75492D01*
X111821Y75971D01*
X112080Y76595D01*
Y77272D01*
X111821Y77896D01*
X111343Y78375D01*
X110718Y78633D01*
D02*
G37*
G36*
X102838Y75337D02*
X102162D01*
X101537Y75078D01*
X101059Y74600D01*
X100800Y73975D01*
Y73299D01*
X101059Y72674D01*
X101537Y72196D01*
X102162Y71937D01*
X102838D01*
X103463Y72196D01*
X103941Y72674D01*
X104200Y73299D01*
Y73975D01*
X103941Y74600D01*
X103463Y75078D01*
X102838Y75337D01*
D02*
G37*
G36*
X36436Y71463D02*
X35879D01*
X35364Y71250D01*
X35173Y71059D01*
X34982Y71250D01*
X34468Y71463D01*
X33911D01*
X33396Y71250D01*
X33002Y70856D01*
X32789Y70341D01*
Y69784D01*
X33002Y69270D01*
X33396Y68876D01*
X33911Y68663D01*
X34336D01*
X34586Y68491D01*
X34758Y68242D01*
Y67947D01*
X34586Y67698D01*
X34336Y67526D01*
X33911D01*
X33396Y67313D01*
X33002Y66919D01*
X32789Y66404D01*
Y65847D01*
X33002Y65333D01*
X33193Y65142D01*
X33002Y64951D01*
X32789Y64436D01*
Y63879D01*
X33002Y63364D01*
X33193Y63173D01*
X33002Y62982D01*
X32789Y62467D01*
Y62041D01*
X32617Y61792D01*
X32368Y61620D01*
X31942D01*
X31427Y61407D01*
X31034Y61014D01*
X30821Y60499D01*
Y59942D01*
X31034Y59427D01*
X31427Y59034D01*
X31942Y58820D01*
X32499D01*
X33013Y59034D01*
X33407Y59427D01*
X33621Y59942D01*
Y60368D01*
X33792Y60617D01*
X34042Y60789D01*
X34468D01*
X34982Y61002D01*
X35173Y61193D01*
X35364Y61002D01*
X35879Y60789D01*
X36305D01*
X36554Y60617D01*
X36726Y60368D01*
Y59942D01*
X36939Y59427D01*
X37333Y59034D01*
X37848Y58820D01*
X38405D01*
X38919Y59034D01*
X39313Y59427D01*
X39526Y59942D01*
Y60499D01*
X39313Y61014D01*
X39122Y61205D01*
X39313Y61396D01*
X39526Y61910D01*
Y62467D01*
X39313Y62982D01*
X38919Y63376D01*
X38405Y63589D01*
X37848D01*
X37333Y63376D01*
X37142Y63185D01*
X36950Y63376D01*
X36436Y63589D01*
X36010D01*
X35761Y63761D01*
X35589Y64010D01*
Y64305D01*
X35761Y64554D01*
X36010Y64726D01*
X36436D01*
X36950Y64939D01*
X37344Y65333D01*
X37558Y65847D01*
Y66404D01*
X37344Y66919D01*
X37153Y67110D01*
X37344Y67301D01*
X37558Y67816D01*
Y68373D01*
X37344Y68888D01*
X37153Y69079D01*
X37344Y69270D01*
X37558Y69784D01*
Y70341D01*
X37344Y70856D01*
X36950Y71250D01*
X36436Y71463D01*
D02*
G37*
G36*
X58090Y73431D02*
X57533D01*
X57018Y73218D01*
X56624Y72825D01*
X56411Y72310D01*
Y71753D01*
X56624Y71238D01*
X57018Y70845D01*
X57533Y70631D01*
X57959D01*
X58208Y70460D01*
X58380Y70210D01*
Y69784D01*
X58593Y69270D01*
X58987Y68876D01*
X59501Y68663D01*
X60058D01*
X60573Y68876D01*
X60966Y69270D01*
X61180Y69784D01*
Y70341D01*
X60966Y70856D01*
X60573Y71250D01*
X60058Y71463D01*
X59632D01*
X59383Y71635D01*
X59211Y71884D01*
Y72310D01*
X58998Y72825D01*
X58604Y73218D01*
X58090Y73431D01*
D02*
G37*
G36*
X72838Y71550D02*
X72162D01*
X71537Y71291D01*
X71059Y70813D01*
X70800Y70188D01*
Y69512D01*
X71059Y68887D01*
X71537Y68409D01*
X72162Y68150D01*
X72838D01*
X73463Y68409D01*
X73941Y68887D01*
X74200Y69512D01*
Y70188D01*
X73941Y70813D01*
X73463Y71291D01*
X72838Y71550D01*
D02*
G37*
G36*
X110646Y71305D02*
X109969D01*
X109344Y71046D01*
X108866Y70568D01*
X108607Y69943D01*
Y69267D01*
X108866Y68642D01*
X109344Y68164D01*
X109969Y67905D01*
X110646D01*
X111270Y68164D01*
X111749Y68642D01*
X112007Y69267D01*
Y69943D01*
X111749Y70568D01*
X111270Y71046D01*
X110646Y71305D01*
D02*
G37*
G36*
X121038Y71000D02*
X120362D01*
X119737Y70741D01*
X119259Y70263D01*
X119000Y69638D01*
Y68962D01*
X119259Y68337D01*
X119737Y67859D01*
X120362Y67600D01*
X121038D01*
X121663Y67859D01*
X122141Y68337D01*
X122400Y68962D01*
Y69638D01*
X122141Y70263D01*
X121663Y70741D01*
X121038Y71000D01*
D02*
G37*
G36*
X52184Y71463D02*
X51627D01*
X51113Y71250D01*
X50719Y70856D01*
X50506Y70341D01*
Y69784D01*
X50719Y69270D01*
X51113Y68876D01*
X51627Y68663D01*
X52053D01*
X52302Y68491D01*
X52474Y68242D01*
Y67816D01*
X52687Y67301D01*
X53081Y66908D01*
X53596Y66694D01*
X54153D01*
X54667Y66908D01*
X55061Y67301D01*
X55274Y67816D01*
Y68373D01*
X55061Y68888D01*
X54667Y69281D01*
X54153Y69494D01*
X53727D01*
X53477Y69666D01*
X53306Y69916D01*
Y70341D01*
X53092Y70856D01*
X52699Y71250D01*
X52184Y71463D01*
D02*
G37*
G36*
X42342Y69494D02*
X41785D01*
X41270Y69281D01*
X40876Y68888D01*
X40663Y68373D01*
Y67816D01*
X40876Y67301D01*
X41270Y66908D01*
X41785Y66694D01*
X42342D01*
X42856Y66908D01*
X43250Y67301D01*
X43463Y67816D01*
Y68373D01*
X43250Y68888D01*
X42856Y69281D01*
X42342Y69494D01*
D02*
G37*
G36*
X60058Y67526D02*
X59501D01*
X58987Y67313D01*
X58593Y66919D01*
X58380Y66404D01*
Y65978D01*
X58208Y65729D01*
X57959Y65557D01*
X57533D01*
X57018Y65344D01*
X56827Y65153D01*
X56593Y65387D01*
X56078Y65600D01*
X55522D01*
X55007Y65387D01*
X54816Y65196D01*
X54667Y65344D01*
X54153Y65557D01*
X53596D01*
X53081Y65344D01*
X52687Y64951D01*
X52474Y64436D01*
Y64051D01*
X52374Y63810D01*
X52053Y63589D01*
X51726D01*
X51211Y63376D01*
X50817Y62982D01*
X50604Y62467D01*
Y61910D01*
X50817Y61396D01*
X51211Y61002D01*
X51726Y60789D01*
X52282D01*
X52797Y61002D01*
X53191Y61396D01*
X53404Y61910D01*
Y62296D01*
X53504Y62536D01*
X53825Y62757D01*
X54153D01*
X54667Y62971D01*
X54858Y63162D01*
X55007Y63013D01*
X55522Y62800D01*
X56078D01*
X56593Y63013D01*
X56784Y63204D01*
X57018Y62971D01*
X57533Y62757D01*
X57959D01*
X58208Y62586D01*
X58380Y62336D01*
Y62037D01*
X58197Y61785D01*
X57959Y61620D01*
X57521D01*
X57006Y61407D01*
X56612Y61014D01*
X56399Y60499D01*
Y59942D01*
X56612Y59427D01*
X57006Y59034D01*
X57521Y58820D01*
X58078D01*
X58592Y59034D01*
X58986Y59427D01*
X59199Y59942D01*
Y60373D01*
X59382Y60625D01*
X59620Y60789D01*
X60058D01*
X60573Y61002D01*
X60966Y61396D01*
X61180Y61910D01*
Y62467D01*
X60966Y62982D01*
X60573Y63376D01*
X60058Y63589D01*
X59632D01*
X59383Y63761D01*
X59211Y64010D01*
Y64305D01*
X59383Y64554D01*
X59632Y64726D01*
X60058D01*
X60573Y64939D01*
X60966Y65333D01*
X61180Y65847D01*
Y66404D01*
X60966Y66919D01*
X60573Y67313D01*
X60058Y67526D01*
D02*
G37*
G36*
X48247Y65557D02*
X47690D01*
X47175Y65344D01*
X46984Y65153D01*
X46793Y65344D01*
X46279Y65557D01*
X45722D01*
X45207Y65344D01*
X44813Y64951D01*
X44600Y64436D01*
Y63879D01*
X44813Y63364D01*
X45004Y63173D01*
X44813Y62982D01*
X44600Y62467D01*
Y61910D01*
X44813Y61396D01*
X45207Y61002D01*
X45722Y60789D01*
X46279D01*
X46793Y61002D01*
X47187Y61396D01*
X47400Y61910D01*
Y62336D01*
X47572Y62586D01*
X47821Y62757D01*
X48247D01*
X48761Y62971D01*
X49155Y63364D01*
X49369Y63879D01*
Y64436D01*
X49155Y64951D01*
X48761Y65344D01*
X48247Y65557D01*
D02*
G37*
G36*
X84838Y67700D02*
X84162D01*
X83537Y67441D01*
X83059Y66963D01*
X82800Y66338D01*
Y65662D01*
X83059Y65037D01*
X83537Y64559D01*
X84162Y64300D01*
X84838D01*
X85463Y64559D01*
X85941Y65037D01*
X86200Y65662D01*
Y66338D01*
X85941Y66963D01*
X85463Y67441D01*
X84838Y67700D01*
D02*
G37*
G36*
X66738D02*
X66062D01*
X65437Y67441D01*
X64959Y66963D01*
X64700Y66338D01*
Y65662D01*
X64959Y65037D01*
X65437Y64559D01*
X66062Y64300D01*
X66738D01*
X67363Y64559D01*
X67841Y65037D01*
X68100Y65662D01*
Y66338D01*
X67841Y66963D01*
X67363Y67441D01*
X66738Y67700D01*
D02*
G37*
G36*
X133300Y72050D02*
X126700D01*
Y62950D01*
X133300D01*
Y72050D01*
D02*
G37*
G36*
X18300D02*
X11700D01*
Y62950D01*
X18300D01*
Y72050D01*
D02*
G37*
G36*
X42342Y65557D02*
X41785D01*
X41270Y65344D01*
X40876Y64951D01*
X40663Y64436D01*
Y63879D01*
X40876Y63364D01*
X41270Y62971D01*
X41785Y62757D01*
X42342D01*
X42856Y62971D01*
X43250Y63364D01*
X43463Y63879D01*
Y64436D01*
X43250Y64951D01*
X42856Y65344D01*
X42342Y65557D01*
D02*
G37*
G36*
X71338Y65900D02*
X70662D01*
X70037Y65641D01*
X69559Y65163D01*
X69300Y64538D01*
Y63862D01*
X69559Y63237D01*
X70037Y62759D01*
X70662Y62500D01*
X71338D01*
X71963Y62759D01*
X72441Y63237D01*
X72700Y63862D01*
Y64538D01*
X72441Y65163D01*
X71963Y65641D01*
X71338Y65900D01*
D02*
G37*
G36*
X92238Y69600D02*
X91562D01*
X90937Y69341D01*
X90459Y68863D01*
X90200Y68238D01*
Y68058D01*
X90038Y67950D01*
X89362D01*
X88737Y67691D01*
X88259Y67213D01*
X88000Y66588D01*
Y65912D01*
X88259Y65287D01*
X88284Y65262D01*
X88227Y65082D01*
X88039Y64800D01*
X87462D01*
X86837Y64541D01*
X86359Y64063D01*
X86100Y63438D01*
Y62762D01*
X86359Y62137D01*
X86837Y61659D01*
X87462Y61400D01*
X88138D01*
X88763Y61659D01*
X89241Y62137D01*
X89500Y62762D01*
Y63438D01*
X89241Y64063D01*
X89216Y64088D01*
X89273Y64268D01*
X89461Y64550D01*
X90038D01*
X90663Y64809D01*
X91141Y65287D01*
X91400Y65912D01*
Y66092D01*
X91562Y66200D01*
X92238D01*
X92863Y66459D01*
X93341Y66937D01*
X93600Y67562D01*
Y68238D01*
X93341Y68863D01*
X92863Y69341D01*
X92238Y69600D01*
D02*
G37*
G36*
X113838Y64700D02*
X113162D01*
X112537Y64441D01*
X112059Y63963D01*
X111800Y63338D01*
Y62662D01*
X112059Y62037D01*
X112537Y61559D01*
X113162Y61300D01*
X113838D01*
X114463Y61559D01*
X114941Y62037D01*
X115200Y62662D01*
Y63338D01*
X114941Y63963D01*
X114463Y64441D01*
X113838Y64700D01*
D02*
G37*
G36*
X76238Y64100D02*
X75562D01*
X74937Y63841D01*
X74459Y63363D01*
X74200Y62738D01*
Y62062D01*
X74459Y61437D01*
X74937Y60959D01*
X75562Y60700D01*
X76238D01*
X76863Y60959D01*
X77341Y61437D01*
X77474Y61758D01*
X77500Y61820D01*
X78000Y61721D01*
X78000Y61640D01*
Y61212D01*
X78259Y60587D01*
X78737Y60109D01*
X79362Y59850D01*
X80038D01*
X80663Y60109D01*
X81141Y60587D01*
X81400Y61212D01*
Y61888D01*
X81141Y62513D01*
X80663Y62991D01*
X80038Y63250D01*
X79362D01*
X78737Y62991D01*
X78259Y62513D01*
X78126Y62192D01*
X78100Y62130D01*
X77600Y62229D01*
X77600Y62310D01*
Y62738D01*
X77341Y63363D01*
X76863Y63841D01*
X76238Y64100D01*
D02*
G37*
G36*
X101700Y57922D02*
X101024D01*
X100399Y57663D01*
X99921Y57185D01*
X99662Y56560D01*
Y55884D01*
X99762Y55641D01*
X99380Y55259D01*
X99038Y55400D01*
X98362D01*
X97737Y55141D01*
X97259Y54663D01*
X97000Y54038D01*
Y53362D01*
X97259Y52737D01*
X97737Y52259D01*
X98362Y52000D01*
X99038D01*
X99663Y52259D01*
X100141Y52737D01*
X100400Y53362D01*
Y54038D01*
X100300Y54281D01*
X100682Y54663D01*
X101024Y54522D01*
X101700D01*
X102325Y54781D01*
X102803Y55259D01*
X103062Y55884D01*
Y56560D01*
X102803Y57185D01*
X102325Y57663D01*
X101700Y57922D01*
D02*
G37*
G36*
X106338Y58100D02*
X105662D01*
X105037Y57841D01*
X104559Y57363D01*
X104300Y56738D01*
Y56062D01*
X104559Y55437D01*
X105037Y54959D01*
X105662Y54700D01*
X106338D01*
X106963Y54959D01*
X107441Y55437D01*
X107700Y56062D01*
Y56738D01*
X107441Y57363D01*
X106963Y57841D01*
X106338Y58100D01*
D02*
G37*
G36*
X80838Y57800D02*
X80162D01*
X79537Y57541D01*
X79059Y57063D01*
X78800Y56438D01*
Y55762D01*
X79059Y55137D01*
X79537Y54659D01*
X80162Y54400D01*
X80838D01*
X81463Y54659D01*
X81941Y55137D01*
X82200Y55762D01*
Y56438D01*
X81941Y57063D01*
X81463Y57541D01*
X80838Y57800D01*
D02*
G37*
G36*
X111438Y57300D02*
X110762D01*
X110137Y57041D01*
X109659Y56563D01*
X109400Y55938D01*
Y55262D01*
X109659Y54637D01*
X110137Y54159D01*
X110762Y53900D01*
X111438D01*
X112063Y54159D01*
X112541Y54637D01*
X112800Y55262D01*
Y55938D01*
X112541Y56563D01*
X112063Y57041D01*
X111438Y57300D01*
D02*
G37*
G36*
X133300Y62050D02*
X126700D01*
Y52950D01*
X133300D01*
Y62050D01*
D02*
G37*
G36*
X18300D02*
X11700D01*
Y52950D01*
X18300D01*
Y62050D01*
D02*
G37*
G36*
X28838Y57900D02*
X28162D01*
X27537Y57641D01*
X27059Y57163D01*
X26800Y56538D01*
Y56453D01*
X26738Y56200D01*
X26062D01*
X25437Y55941D01*
X24959Y55463D01*
X24700Y54838D01*
Y54162D01*
X24959Y53537D01*
X25437Y53059D01*
X26062Y52800D01*
X26738D01*
X27363Y53059D01*
X27841Y53537D01*
X28100Y54162D01*
Y54247D01*
X28162Y54500D01*
X28838D01*
X29463Y54759D01*
X29941Y55237D01*
X30200Y55862D01*
Y56538D01*
X29941Y57163D01*
X29463Y57641D01*
X28838Y57900D01*
D02*
G37*
G36*
X76238Y56150D02*
X75562D01*
X74937Y55891D01*
X74459Y55413D01*
X74200Y54788D01*
Y54112D01*
X74459Y53487D01*
X74937Y53009D01*
X75562Y52750D01*
X76238D01*
X76863Y53009D01*
X77341Y53487D01*
X77600Y54112D01*
Y54788D01*
X77341Y55413D01*
X76863Y55891D01*
X76238Y56150D01*
D02*
G37*
G36*
X78738Y53000D02*
X78062D01*
X77437Y52741D01*
X76959Y52263D01*
X76700Y51638D01*
Y50962D01*
X76959Y50337D01*
X77437Y49859D01*
X78062Y49600D01*
X78738D01*
X79363Y49859D01*
X79841Y50337D01*
X80100Y50962D01*
Y51638D01*
X79841Y52263D01*
X79363Y52741D01*
X78738Y53000D01*
D02*
G37*
G36*
X32371Y55633D02*
X31695D01*
X31070Y55374D01*
X30592Y54896D01*
X30333Y54271D01*
Y53595D01*
X29874Y53397D01*
X29327Y53171D01*
X28848Y52692D01*
X28590Y52068D01*
Y51391D01*
X28848Y50766D01*
X28979Y50636D01*
X29237Y50241D01*
X28759Y49763D01*
X28500Y49138D01*
Y48462D01*
X28759Y47837D01*
X29237Y47359D01*
X29862Y47100D01*
X30538D01*
X31163Y47359D01*
X31641Y47837D01*
X31900Y48462D01*
Y49138D01*
X31641Y49763D01*
X31511Y49893D01*
X31253Y50288D01*
X31731Y50766D01*
X31990Y51391D01*
Y52067D01*
X32449Y52265D01*
X32996Y52492D01*
X33474Y52970D01*
X33733Y53595D01*
Y54271D01*
X33474Y54896D01*
X32996Y55374D01*
X32371Y55633D01*
D02*
G37*
G36*
X52238Y50200D02*
X51562D01*
X50937Y49941D01*
X50459Y49463D01*
X50200Y48838D01*
Y48162D01*
X50459Y47537D01*
X50937Y47059D01*
X51562Y46800D01*
X52238D01*
X52863Y47059D01*
X53341Y47537D01*
X53600Y48162D01*
Y48838D01*
X53341Y49463D01*
X52863Y49941D01*
X52238Y50200D01*
D02*
G37*
G36*
X85607Y49965D02*
X84593D01*
X83656Y49577D01*
X82938Y48859D01*
X82550Y47922D01*
Y46908D01*
X82938Y45970D01*
X83656Y45253D01*
X84593Y44865D01*
X85607D01*
X86545Y45253D01*
X87262Y45970D01*
X87650Y46908D01*
Y47922D01*
X87262Y48859D01*
X86545Y49577D01*
X85607Y49965D01*
D02*
G37*
G36*
X123938Y47300D02*
X123262D01*
X122637Y47041D01*
X122159Y46563D01*
X121900Y45938D01*
Y45262D01*
X122159Y44637D01*
X122637Y44159D01*
X123262Y43900D01*
X123938D01*
X124563Y44159D01*
X125041Y44637D01*
X125300Y45262D01*
Y45938D01*
X125041Y46563D01*
X124563Y47041D01*
X123938Y47300D01*
D02*
G37*
G36*
X109005Y47242D02*
X108328D01*
X107704Y46983D01*
X107225Y46505D01*
X106967Y45880D01*
Y45204D01*
X107225Y44579D01*
X107704Y44101D01*
X108328Y43842D01*
X109005D01*
X109629Y44101D01*
X110108Y44579D01*
X110367Y45204D01*
Y45880D01*
X110108Y46505D01*
X109629Y46983D01*
X109005Y47242D01*
D02*
G37*
G36*
X23238Y47000D02*
X22562D01*
X21937Y46741D01*
X21459Y46263D01*
X21200Y45638D01*
Y44962D01*
X21459Y44337D01*
X21937Y43859D01*
X22562Y43600D01*
X23238D01*
X23863Y43859D01*
X24341Y44337D01*
X24600Y44962D01*
Y45638D01*
X24341Y46263D01*
X23863Y46741D01*
X23238Y47000D01*
D02*
G37*
G36*
X41038Y49400D02*
X40362D01*
X39737Y49141D01*
X39259Y48663D01*
X39000Y48038D01*
Y47362D01*
X39067Y47200D01*
X38762Y46700D01*
X38137Y46441D01*
X37659Y45963D01*
X37400Y45338D01*
Y44662D01*
X37659Y44037D01*
X38137Y43559D01*
X38762Y43300D01*
X39438D01*
X40063Y43559D01*
X40541Y44037D01*
X40800Y44662D01*
Y45338D01*
X40733Y45500D01*
X41038Y46000D01*
X41663Y46259D01*
X42141Y46737D01*
X42400Y47362D01*
Y48038D01*
X42141Y48663D01*
X41663Y49141D01*
X41038Y49400D01*
D02*
G37*
G36*
X92438Y46500D02*
X91762D01*
X91137Y46241D01*
X90659Y45763D01*
X90400Y45138D01*
Y44462D01*
X90659Y43837D01*
X91137Y43359D01*
X91762Y43100D01*
X92438D01*
X93063Y43359D01*
X93541Y43837D01*
X93800Y44462D01*
Y45138D01*
X93541Y45763D01*
X93063Y46241D01*
X92438Y46500D01*
D02*
G37*
G36*
X133300Y52050D02*
X126700D01*
Y42950D01*
X133300D01*
Y52050D01*
D02*
G37*
G36*
X18300D02*
X11700D01*
Y42950D01*
X18300D01*
Y52050D01*
D02*
G37*
G36*
X44138Y45900D02*
X43462D01*
X42837Y45641D01*
X42359Y45163D01*
X42100Y44538D01*
Y43862D01*
X42359Y43237D01*
X42837Y42759D01*
X43462Y42500D01*
X44138D01*
X44763Y42759D01*
X45241Y43237D01*
X45500Y43862D01*
Y44538D01*
X45241Y45163D01*
X44763Y45641D01*
X44138Y45900D01*
D02*
G37*
G36*
X24079Y42350D02*
X23521D01*
X23007Y42137D01*
X22613Y41743D01*
X22400Y41229D01*
Y40672D01*
X22613Y40157D01*
X23007Y39764D01*
X23521Y39550D01*
X24079D01*
X24593Y39764D01*
X24987Y40157D01*
X25200Y40672D01*
Y41229D01*
X24987Y41743D01*
X24593Y42137D01*
X24079Y42350D01*
D02*
G37*
G36*
X68438Y42000D02*
X67762D01*
X67137Y41741D01*
X66659Y41263D01*
X66400Y40638D01*
Y39962D01*
X66659Y39337D01*
X67137Y38859D01*
X67762Y38600D01*
X68438D01*
X69063Y38859D01*
X69541Y39337D01*
X69800Y39962D01*
Y40638D01*
X69541Y41263D01*
X69063Y41741D01*
X68438Y42000D01*
D02*
G37*
G36*
X95026Y39627D02*
X94350D01*
X93725Y39368D01*
X93247Y38890D01*
X92988Y38265D01*
Y37589D01*
X93247Y36964D01*
X93725Y36486D01*
X94350Y36227D01*
X95026D01*
X95651Y36486D01*
X96129Y36964D01*
X96388Y37589D01*
Y38265D01*
X96129Y38890D01*
X95651Y39368D01*
X95026Y39627D01*
D02*
G37*
G36*
X87938Y39115D02*
X87262D01*
X86637Y38856D01*
X86159Y38378D01*
X85900Y37753D01*
Y37077D01*
X86159Y36452D01*
X86637Y35974D01*
X87262Y35715D01*
X87938D01*
X88563Y35974D01*
X89041Y36452D01*
X89300Y37077D01*
Y37753D01*
X89041Y38378D01*
X88563Y38856D01*
X87938Y39115D01*
D02*
G37*
G36*
X82938D02*
X82262D01*
X81637Y38856D01*
X81159Y38378D01*
X80900Y37753D01*
Y37077D01*
X81159Y36452D01*
X81637Y35974D01*
X82262Y35715D01*
X82938D01*
X83563Y35974D01*
X84041Y36452D01*
X84300Y37077D01*
Y37753D01*
X84041Y38378D01*
X83563Y38856D01*
X82938Y39115D01*
D02*
G37*
G36*
X38438Y40700D02*
X37762D01*
X37137Y40441D01*
X36659Y39963D01*
X36400Y39338D01*
Y38662D01*
X36659Y38037D01*
X36919Y37777D01*
X37133Y37551D01*
X36919Y37123D01*
X36759Y36963D01*
X36500Y36338D01*
Y35662D01*
X36759Y35037D01*
X37237Y34559D01*
X37862Y34300D01*
X38538D01*
X39163Y34559D01*
X39641Y35037D01*
X39900Y35662D01*
Y36338D01*
X39641Y36963D01*
X39381Y37223D01*
X39167Y37449D01*
X39381Y37877D01*
X39541Y38037D01*
X39800Y38662D01*
Y39338D01*
X39541Y39963D01*
X39063Y40441D01*
X38438Y40700D01*
D02*
G37*
G36*
X121738Y36500D02*
X121062D01*
X120437Y36241D01*
X119959Y35763D01*
X119700Y35138D01*
Y34462D01*
X119959Y33837D01*
X120437Y33359D01*
X121062Y33100D01*
X121738D01*
X122363Y33359D01*
X122841Y33837D01*
X123100Y34462D01*
Y35138D01*
X122841Y35763D01*
X122363Y36241D01*
X121738Y36500D01*
D02*
G37*
G36*
X133300Y42050D02*
X126700D01*
Y32950D01*
X133300D01*
Y42050D01*
D02*
G37*
G36*
X18300D02*
X11700D01*
Y32950D01*
X18300D01*
Y42050D01*
D02*
G37*
G36*
X55038Y42200D02*
X54362D01*
X53737Y41941D01*
X53259Y41463D01*
X53000Y40838D01*
Y40162D01*
X53259Y39537D01*
X53737Y39059D01*
X53700Y38533D01*
X53237Y38341D01*
X52759Y37863D01*
X52500Y37238D01*
Y36562D01*
X52759Y35937D01*
X53146Y35550D01*
X52759Y35163D01*
X52500Y34538D01*
Y33862D01*
X52759Y33237D01*
X53237Y32759D01*
X53862Y32500D01*
X54538D01*
X55163Y32759D01*
X55641Y33237D01*
X55900Y33862D01*
Y34538D01*
X55641Y35163D01*
X55254Y35550D01*
X55641Y35937D01*
X55900Y36562D01*
Y37238D01*
X55641Y37863D01*
X55163Y38341D01*
X55200Y38867D01*
X55663Y39059D01*
X56141Y39537D01*
X56400Y40162D01*
Y40838D01*
X56141Y41463D01*
X55663Y41941D01*
X55038Y42200D01*
D02*
G37*
G36*
X24079Y35300D02*
X23521D01*
X23007Y35087D01*
X22613Y34693D01*
X22400Y34179D01*
Y33621D01*
X22613Y33107D01*
X23007Y32713D01*
X23521Y32500D01*
X24079D01*
X24593Y32713D01*
X24987Y33107D01*
X25200Y33621D01*
Y34179D01*
X24987Y34693D01*
X24593Y35087D01*
X24079Y35300D01*
D02*
G37*
G36*
X87938Y34115D02*
X87262D01*
X86637Y33856D01*
X86159Y33378D01*
X85900Y32753D01*
Y32077D01*
X86159Y31452D01*
X86637Y30974D01*
X87262Y30715D01*
X87938D01*
X88563Y30974D01*
X89041Y31452D01*
X89300Y32077D01*
Y32753D01*
X89041Y33378D01*
X88563Y33856D01*
X87938Y34115D01*
D02*
G37*
G36*
X82938D02*
X82262D01*
X81637Y33856D01*
X81159Y33378D01*
X80900Y32753D01*
Y32077D01*
X81159Y31452D01*
X81637Y30974D01*
X82262Y30715D01*
X82938D01*
X83563Y30974D01*
X84041Y31452D01*
X84300Y32077D01*
Y32753D01*
X84041Y33378D01*
X83563Y33856D01*
X82938Y34115D01*
D02*
G37*
G36*
X46438Y34100D02*
X45762D01*
X45137Y33841D01*
X44659Y33363D01*
X44400Y32738D01*
Y32062D01*
X44659Y31437D01*
X45137Y30959D01*
X45762Y30700D01*
X46438D01*
X47063Y30959D01*
X47541Y31437D01*
X47800Y32062D01*
Y32738D01*
X47541Y33363D01*
X47063Y33841D01*
X46438Y34100D01*
D02*
G37*
G36*
X41538Y34000D02*
X40862D01*
X40237Y33741D01*
X39759Y33263D01*
X39500Y32638D01*
Y31962D01*
X39759Y31337D01*
X40237Y30859D01*
X40862Y30600D01*
X41538D01*
X42163Y30859D01*
X42641Y31337D01*
X42900Y31962D01*
Y32638D01*
X42641Y33263D01*
X42163Y33741D01*
X41538Y34000D01*
D02*
G37*
G36*
X119005Y30309D02*
X118328D01*
X117704Y30050D01*
X117225Y29572D01*
X116967Y28947D01*
Y28271D01*
X117225Y27646D01*
X117704Y27168D01*
X118328Y26909D01*
X119005D01*
X119630Y27168D01*
X120108Y27646D01*
X120367Y28271D01*
Y28947D01*
X120108Y29572D01*
X119630Y30050D01*
X119005Y30309D01*
D02*
G37*
G36*
X109005D02*
X108328D01*
X107704Y30050D01*
X107225Y29572D01*
X106967Y28947D01*
Y28271D01*
X107225Y27646D01*
X107704Y27168D01*
X108328Y26909D01*
X109005D01*
X109629Y27168D01*
X110108Y27646D01*
X110367Y28271D01*
Y28947D01*
X110108Y29572D01*
X109629Y30050D01*
X109005Y30309D01*
D02*
G37*
G36*
X104038Y30300D02*
X103362D01*
X102737Y30041D01*
X102259Y29563D01*
X102000Y28938D01*
Y28262D01*
X102259Y27637D01*
X102737Y27159D01*
X103362Y26900D01*
X104038D01*
X104663Y27159D01*
X105141Y27637D01*
X105400Y28262D01*
Y28938D01*
X105141Y29563D01*
X104663Y30041D01*
X104038Y30300D01*
D02*
G37*
G36*
X24079Y28700D02*
X23521D01*
X23007Y28487D01*
X22613Y28093D01*
X22400Y27578D01*
Y27022D01*
X22613Y26507D01*
X23007Y26113D01*
X23521Y25900D01*
X24079D01*
X24593Y26113D01*
X24987Y26507D01*
X25200Y27022D01*
Y27578D01*
X24987Y28093D01*
X24593Y28487D01*
X24079Y28700D01*
D02*
G37*
G36*
X36438Y32200D02*
X35762D01*
X35137Y31941D01*
X34659Y31463D01*
X34400Y30838D01*
Y30162D01*
X34633Y29600D01*
X34530Y29300D01*
X34410Y29079D01*
X33837Y28841D01*
X33359Y28363D01*
X33100Y27738D01*
Y27062D01*
X33359Y26437D01*
X33837Y25959D01*
X34462Y25700D01*
X35138D01*
X35763Y25959D01*
X36241Y26437D01*
X36500Y27062D01*
Y27738D01*
X36267Y28300D01*
X36370Y28600D01*
X36490Y28821D01*
X37063Y29059D01*
X37541Y29537D01*
X37800Y30162D01*
Y30838D01*
X37541Y31463D01*
X37063Y31941D01*
X36438Y32200D01*
D02*
G37*
G36*
X89607Y29965D02*
X88593D01*
X87656Y29577D01*
X86938Y28859D01*
X86550Y27922D01*
Y26908D01*
X86938Y25971D01*
X87656Y25253D01*
X88593Y24865D01*
X89607D01*
X90544Y25253D01*
X91262Y25971D01*
X91650Y26908D01*
Y27922D01*
X91262Y28859D01*
X90544Y29577D01*
X89607Y29965D01*
D02*
G37*
G36*
X81607D02*
X80593D01*
X79655Y29577D01*
X78938Y28859D01*
X78550Y27922D01*
Y26908D01*
X78938Y25971D01*
X79655Y25253D01*
X80593Y24865D01*
X81607D01*
X82544Y25253D01*
X83262Y25971D01*
X83650Y26908D01*
Y27922D01*
X83262Y28859D01*
X82544Y29577D01*
X81607Y29965D01*
D02*
G37*
G36*
X133300Y32050D02*
X126700D01*
Y22950D01*
X133300D01*
Y32050D01*
D02*
G37*
G36*
X18300D02*
X11700D01*
Y22950D01*
X18300D01*
Y32050D01*
D02*
G37*
G36*
X122050Y18300D02*
X112950D01*
Y11700D01*
X122050D01*
Y18300D01*
D02*
G37*
G36*
X112050D02*
X102950D01*
Y11700D01*
X112050D01*
Y18300D01*
D02*
G37*
G36*
X102050D02*
X92950D01*
Y11700D01*
X102050D01*
Y18300D01*
D02*
G37*
G36*
X92050D02*
X82950D01*
Y11700D01*
X92050D01*
Y18300D01*
D02*
G37*
G36*
X77138Y21300D02*
X76462D01*
X75837Y21041D01*
X75359Y20563D01*
X75100Y19938D01*
Y19262D01*
X75291Y18800D01*
X75043Y18300D01*
X72950D01*
Y11700D01*
X82050D01*
Y18300D01*
X78557D01*
X78309Y18800D01*
X78500Y19262D01*
Y19938D01*
X78241Y20563D01*
X77763Y21041D01*
X77138Y21300D01*
D02*
G37*
G36*
X72050Y18300D02*
X62950D01*
Y11700D01*
X72050D01*
Y18300D01*
D02*
G37*
G36*
X62050D02*
X52950D01*
Y11700D01*
X62050D01*
Y18300D01*
D02*
G37*
G36*
X48038Y22000D02*
X47362D01*
X46737Y21741D01*
X46259Y21263D01*
X46000Y20638D01*
Y19962D01*
X46259Y19337D01*
X46737Y18859D01*
X46879Y18800D01*
X46780Y18300D01*
X42950D01*
Y11700D01*
X52050D01*
Y18300D01*
X48620D01*
X48521Y18800D01*
X48663Y18859D01*
X49141Y19337D01*
X49400Y19962D01*
Y20638D01*
X49141Y21263D01*
X48663Y21741D01*
X48038Y22000D01*
D02*
G37*
G36*
X42050Y18300D02*
X32950D01*
Y11700D01*
X42050D01*
Y18300D01*
D02*
G37*
G36*
X27838Y23900D02*
X27162D01*
X26537Y23641D01*
X26059Y23163D01*
X25800Y22538D01*
Y21862D01*
X25625Y21600D01*
X25262D01*
X24637Y21341D01*
X24159Y20863D01*
X23900Y20238D01*
Y19562D01*
X24159Y18937D01*
X24296Y18800D01*
X24089Y18300D01*
X22950D01*
Y11700D01*
X32050D01*
Y18300D01*
X27111D01*
X26904Y18800D01*
X27041Y18937D01*
X27300Y19562D01*
Y20238D01*
X27475Y20500D01*
X27838D01*
X28463Y20759D01*
X28941Y21237D01*
X29200Y21862D01*
Y22538D01*
X28941Y23163D01*
X28463Y23641D01*
X27838Y23900D01*
D02*
G37*
%LPD*%
D31*
X23800Y24500D02*
D03*
X87400Y72700D02*
D03*
X23800Y37961D02*
D03*
Y30952D02*
D03*
X53874Y72031D02*
D03*
X38126Y81912D02*
D03*
Y72031D02*
D03*
X117938Y69605D02*
D03*
X38126Y79905D02*
D03*
X49937Y64157D02*
D03*
X51906D02*
D03*
X44032Y66126D02*
D03*
X53874Y75968D02*
D03*
X38126D02*
D03*
X38100Y68100D02*
D03*
D85*
X140000Y82500D02*
D03*
D88*
X68100Y44700D02*
D03*
X48300Y44200D02*
D03*
X63600Y114100D02*
D03*
X65600Y112300D02*
D03*
X113400Y89500D02*
D03*
X82600Y42415D02*
D03*
X80591Y87445D02*
D03*
X98941Y28609D02*
D03*
M02*
