G04*
G04 #@! TF.GenerationSoftware,Altium Limited,Altium Designer,25.8.1 (18)*
G04*
G04 Layer_Physical_Order=1*
G04 Layer_Color=3707366*
%FSLAX25Y25*%
%MOIN*%
G70*
G04*
G04 #@! TF.SameCoordinates,5B65FB0A-FCFC-48FD-BDDF-372C2C71C5DB*
G04*
G04*
G04 #@! TF.FilePolarity,Positive*
G04*
G01*
G75*
%ADD10C,0.01000*%
%ADD16C,0.00500*%
%ADD19R,0.02362X0.03347*%
%ADD20R,0.01968X0.02559*%
%ADD21R,0.02900X0.11000*%
G04:AMPARAMS|DCode=22|XSize=29mil|YSize=110mil|CornerRadius=7.25mil|HoleSize=0mil|Usage=FLASHONLY|Rotation=0.000|XOffset=0mil|YOffset=0mil|HoleType=Round|Shape=RoundedRectangle|*
%AMROUNDEDRECTD22*
21,1,0.02900,0.09550,0,0,0.0*
21,1,0.01450,0.11000,0,0,0.0*
1,1,0.01450,0.00725,-0.04775*
1,1,0.01450,-0.00725,-0.04775*
1,1,0.01450,-0.00725,0.04775*
1,1,0.01450,0.00725,0.04775*
%
%ADD22ROUNDEDRECTD22*%
%ADD23R,0.01772X0.01378*%
%ADD24R,0.04724X0.03937*%
%ADD25R,0.07087X0.02362*%
%ADD26R,0.02300X0.01181*%
%ADD27R,0.00984X0.06142*%
%ADD28R,0.05315X0.02756*%
%ADD29R,0.02362X0.02756*%
%ADD30R,0.04331X0.03150*%
%ADD31C,0.01200*%
%ADD32R,0.03347X0.02362*%
%ADD33R,0.07480X0.07480*%
%ADD34R,0.02756X0.00787*%
%ADD35R,0.02756X0.01575*%
%ADD36R,0.01575X0.02756*%
%ADD37R,0.00787X0.02756*%
%ADD38R,0.02300X0.02300*%
%ADD39R,0.02300X0.02300*%
%ADD40R,0.03740X0.03543*%
%ADD41R,0.10630X0.03150*%
%ADD42R,0.03543X0.03740*%
%ADD43R,0.01378X0.01772*%
%ADD44R,0.03347X0.03150*%
%ADD45R,0.07087X0.03937*%
%ADD46R,0.02559X0.01968*%
%ADD79C,0.03100*%
%ADD80C,0.00800*%
%ADD81C,0.00715*%
%ADD82C,0.00600*%
%ADD83C,0.02000*%
%ADD84C,0.03400*%
%ADD85R,0.07500X0.05000*%
%ADD86R,0.05000X0.07500*%
%ADD87R,0.17000X0.17000*%
%ADD88C,0.01800*%
D10*
X60567Y45500D02*
X67464D01*
X68100Y44864D01*
Y44700D02*
Y44864D01*
Y40300D02*
Y40336D01*
X50271Y41043D02*
Y42785D01*
X48856Y44200D02*
X50271Y42785D01*
X43800Y44200D02*
X43836D01*
X48300D02*
X48856D01*
X50362Y40953D02*
X50921D01*
X50271Y41043D02*
X50362Y40953D01*
X85764Y118044D02*
Y119664D01*
X85800Y119700D01*
X85728Y118008D02*
X85764Y118044D01*
X46008Y32492D02*
X46100Y32400D01*
X46008Y32492D02*
Y37992D01*
X46000Y38000D02*
X46008Y37992D01*
X41139Y32361D02*
Y34987D01*
Y32361D02*
X41200Y32300D01*
X41079Y35047D02*
X41139Y34987D01*
X68200Y113600D02*
Y115600D01*
X68231Y115631D02*
Y117622D01*
X68200Y115600D02*
X68231Y115631D01*
X67200Y103100D02*
Y103172D01*
X48600Y103200D02*
X48630Y103170D01*
X52043D01*
X52754Y102459D01*
X75716Y86985D02*
Y87093D01*
X75700Y86968D02*
X75716Y86985D01*
X68191Y117662D02*
X68231Y117622D01*
X65610Y117662D02*
X68191D01*
X65600Y117672D02*
X65610Y117662D01*
X65586Y114114D02*
X65600Y114128D01*
X63614Y114114D02*
X65586D01*
X63600Y114100D02*
X63614Y114114D01*
X65600Y112300D02*
Y114128D01*
X59441Y97341D02*
X59447D01*
X59400Y97300D02*
X59441Y97341D01*
X85728Y117614D02*
Y118008D01*
Y117614D02*
X85764Y117578D01*
Y115936D02*
Y117578D01*
Y115936D02*
X85800Y115900D01*
X75700Y90531D02*
Y90577D01*
X23772Y27300D02*
X23800D01*
X92600Y63400D02*
X108300D01*
X89750Y66250D02*
X92600Y63400D01*
X108300D02*
X112200Y67300D01*
X111100Y55600D02*
X114074D01*
X81400Y97500D02*
X81423D01*
X81447Y97476D01*
X117189Y106811D02*
X117200Y106800D01*
X117018Y106811D02*
X117189D01*
X118300Y100551D02*
Y100600D01*
Y100551D02*
X118340Y100511D01*
X117582Y79418D02*
X117600Y79400D01*
X117510Y79418D02*
X117582D01*
X117492Y79435D02*
X117510Y79418D01*
X118098Y83849D02*
X118149Y83900D01*
X118000Y83849D02*
X118098D01*
X118149Y83900D02*
X118200D01*
X118000Y83849D02*
Y83947D01*
X120700Y69200D02*
Y69300D01*
X112200Y67300D02*
X118800D01*
X120700Y69200D01*
X89700Y66250D02*
X89750D01*
X23772Y34000D02*
X23800Y33972D01*
Y33900D02*
Y33972D01*
X68231Y117622D02*
X68262Y117653D01*
X31433Y30500D02*
X36100D01*
X81200Y117700D02*
X81204Y117696D01*
Y117653D02*
Y117696D01*
X102500Y67600D02*
Y73637D01*
Y74378D02*
X104222Y76100D01*
X102500Y73637D02*
Y74378D01*
X107579Y78730D02*
X107768Y78541D01*
X107700Y78609D02*
X107768Y78541D01*
X104222Y76100D02*
X107182D01*
X107700Y78609D02*
Y80400D01*
X101300Y85752D02*
X101303Y85756D01*
X101300Y83400D02*
Y85752D01*
Y83400D02*
X102600Y82100D01*
X106000D01*
X107700Y80400D01*
X107182Y76100D02*
X107768Y76686D01*
Y78541D01*
X91655Y72684D02*
X93316D01*
X97414Y66062D02*
Y68586D01*
X91638Y72701D02*
X91655Y72684D01*
X93316D02*
X97414Y68586D01*
X100962Y66062D02*
X102500Y67600D01*
X97414Y66062D02*
X100962D01*
X55821Y62210D02*
X55843Y62189D01*
X55800Y64200D02*
X55821Y64179D01*
Y62210D02*
Y64179D01*
X52830Y72070D02*
X53897D01*
X51906Y72995D02*
Y75006D01*
Y72995D02*
X52830Y72070D01*
X55635Y74000D02*
X55667Y74032D01*
Y74068D01*
X53874Y74000D02*
X55635D01*
X53897Y72070D02*
X53966Y72000D01*
X53874Y72031D02*
Y72031D01*
Y72031D02*
X55843Y70063D01*
X48600Y103170D02*
Y103200D01*
X63600Y99430D02*
Y99500D01*
X99300Y108316D02*
X101448Y110464D01*
X99300Y108200D02*
Y108316D01*
X98109Y117811D02*
X98120Y117800D01*
X100900D01*
X49937Y64157D02*
X51906D01*
X57811Y62361D02*
Y64157D01*
X115747Y86200D02*
X118000Y83947D01*
X110214Y89114D02*
X113128Y86200D01*
X115747D01*
X109828Y89303D02*
X110017Y89114D01*
X110214D01*
X38126Y81912D02*
X40056D01*
X38126Y79905D02*
Y81912D01*
X40056D02*
X40095Y81874D01*
X38126Y75968D02*
Y79905D01*
X39570Y72070D02*
X40900Y73400D01*
X38126Y72031D02*
X38164Y72070D01*
X39570D01*
X40900Y73400D02*
Y75163D01*
X36158Y74000D02*
X38126D01*
X118100Y94400D02*
Y94410D01*
X117999Y94511D02*
X118100Y94410D01*
X118024Y89976D02*
X118098Y90050D01*
X118000Y89951D02*
Y90000D01*
X105662Y91661D02*
X107823Y89500D01*
X109828D01*
X101500Y91661D02*
X105662D01*
X90948Y112848D02*
X92006Y113907D01*
X109907Y106599D02*
X113065D01*
X106666Y103358D02*
X109907Y106599D01*
X106666Y98444D02*
Y103358D01*
X90499Y112391D02*
Y112848D01*
X92006Y113907D02*
Y117811D01*
X40095Y81874D02*
X44032D01*
X31962Y119335D02*
X32087D01*
X31895Y119268D02*
X31962Y119335D01*
X25800Y119268D02*
X25867Y119335D01*
X25993D01*
X89272Y117811D02*
X90499D01*
X106272Y73542D02*
X106343Y73613D01*
X109126D01*
X109196Y73683D01*
X113065Y106599D02*
X113278Y106811D01*
X44032Y81874D02*
X47969D01*
X108733Y93630D02*
X111015D01*
X91861Y95198D02*
X95398Y91661D01*
X108667Y28542D02*
Y28609D01*
X118667Y28542D02*
Y28609D01*
X103667Y28542D02*
Y28567D01*
X103700Y28600D01*
X53874Y66913D02*
Y68094D01*
X54661Y66126D02*
X55843D01*
X53874Y66913D02*
X54661Y66126D01*
X51906Y75006D02*
X52830Y75930D01*
X51906Y64157D02*
Y66126D01*
X54517Y77975D02*
X55804D01*
X51900Y81880D02*
Y83837D01*
Y81880D02*
X51906Y81874D01*
Y81874D02*
Y81874D01*
X51900Y83837D02*
X51906Y83842D01*
X53874Y78618D02*
Y79905D01*
Y78618D02*
X54517Y77975D01*
X53836Y75930D02*
X53874Y75968D01*
X55804Y77975D02*
X55843Y77937D01*
X53874Y75968D02*
X55843D01*
X52830Y75930D02*
X53836D01*
X55843Y83842D02*
X57811D01*
X55843Y81874D02*
Y83842D01*
X46000D02*
X47969D01*
X42094Y79905D02*
X42100Y79900D01*
X42063Y79905D02*
X42094D01*
X40095Y77937D02*
X42057Y79900D01*
X40095Y75968D02*
X40900Y75163D01*
X49937Y79905D02*
X51906Y77937D01*
X49937Y79905D02*
X51906Y81874D01*
X45893Y83842D02*
X46000D01*
X38126Y75968D02*
X40095D01*
X36158Y81874D02*
Y85811D01*
X40095Y70063D02*
X42063Y68094D01*
X40095Y70063D02*
X40149D01*
X38126Y68094D02*
X40095Y66126D01*
X44032D01*
X47969D01*
X49899Y64196D02*
X49937Y64157D01*
X59780Y85811D02*
X61748D01*
X49937Y68094D02*
X51906Y70063D01*
X49899Y64196D02*
Y65201D01*
X49012Y66088D02*
X49899Y65201D01*
X48007Y66088D02*
X49012D01*
X47969Y66126D02*
X48007Y66088D01*
X38100Y68100D02*
X38120D01*
X38126Y68094D01*
X95398Y85559D02*
Y91306D01*
X111015Y93630D02*
X111897Y94511D01*
X108667Y93621D02*
X108733Y93555D01*
X105789Y97567D02*
X106666Y98444D01*
X101303Y97567D02*
X105789D01*
X101448Y110464D02*
Y110562D01*
X95398Y91306D02*
Y91661D01*
Y91306D02*
X95445Y91259D01*
X87533Y99526D02*
X89492Y97567D01*
X87374Y99526D02*
X87533D01*
X95398Y91661D02*
Y97764D01*
D16*
X76200Y31950D02*
G03*
X75450Y32700I-750J0D01*
G01*
X73101Y34200D02*
G03*
X73101Y32700I0J-750D01*
G01*
X75450Y34200D02*
G03*
X76200Y34950I0J750D01*
G01*
X72850Y26300D02*
G03*
X73600Y27050I0J750D01*
G01*
X72356Y26300D02*
G03*
X72356Y24800I0J-750D01*
G01*
X73050Y23300D02*
G03*
X73050Y24800I0J750D01*
G01*
X69350Y23300D02*
G03*
X69350Y21800I0J-750D01*
G01*
X73600Y21050D02*
G03*
X72850Y21800I-750J0D01*
G01*
X74050Y41000D02*
G03*
X74800Y41750I0J750D01*
G01*
X73022Y41000D02*
G03*
X73022Y39500I0J-750D01*
G01*
X74800Y38750D02*
G03*
X74050Y39500I-750J0D01*
G01*
X50929Y38992D02*
X53192D01*
X54700Y40500D01*
X60567D01*
X52287Y86193D02*
Y91913D01*
X46447Y97753D02*
X52287Y91913D01*
X46447Y97753D02*
Y105047D01*
X36600Y40500D02*
X38108Y38992D01*
X31433Y40500D02*
X36600D01*
X38108Y38992D02*
X41071D01*
X97467Y42415D02*
X98700Y43648D01*
Y53700D01*
X23312Y100488D02*
X26200Y97600D01*
Y91831D02*
Y97600D01*
X23312Y100488D02*
Y122312D01*
X57500Y123800D02*
Y130000D01*
X52000Y118300D02*
X57500Y123800D01*
X40447Y108647D02*
X50100Y118300D01*
X52000D01*
X41100Y115100D02*
X47500Y121500D01*
Y130000D01*
X40447Y95180D02*
X44600Y91027D01*
X39447Y94766D02*
X43539Y90674D01*
X44447Y96837D02*
Y106247D01*
X41447Y95595D02*
X45943Y91098D01*
X41447Y95595D02*
Y108147D01*
X42447Y96009D02*
X47350Y91106D01*
X45447Y97251D02*
Y105647D01*
X41447Y108147D02*
X50600Y117300D01*
X38447Y94352D02*
X40570Y92229D01*
X38447Y120147D02*
X40900Y122600D01*
X39447Y109247D02*
X52500Y122300D01*
X64045Y127750D02*
X66295Y130000D01*
X67500D01*
X43447Y96423D02*
Y106947D01*
X39447Y94766D02*
Y109247D01*
X36650Y100925D02*
Y108949D01*
X44447Y106247D02*
X51900Y113700D01*
X43447Y96423D02*
X48350Y91520D01*
X38447Y94352D02*
Y120147D01*
X43447Y106947D02*
X51400Y114900D01*
X45447Y105647D02*
X52300Y112500D01*
X44447Y96837D02*
X49937Y91347D01*
X40447Y95180D02*
Y108647D01*
X46447Y105047D02*
X52700Y111300D01*
X42447Y107547D02*
X51100Y116200D01*
X42447Y96009D02*
Y107547D01*
X45447Y97251D02*
X51287Y91411D01*
X66400Y125500D02*
X67500Y126600D01*
Y130000D01*
X62400Y125500D02*
X66400D01*
X53100Y116200D02*
X62400Y125500D01*
X62500Y124000D02*
X69600D01*
X53400Y114900D02*
X62500Y124000D01*
X63800Y121800D02*
X77301D01*
X54500Y112500D02*
X63800Y121800D01*
X55000Y111300D02*
X64500Y120800D01*
X54000Y113700D02*
X63100Y122800D01*
X64500Y120800D02*
X82302D01*
X63100Y122800D02*
X73556D01*
X69600Y124000D02*
X72500Y126900D01*
X52500Y122300D02*
Y140000D01*
X50600Y117300D02*
X52540D01*
X62500Y127260D01*
X51100Y116200D02*
X53100D01*
X51400Y114900D02*
X53400D01*
X51900Y113700D02*
X54000D01*
X34900Y119500D02*
X42500Y127100D01*
X34900Y100700D02*
Y119500D01*
X62500Y127260D02*
Y140000D01*
X52300Y112500D02*
X54500D01*
X52700Y111300D02*
X55000D01*
X66200Y97000D02*
X67200Y98000D01*
X65500Y97000D02*
X66200D01*
X67200Y98000D02*
Y99628D01*
X67925Y83779D02*
X69500D01*
X64021Y87779D02*
X66207Y85593D01*
Y85497D02*
Y85593D01*
X61748Y87779D02*
X64021D01*
X66207Y85497D02*
X67925Y83779D01*
X69500D02*
X70247Y83031D01*
X64031Y89748D02*
X66186Y91903D01*
X61748Y89748D02*
X64031D01*
X70347Y94468D02*
X75700D01*
X67782Y91903D02*
X69650Y93771D01*
X75700Y94468D02*
X75897D01*
X69650Y93771D02*
X70347Y94468D01*
X66186Y91903D02*
X67782D01*
X57811Y92511D02*
X59100Y93800D01*
X57811Y89748D02*
Y92511D01*
X59780Y91280D02*
X65500Y97000D01*
X59780Y89748D02*
Y91280D01*
X94150Y79650D02*
X98650D01*
X60158Y103170D02*
X63600D01*
X59447Y102459D02*
X60158Y103170D01*
X48600Y99430D02*
X50334D01*
X50641Y99123D01*
Y99059D02*
Y99123D01*
Y99059D02*
X52360Y97341D01*
X52754D01*
X55843Y87931D02*
X56334Y88422D01*
Y99740D01*
X55843Y87779D02*
Y87931D01*
X53874Y87779D02*
X55300Y89205D01*
Y95188D01*
X59053Y102459D02*
X59447D01*
X56334Y99740D02*
X59053Y102459D01*
X53147Y97341D02*
X55300Y95188D01*
X52754Y97341D02*
X53147D01*
X70247Y83031D02*
X75700D01*
X26601Y66001D02*
X30127D01*
X22200Y54100D02*
Y61600D01*
X26601Y66001D01*
X23600Y61386D02*
X26914Y64700D01*
X30795D01*
X23600Y51100D02*
Y61386D01*
X26485Y67485D02*
X31421D01*
X20100Y61100D02*
X26485Y67485D01*
X20100Y54100D02*
Y61100D01*
X25802Y68602D02*
X30759D01*
X17250Y61000D02*
X18200D01*
X25802Y68602D01*
X5000Y82500D02*
X19800D01*
X26773Y75527D02*
X30634D01*
X19800Y82500D02*
X26773Y75527D01*
X20200Y83800D02*
Y89800D01*
X27413Y76587D02*
X31413D01*
X20200Y83800D02*
X27413Y76587D01*
X27563Y77937D02*
X30252D01*
X21200Y84300D02*
X27563Y77937D01*
X21200Y84300D02*
Y92329D01*
X23200Y85400D02*
X28100Y80500D01*
X23200Y85400D02*
Y95814D01*
X28100Y80500D02*
X33595D01*
X25200Y86800D02*
Y96900D01*
X22262Y99838D02*
X25200Y96900D01*
X22262Y99838D02*
Y110238D01*
X102018Y123600D02*
X104300Y121318D01*
Y117800D02*
Y121318D01*
X37348Y35500D02*
X37848Y36000D01*
X38200D01*
X31433Y35500D02*
X37348D01*
X38200Y36000D02*
Y36029D01*
X39179Y37008D01*
X41071D01*
X41071Y38992D02*
X41079Y38984D01*
X36500Y43300D02*
Y44800D01*
Y43300D02*
X38847Y40953D01*
X41079D01*
X31433Y45500D02*
X31969D01*
X41071Y37008D02*
X41079Y37016D01*
X40800Y47800D02*
Y54300D01*
X40700Y47700D02*
X40800Y47800D01*
X35800Y45500D02*
X36500Y44800D01*
X31969Y45500D02*
X34033D01*
X31433D02*
X31969D01*
X34033D02*
X35800D01*
X54449Y36651D02*
X55049D01*
X56200Y35500D02*
X60567D01*
X55049Y36651D02*
X56200Y35500D01*
X54142Y36958D02*
X54449Y36651D01*
X50979Y36958D02*
X54142D01*
X50921Y37016D02*
X50979Y36958D01*
X50921Y35047D02*
X53001D01*
X53848Y34200D01*
X54505D01*
X58205Y30500D01*
X60567D01*
X34800Y27400D02*
X53800D01*
X63950Y17250D01*
X25600Y27500D02*
X29100Y24000D01*
X25600Y27500D02*
Y50133D01*
X29100Y24000D02*
X44000D01*
X47700Y20300D01*
X31300Y19900D02*
X33950Y17250D01*
X25600Y19900D02*
X31300D01*
X38900Y22200D02*
X43850Y17250D01*
X27500Y22200D02*
X38900D01*
X26800Y29200D02*
X30400Y25600D01*
X47000D02*
X52500Y20100D01*
X30400Y25600D02*
X47000D01*
X52500Y5000D02*
Y20100D01*
X63950Y17250D02*
X65250D01*
X32033Y53933D02*
X32210Y54110D01*
Y58242D01*
X18400Y27500D02*
X18900Y27000D01*
X15000Y27500D02*
X18400D01*
X18900Y27000D02*
X20228D01*
Y41000D02*
Y42628D01*
X22900Y45300D01*
X5000Y52500D02*
X18500D01*
X20100Y54100D01*
X19100Y51000D02*
X22200Y54100D01*
X17250Y51000D02*
X19100D01*
X19700Y44300D02*
Y47200D01*
X23600Y51100D01*
X17900Y42500D02*
X19700Y44300D01*
X26800Y29200D02*
Y50300D01*
X20228Y24500D02*
Y27000D01*
X20228Y27000D02*
X20228Y27000D01*
Y31000D02*
Y34000D01*
X20228Y34000D02*
X20228Y34000D01*
X15500Y38000D02*
X20228D01*
X15000Y37500D02*
X15500Y38000D01*
X20228D02*
Y41000D01*
X20114Y32514D02*
X20214Y32414D01*
X20200Y32500D02*
X20214Y32514D01*
X5000Y32500D02*
X20200D01*
X65250Y17250D02*
X67500Y15000D01*
X35250Y17250D02*
X37500Y15000D01*
X33950Y17250D02*
X35250D01*
X45250D02*
X47500Y15000D01*
X43850Y17250D02*
X45250D01*
X31969Y45500D02*
X32900Y46431D01*
Y49300D02*
X36158Y52557D01*
X32900Y46431D02*
Y49300D01*
X28229Y51729D02*
X30290D01*
X26800Y50300D02*
X28229Y51729D01*
X24750Y50983D02*
X25600Y50133D01*
X85750Y61550D02*
X86300Y61000D01*
X109600D01*
X79700Y61550D02*
X85750D01*
X79700Y61550D02*
X79700Y61550D01*
X88600Y64900D02*
X91500Y62000D01*
X108700D01*
X112400Y65700D01*
X109600Y61000D02*
X111644Y63044D01*
X71000Y64200D02*
X72428D01*
X70957Y64157D02*
X71000Y64200D01*
X59780Y64157D02*
X70957D01*
X75936Y62436D02*
Y64164D01*
X75972Y64200D01*
X75900Y62400D02*
X75936Y62436D01*
X61811Y66063D02*
X66337D01*
X66400Y66000D01*
X113456Y63044D02*
X113500Y63000D01*
X111644Y63044D02*
X113456D01*
X76600Y72500D02*
X83100Y66000D01*
X61279Y72500D02*
X76600D01*
X83100Y66000D02*
X84500D01*
X82200Y69300D02*
X90500D01*
X77500Y74000D02*
X82200Y69300D01*
X61748Y74000D02*
X77500D01*
X80500D02*
X83700Y70800D01*
X89200D02*
X89600Y71200D01*
X83700Y70800D02*
X89200D01*
X90500Y69300D02*
X91900Y67900D01*
X47587Y52813D02*
X51900Y48500D01*
X47587Y52813D02*
Y58634D01*
X28500Y56350D02*
X30252Y58102D01*
Y58252D01*
X28500Y56200D02*
Y56350D01*
X24750Y60537D02*
X27752Y63539D01*
X26200Y54700D02*
Y59700D01*
Y54700D02*
X26400Y54500D01*
X24750Y50983D02*
Y60537D01*
X26200Y59700D02*
X28689Y62189D01*
X15000Y48750D02*
X17250Y51000D01*
X15000Y47500D02*
Y48750D01*
X50921Y38984D02*
X50929Y38992D01*
X76200Y26900D02*
Y31950D01*
X73101Y32700D02*
X75450D01*
X73101Y34200D02*
X75450D01*
X76200Y34950D02*
Y36700D01*
Y24300D02*
Y26900D01*
Y36700D02*
Y46538D01*
X69800Y31900D02*
X73600Y28100D01*
X73500Y28200D02*
X73600Y28100D01*
Y27050D02*
Y28100D01*
X72356Y26300D02*
X72850D01*
X72356Y24800D02*
X73050D01*
X69350Y23300D02*
X73050D01*
X69350Y21800D02*
X72850D01*
X73600Y20800D02*
Y21050D01*
Y17700D02*
Y20800D01*
X74800Y36493D02*
Y38500D01*
X71100Y34600D02*
X72700Y36200D01*
X74507D02*
X74800Y36493D01*
X72700Y36200D02*
X74507D01*
X71100Y32400D02*
Y34600D01*
X69800Y31900D02*
Y36000D01*
X70900Y37100D01*
Y41300D01*
X73600Y44000D01*
Y46310D01*
X74800Y41750D02*
Y44000D01*
X73022Y41000D02*
X74050D01*
X73022Y39500D02*
X74050D01*
X74800Y38500D02*
Y38750D01*
Y44000D02*
Y46524D01*
X71100Y32400D02*
X74800Y28700D01*
Y24186D02*
Y28700D01*
X75850Y54500D02*
X75900Y54450D01*
X76700Y51316D02*
X78383D01*
X58570Y54500D02*
X75850D01*
X74516Y53500D02*
X76700Y51316D01*
X57811Y56817D02*
X58528Y56100D01*
X57700Y53500D02*
X74516D01*
X58528Y56100D02*
X80500D01*
X78383Y51316D02*
X78400Y51300D01*
X53874Y55826D02*
X57200Y52500D01*
X48587Y55413D02*
X55500Y48500D01*
X51524Y55304D02*
X56328Y50500D01*
X55914Y49500D02*
X71824D01*
X71410Y48500D02*
X73600Y46310D01*
X73067Y52500D02*
X78200Y47367D01*
X49937Y55477D02*
X55914Y49500D01*
X56461Y56609D02*
X58570Y54500D01*
X71824Y49500D02*
X74800Y46524D01*
X57200Y52500D02*
X73067D01*
X56328Y50500D02*
X72238D01*
X56743Y51500D02*
X72652D01*
X55500Y48500D02*
X71410D01*
X52524Y55719D02*
X56743Y51500D01*
X72652D02*
X77200Y46952D01*
X72238Y50500D02*
X76200Y46538D01*
X55461Y55739D02*
X57700Y53500D01*
X76233Y68100D02*
X81132Y63200D01*
X87700D02*
X87800Y63100D01*
X81132Y63200D02*
X87700D01*
X92100Y54297D02*
X94100Y56297D01*
X101287D01*
X103667Y53917D01*
X75400Y71500D02*
X82600Y64300D01*
X60501Y71500D02*
X75400D01*
X82600Y64300D02*
X85900D01*
X94800Y77300D02*
X94814Y77286D01*
Y75650D02*
Y77286D01*
X97414Y73542D02*
X97780Y73908D01*
X86500Y64900D02*
X88600D01*
X85900Y64300D02*
X86500Y64900D01*
X93429Y81710D02*
Y85559D01*
X92006Y80287D02*
X93429Y81710D01*
X92300Y77800D02*
X94150Y79650D01*
X97414Y79700D02*
Y85511D01*
X98685Y79615D02*
X98700Y79600D01*
X89600Y80864D02*
X91854Y83119D01*
X89600Y71200D02*
Y80864D01*
X73556Y122800D02*
X77500Y126744D01*
X77301Y121800D02*
X82500Y126999D01*
X82302Y120800D02*
X87500Y125998D01*
X28541Y94859D02*
Y122441D01*
X32500Y126400D01*
Y140000D01*
X31892Y123992D02*
X34107D01*
X29663Y121763D02*
X31892Y123992D01*
X29663Y95337D02*
Y121763D01*
X34107Y123992D02*
X34151Y123948D01*
X94814Y75650D02*
X96922Y73542D01*
X92274Y76684D02*
Y76950D01*
X92300Y76977D01*
Y77800D01*
X91638Y76245D02*
X91835D01*
X92274Y76684D01*
X69763Y77937D02*
X71600Y76100D01*
X61748Y77937D02*
X69763D01*
X61354Y76362D02*
X67538D01*
X67700Y76200D01*
X72287Y70063D02*
X72500Y69850D01*
X57811Y70063D02*
X59774Y68100D01*
X61748Y70063D02*
X72287D01*
X59774Y68100D02*
X76233D01*
X78200Y25900D02*
Y47367D01*
X77200Y25000D02*
Y46952D01*
X78200Y25900D02*
X81247Y22853D01*
X77200Y25000D02*
X81000Y21200D01*
X74000Y17250D02*
X76250Y15000D01*
X73600Y17700D02*
X74000Y17300D01*
Y17250D02*
Y17300D01*
X74800Y24186D02*
X76800Y22186D01*
X82500Y5000D02*
Y18000D01*
X76200Y24300D02*
X82500Y18000D01*
X81000Y21200D02*
X90600D01*
X76800Y19600D02*
Y22186D01*
X81247Y22853D02*
X93970D01*
X97323Y19500D02*
X111700D01*
X113950Y17250D01*
X93970Y22853D02*
X97323Y19500D01*
X32210Y58242D02*
X32221Y58252D01*
X34189Y52789D02*
Y58252D01*
X30200Y48800D02*
X34189Y52789D01*
X36158Y52557D02*
Y60220D01*
X38126Y45974D02*
X39100Y45000D01*
X38126Y45974D02*
Y58252D01*
X40095Y55006D02*
Y64157D01*
Y55006D02*
X40800Y54300D01*
X36158Y63458D02*
X36858Y64157D01*
X36158Y62189D02*
Y63458D01*
X36858Y64157D02*
X38126D01*
X15000Y38750D02*
X17250Y41000D01*
X15000Y37500D02*
Y38750D01*
X123600Y37000D02*
Y45600D01*
X121400Y34800D02*
X123600Y37000D01*
X125600Y91100D02*
X127000Y92500D01*
X125600Y76523D02*
Y91100D01*
X122077Y73000D02*
X125600Y76523D01*
X120800Y74300D02*
X123900Y77400D01*
Y95300D02*
X126100Y97500D01*
X123900Y77400D02*
Y95300D01*
X101878Y78722D02*
X102000Y78600D01*
X101878Y78722D02*
Y79812D01*
X98941Y82749D02*
X101878Y79812D01*
X101815Y78415D02*
X102000Y78600D01*
X101815Y77451D02*
Y78415D01*
X97906Y73542D02*
X101815Y77451D01*
X97414Y73542D02*
X97906D01*
X102000Y78600D02*
X104166D01*
X104225Y78541D01*
X98941Y82749D02*
Y85559D01*
X114864Y74300D02*
X120800D01*
X118667Y45542D02*
X118724Y45600D01*
X123600D01*
X110387Y75513D02*
X112900Y73000D01*
X110387Y75513D02*
Y76927D01*
X112900Y73000D02*
X122077D01*
X110380Y76933D02*
X110387Y76927D01*
X122842Y71542D02*
X125300Y74000D01*
X114395Y69802D02*
X116135Y71542D01*
X122842D01*
X113260Y75904D02*
X114864Y74300D01*
X120400Y65700D02*
X127200Y72500D01*
X112400Y65700D02*
X120400D01*
X76250Y15000D02*
X77500D01*
X115250Y17250D02*
X117500Y15000D01*
X113950Y17250D02*
X115250D01*
X33100Y98900D02*
X34900Y100700D01*
X33100Y94728D02*
Y98900D01*
X31773Y94641D02*
X35539Y90875D01*
X31773Y94641D02*
Y102688D01*
X33100Y94728D02*
X36776Y91052D01*
X34820Y95150D02*
Y97680D01*
X34800Y97700D02*
X34820Y97680D01*
Y95150D02*
X38126Y91844D01*
X29663Y95337D02*
X34189Y90811D01*
X28541Y94859D02*
X32221Y91180D01*
Y89748D02*
Y91180D01*
X34189Y89748D02*
Y90811D01*
X36776Y89130D02*
Y91052D01*
X35539Y89130D02*
Y90875D01*
X27300Y92700D02*
Y98443D01*
Y92700D02*
X30252Y89748D01*
X25800Y99943D02*
X27300Y98443D01*
X26200Y91831D02*
X30252Y87779D01*
X24200Y86000D02*
Y96228D01*
X21162Y99266D02*
X24200Y96228D01*
X21162Y99266D02*
Y106088D01*
X20112Y98902D02*
X23200Y95814D01*
X20112Y98902D02*
Y106018D01*
X27614Y79400D02*
X30757D01*
X22200Y84814D02*
X27614Y79400D01*
X22200Y84814D02*
Y95200D01*
X30757Y79400D02*
X32221Y77937D01*
X33595Y80500D02*
X36158Y77937D01*
X24200Y86000D02*
X28326Y81874D01*
X30252D01*
X28157Y83842D02*
X30143D01*
X25200Y86800D02*
X28157Y83842D01*
X23800Y72600D02*
X32789D01*
X15000Y77500D02*
X18900D01*
X23800Y72600D01*
X23900Y71600D02*
X33203D01*
X15000Y67500D02*
X19800D01*
X23900Y71600D01*
X15000Y57500D02*
Y58750D01*
X17250Y61000D01*
X28689Y62189D02*
X30252D01*
X27752Y63539D02*
X30871D01*
X51524Y55304D02*
Y58634D01*
X49937Y55477D02*
Y58252D01*
X48587Y55413D02*
Y60839D01*
X52524Y55719D02*
Y59412D01*
X53874Y55826D02*
Y58252D01*
X59780Y72031D02*
X59969D01*
X60501Y71500D01*
X59780Y74000D02*
X61279Y72500D01*
X125300Y74000D02*
X127750D01*
X130000Y76250D01*
Y77500D01*
X127200Y72500D02*
X140000D01*
X127000Y92500D02*
X140000D01*
X95219Y123600D02*
X102018D01*
X92500Y126319D02*
X95219Y123600D01*
X42500Y127100D02*
Y140000D01*
X30143Y83842D02*
X30200Y83900D01*
X32192Y83871D02*
X32221Y83842D01*
X30229Y83871D02*
X32192D01*
X30200Y83900D02*
X30229Y83871D01*
X17500Y92500D02*
X20200Y89800D01*
X16029Y97500D02*
X21200Y92329D01*
X18800Y98600D02*
X22200Y95200D01*
X72500Y126900D02*
Y140000D01*
X126100Y97500D02*
X130000D01*
X129900Y57400D02*
X130000Y57500D01*
X90600Y21200D02*
X92500Y19300D01*
Y5000D02*
Y19300D01*
X5000Y42500D02*
X17900D01*
X30127Y66001D02*
X30252Y66126D01*
X25463Y70063D02*
X30252D01*
X17900Y62500D02*
X25463Y70063D01*
X5000Y62500D02*
X17900D01*
X5000Y92500D02*
X17500D01*
X15000Y97500D02*
X16029D01*
X18800Y98600D02*
Y101800D01*
X18100Y102500D02*
X18800Y101800D01*
X21162Y106088D02*
Y109338D01*
X18000Y112500D02*
X21162Y109338D01*
X5300Y112500D02*
X18000D01*
X55461Y55739D02*
Y58634D01*
X106000Y56400D02*
X108667Y53733D01*
Y45542D02*
Y53733D01*
X92100Y44800D02*
Y54297D01*
X87285Y76245D02*
X87374D01*
X83634D02*
X87285D01*
X80591Y79287D02*
X83634Y76245D01*
X61748Y66126D02*
X61811Y66063D01*
X27500Y15000D02*
Y15652D01*
X41929Y58118D02*
X42063Y58252D01*
X82500Y126999D02*
Y140000D01*
X27500Y126500D02*
Y130000D01*
X23312Y122312D02*
X27500Y126500D01*
X81605Y80289D02*
X82092D01*
X82531Y80728D01*
X81603Y80287D02*
X81605Y80289D01*
X61366Y80287D02*
X81603D01*
X113359Y76199D02*
Y79287D01*
X113260Y76101D02*
X113359Y76199D01*
X113260Y75904D02*
Y76101D01*
X87500Y125998D02*
Y130000D01*
X32031Y75968D02*
X32221D01*
X31413Y76587D02*
X32031Y75968D01*
X30634Y75527D02*
X32161Y74000D01*
X40570Y89273D02*
Y92229D01*
X38126Y89748D02*
Y91844D01*
X45943Y89805D02*
X46000Y89748D01*
X39570Y88494D02*
Y91815D01*
X37263Y94121D02*
Y100311D01*
X45943Y89805D02*
Y91098D01*
X44600Y87211D02*
Y91027D01*
X51287Y87161D02*
Y91411D01*
X47350Y89189D02*
Y91106D01*
X43539Y85914D02*
Y90674D01*
X48350Y88775D02*
Y91520D01*
X37263Y94121D02*
X39570Y91815D01*
X49937Y89748D02*
Y91347D01*
Y83842D02*
X52287Y86193D01*
X98497Y103955D02*
X100943D01*
X101448Y104460D01*
X77500Y126744D02*
Y130000D01*
X91854Y83119D02*
Y85559D01*
X94688Y35250D02*
Y37927D01*
X87938Y32754D02*
X92191D01*
X94688Y35250D01*
X87600Y32415D02*
X87938Y32754D01*
X5000Y102500D02*
X18100D01*
X25800Y99943D02*
Y102657D01*
X92500Y126319D02*
Y140000D01*
X57811Y56817D02*
Y58252D01*
X56461Y56609D02*
Y59661D01*
X53874Y60220D02*
X55461Y58634D01*
X53933Y62189D02*
X56461Y59661D01*
X53874Y62189D02*
X53933D01*
X18631Y107500D02*
X20112Y106018D01*
X15000Y117500D02*
X22262Y110238D01*
X15000Y107500D02*
X18631D01*
X90499Y117811D02*
X92006D01*
X114395Y69605D02*
Y69802D01*
X110308Y69605D02*
X114395D01*
X36650Y100925D02*
X37263Y100311D01*
X36776Y89130D02*
X38126Y87779D01*
X34189D02*
X35539Y89130D01*
X39570Y88494D02*
X40095Y87969D01*
X40570Y89273D02*
X42063Y87779D01*
X40095D02*
Y87969D01*
X43539Y85914D02*
X44032Y85422D01*
X44600Y87211D02*
X46000Y85811D01*
X15000Y37500D02*
Y37514D01*
X30871Y63539D02*
X32221Y62189D01*
X31421Y67485D02*
X32031Y68094D01*
X32221D01*
X30759Y68602D02*
X32221Y70063D01*
X33203Y71600D02*
X33635Y72031D01*
X32789Y72600D02*
X34189Y74000D01*
X46000Y87779D02*
Y87839D01*
X48102Y87914D02*
Y88527D01*
X47969Y87779D02*
X48102Y87914D01*
Y88527D02*
X48350Y88775D01*
X46000Y87839D02*
X47350Y89189D01*
X97366Y85559D02*
X97414Y85511D01*
X83634Y88826D02*
X83986D01*
X84852Y89693D02*
X89295D01*
X83986Y88826D02*
X84852Y89693D01*
X61882Y82008D02*
Y83061D01*
X63593Y84772D01*
X61748Y81874D02*
X61882Y82008D01*
X96922Y73542D02*
X97414D01*
X86846Y76684D02*
X87285Y76245D01*
X86846Y76684D02*
Y83110D01*
X88167Y87974D02*
X89152D01*
X85667Y83667D02*
Y85474D01*
X89152Y87974D02*
X89295Y88118D01*
X82650Y80650D02*
X85667Y83667D01*
Y85474D02*
X88167Y87974D01*
X86846Y83110D02*
X89492Y85756D01*
X60588Y79287D02*
X80591D01*
X59969Y79905D02*
X60588Y79287D01*
X59780Y81874D02*
X61366Y80287D01*
X59780Y79905D02*
X59969D01*
X87600Y42415D02*
X97467D01*
X103667Y45542D02*
Y53917D01*
X97500Y15000D02*
Y15936D01*
X44032Y60031D02*
Y60220D01*
X49937D02*
X51524Y58634D01*
X51906Y60031D02*
X52524Y59412D01*
X51906Y60031D02*
Y60220D01*
X46000D02*
X47587Y58634D01*
X48587Y60839D02*
X49937Y62189D01*
X33635Y72031D02*
X36158D01*
X32161Y74000D02*
X32221D01*
X49937Y85811D02*
X51287Y87161D01*
X53874Y83842D02*
Y85811D01*
X40095Y83842D02*
Y85811D01*
X46000D02*
X46000D01*
X44032Y83842D02*
Y85422D01*
X30795Y64700D02*
X32221Y66126D01*
X59780Y77937D02*
X61354Y76362D01*
X112138Y100412D02*
X112237Y100511D01*
X108930Y100412D02*
X112138D01*
X97366Y102825D02*
X98497Y103955D01*
X97366Y97764D02*
Y102825D01*
X106379Y95205D02*
X108831Y97656D01*
X101500Y95205D02*
X106379D01*
X108831Y97656D02*
Y100314D01*
X106272Y69802D02*
X110111D01*
X110308Y69605D01*
D19*
X68100Y40336D02*
D03*
Y44864D02*
D03*
D20*
X75700Y83130D02*
D03*
Y86870D02*
D03*
Y94370D02*
D03*
Y90630D02*
D03*
X48600Y99430D02*
D03*
Y103170D02*
D03*
X63600D02*
D03*
Y99430D02*
D03*
X81447Y93736D02*
D03*
Y97476D02*
D03*
D21*
X118667Y45542D02*
D03*
X113667D02*
D03*
X108667D02*
D03*
X103667D02*
D03*
X98667D02*
D03*
X103667Y28542D02*
D03*
X108667D02*
D03*
X113667D02*
D03*
X118667D02*
D03*
D22*
X98667D02*
D03*
D23*
X65600Y117672D02*
D03*
Y114128D02*
D03*
X31773Y106232D02*
D03*
Y102688D02*
D03*
X25800Y106200D02*
D03*
Y102657D02*
D03*
X91638Y72701D02*
D03*
Y76245D02*
D03*
X67200Y99628D02*
D03*
X82531Y80728D02*
D03*
Y84272D02*
D03*
X67200Y103172D02*
D03*
X87374Y76245D02*
D03*
Y72701D02*
D03*
D24*
X52754Y97341D02*
D03*
X59447Y102459D02*
D03*
X52754D02*
D03*
X59447Y97341D02*
D03*
D25*
X60567Y30500D02*
D03*
Y35500D02*
D03*
Y40500D02*
D03*
Y45500D02*
D03*
X31433Y30500D02*
D03*
Y35500D02*
D03*
Y40500D02*
D03*
Y45500D02*
D03*
D26*
X50921Y35047D02*
D03*
Y37016D02*
D03*
Y38984D02*
D03*
X41079Y37016D02*
D03*
Y38984D02*
D03*
Y40953D02*
D03*
X50921D02*
D03*
X41079Y35047D02*
D03*
D27*
X46000Y38000D02*
D03*
D28*
X119412Y112321D02*
D03*
X109963D02*
D03*
X110176Y118800D02*
D03*
X119624D02*
D03*
D29*
X113450Y63044D02*
D03*
X120937D02*
D03*
Y55563D02*
D03*
D30*
X114237D02*
D03*
D31*
X32221Y89748D02*
D03*
X34189D02*
D03*
X38126D02*
D03*
X42063D02*
D03*
X46000D02*
D03*
X49937D02*
D03*
X53874D02*
D03*
X57811D02*
D03*
X61748D02*
D03*
X30252Y87779D02*
D03*
X32221D02*
D03*
X34189D02*
D03*
X38126D02*
D03*
X40095D02*
D03*
X42063D02*
D03*
X46000D02*
D03*
X47969D02*
D03*
X49937D02*
D03*
X53874D02*
D03*
X55843D02*
D03*
X57811D02*
D03*
X59780D02*
D03*
X61748D02*
D03*
X30252Y85811D02*
D03*
X32221D02*
D03*
X34189D02*
D03*
X36158D02*
D03*
X38126D02*
D03*
X42063D02*
D03*
X46000D02*
D03*
X49937D02*
D03*
X53874D02*
D03*
X57811D02*
D03*
X59780D02*
D03*
X61748D02*
D03*
X32221Y83842D02*
D03*
X38126D02*
D03*
X40095D02*
D03*
X42063D02*
D03*
X44032D02*
D03*
X46000D02*
D03*
X49937D02*
D03*
X51906D02*
D03*
X53874D02*
D03*
X57811D02*
D03*
X30252Y81874D02*
D03*
X32221D02*
D03*
X34189D02*
D03*
X36158D02*
D03*
X40095D02*
D03*
X44032D02*
D03*
X47969D02*
D03*
X51906D02*
D03*
X55843D02*
D03*
X57811D02*
D03*
X59780D02*
D03*
X61748D02*
D03*
X36158Y79905D02*
D03*
X38126D02*
D03*
X42063D02*
D03*
X49937D02*
D03*
X53874D02*
D03*
X55843D02*
D03*
X59780D02*
D03*
X30252Y77937D02*
D03*
X32221D02*
D03*
X34189D02*
D03*
X36158D02*
D03*
X40095D02*
D03*
X51906D02*
D03*
X55843D02*
D03*
X57811D02*
D03*
X59780D02*
D03*
X61748D02*
D03*
X32221Y75968D02*
D03*
X38126D02*
D03*
X44032D02*
D03*
X46000D02*
D03*
X47969D02*
D03*
X53874D02*
D03*
X55843D02*
D03*
X32221Y74000D02*
D03*
X34189D02*
D03*
X36158D02*
D03*
X44032D02*
D03*
X47969D02*
D03*
X55843D02*
D03*
X57811D02*
D03*
X59780D02*
D03*
X61748D02*
D03*
X36158Y72031D02*
D03*
X38126D02*
D03*
X44032D02*
D03*
X46000D02*
D03*
X47969D02*
D03*
X53874D02*
D03*
X59780D02*
D03*
X30252Y70063D02*
D03*
X32221D02*
D03*
X34189D02*
D03*
X36158D02*
D03*
X40095D02*
D03*
X51906D02*
D03*
X55843D02*
D03*
X57811D02*
D03*
X59780D02*
D03*
X61748D02*
D03*
X32221Y68094D02*
D03*
X36158D02*
D03*
X38126D02*
D03*
X42063D02*
D03*
X49937D02*
D03*
X53874D02*
D03*
X55843D02*
D03*
X30252Y66126D02*
D03*
X32221D02*
D03*
X34189D02*
D03*
X36158D02*
D03*
X40095D02*
D03*
X44032D02*
D03*
X47969D02*
D03*
X51906D02*
D03*
X55843D02*
D03*
X57811D02*
D03*
X59780D02*
D03*
X61748D02*
D03*
X34189Y64157D02*
D03*
X38126D02*
D03*
X40095D02*
D03*
X42063D02*
D03*
X46000D02*
D03*
X47969D02*
D03*
X49937D02*
D03*
X51906D02*
D03*
X53874D02*
D03*
X59780D02*
D03*
X30252Y62189D02*
D03*
X32221D02*
D03*
X34189D02*
D03*
X38126D02*
D03*
X42063D02*
D03*
X46000D02*
D03*
X49937D02*
D03*
X53874D02*
D03*
X55843D02*
D03*
X57811D02*
D03*
X59780D02*
D03*
X61748D02*
D03*
X30252Y60220D02*
D03*
X32221D02*
D03*
X34189D02*
D03*
X36158D02*
D03*
X38126D02*
D03*
X42063D02*
D03*
X44032D02*
D03*
X46000D02*
D03*
X49937D02*
D03*
X51906D02*
D03*
X53874D02*
D03*
X57811D02*
D03*
X59780D02*
D03*
X61748D02*
D03*
X30252Y58252D02*
D03*
X32221D02*
D03*
X34189D02*
D03*
X38126D02*
D03*
X42063D02*
D03*
X46000D02*
D03*
X49937D02*
D03*
X53874D02*
D03*
X57811D02*
D03*
X59780D02*
D03*
X61748D02*
D03*
X30252Y74000D02*
D03*
Y89748D02*
D03*
X59780D02*
D03*
X67200Y103100D02*
D03*
X53950Y93600D02*
D03*
X75716Y87093D02*
D03*
X59100Y93800D02*
D03*
X75700Y90577D02*
D03*
X23800Y24500D02*
D03*
Y27300D02*
D03*
X87400Y72700D02*
D03*
X23800Y33900D02*
D03*
Y37961D02*
D03*
Y40950D02*
D03*
Y30952D02*
D03*
X55800Y64200D02*
D03*
X53874Y74000D02*
D03*
Y72031D02*
D03*
X46000Y79600D02*
D03*
X32221Y85811D02*
D03*
X30200Y83900D02*
D03*
X57811Y64157D02*
D03*
X59780Y66126D02*
D03*
X36158Y81874D02*
D03*
X38126Y81912D02*
D03*
X42063Y64157D02*
D03*
X38126Y72031D02*
D03*
Y74000D02*
D03*
X57811Y87779D02*
D03*
X117938Y69605D02*
D03*
X57799Y60220D02*
D03*
X38126D02*
D03*
X32221D02*
D03*
X34189Y70063D02*
D03*
X36158Y66126D02*
D03*
X34189D02*
D03*
X36140Y75963D02*
D03*
X30252Y74000D02*
D03*
X42016Y85811D02*
D03*
X42063Y83842D02*
D03*
X36158Y68094D02*
D03*
X55843Y79905D02*
D03*
Y81874D02*
D03*
X61748Y85811D02*
D03*
X50000Y81900D02*
D03*
X57811Y81874D02*
D03*
X59780Y85811D02*
D03*
X53874Y79905D02*
D03*
X49937D02*
D03*
X47969Y83842D02*
D03*
X57811Y85811D02*
D03*
X53874D02*
D03*
X38126Y79905D02*
D03*
Y83842D02*
D03*
Y85811D02*
D03*
X40095D02*
D03*
X36158D02*
D03*
X42100Y79900D02*
D03*
X47969Y64157D02*
D03*
X49937D02*
D03*
X52004Y62189D02*
D03*
X53874Y64157D02*
D03*
X51906D02*
D03*
X59780Y62189D02*
D03*
X44032Y75968D02*
D03*
X46000Y62189D02*
D03*
Y64157D02*
D03*
X44032Y72031D02*
D03*
X46000D02*
D03*
Y75968D02*
D03*
X44032Y66126D02*
D03*
Y74000D02*
D03*
X42063Y68094D02*
D03*
X59780Y87779D02*
D03*
X49937D02*
D03*
X53874Y89748D02*
D03*
X59780Y70063D02*
D03*
X57811Y72031D02*
D03*
X47969Y75968D02*
D03*
X51906Y70063D02*
D03*
X53874Y68094D02*
D03*
Y75968D02*
D03*
X47969Y72031D02*
D03*
Y74000D02*
D03*
X36158Y70063D02*
D03*
X38126Y75968D02*
D03*
X36158Y62189D02*
D03*
X38100Y68100D02*
D03*
X38126Y62189D02*
D03*
X34189Y64157D02*
D03*
X34200Y75900D02*
D03*
X34189Y81889D02*
D03*
Y85811D02*
D03*
Y62189D02*
D03*
D32*
X48364Y44200D02*
D03*
X43836D02*
D03*
X97414Y66062D02*
D03*
Y73542D02*
D03*
X106272D02*
D03*
Y69802D02*
D03*
Y66062D02*
D03*
D33*
X95398Y91661D02*
D03*
D34*
X101500Y89693D02*
D03*
Y88118D02*
D03*
X89295Y89693D02*
D03*
X101500Y93630D02*
D03*
Y95205D02*
D03*
X89295D02*
D03*
Y93630D02*
D03*
Y88118D02*
D03*
D35*
X101500Y91661D02*
D03*
X89295D02*
D03*
D36*
X95398Y85559D02*
D03*
Y97764D02*
D03*
D37*
X97366Y85559D02*
D03*
X98941Y97764D02*
D03*
X97366D02*
D03*
X93429D02*
D03*
X91854D02*
D03*
X98941Y85559D02*
D03*
X93429D02*
D03*
X91854D02*
D03*
D38*
X101303Y97567D02*
D03*
X89492D02*
D03*
D39*
Y85756D02*
D03*
X101303D02*
D03*
D40*
X118340Y100511D02*
D03*
X112237D02*
D03*
X117999Y94511D02*
D03*
X111897D02*
D03*
X98109Y117811D02*
D03*
X92006D02*
D03*
X81204Y117653D02*
D03*
X75101D02*
D03*
D41*
X77420Y103887D02*
D03*
Y112548D02*
D03*
X90948Y103787D02*
D03*
Y112448D02*
D03*
D42*
X118000Y89951D02*
D03*
Y83849D02*
D03*
X101448Y104460D02*
D03*
Y110562D02*
D03*
D43*
X104225Y78541D02*
D03*
X107768D02*
D03*
X109828Y89500D02*
D03*
X113372D02*
D03*
X23772Y27300D02*
D03*
X20228D02*
D03*
X23772Y34000D02*
D03*
X20228D02*
D03*
X23772Y41000D02*
D03*
X20228D02*
D03*
X117938Y69605D02*
D03*
X114395D02*
D03*
X72428Y64200D02*
D03*
X75972D02*
D03*
X20228Y31000D02*
D03*
X23772D02*
D03*
X113260Y76101D02*
D03*
X116804D02*
D03*
X89272Y117811D02*
D03*
X85728D02*
D03*
X71805Y117653D02*
D03*
X68262D02*
D03*
X20228Y38000D02*
D03*
X23772D02*
D03*
X20228Y24500D02*
D03*
X23772D02*
D03*
D44*
X25993Y113429D02*
D03*
Y119335D02*
D03*
X32087Y113429D02*
D03*
Y119335D02*
D03*
D45*
X69500Y93621D02*
D03*
Y83779D02*
D03*
D46*
X117492Y79435D02*
D03*
X113752D02*
D03*
X117018Y106811D02*
D03*
X113278D02*
D03*
D79*
X87600Y37415D02*
D03*
X82600Y32415D02*
D03*
X87600D02*
D03*
X82600Y37415D02*
D03*
X87600Y42415D02*
D03*
X82600D02*
D03*
D80*
X23772Y24500D02*
X23800D01*
X79562Y91169D02*
Y96871D01*
X75099Y101271D02*
X78598Y97772D01*
X78662D01*
X79562Y96871D01*
X71873Y101271D02*
X75099D01*
X23772Y31000D02*
X23800Y30972D01*
Y30952D02*
Y30972D01*
X119801Y76101D02*
X122600Y78900D01*
Y108654D01*
X113746Y109122D02*
X122131D01*
X122600Y108654D01*
X116804Y76101D02*
X119801D01*
X113278Y106811D02*
Y108654D01*
X113746Y109122D01*
X84309Y97178D02*
Y101038D01*
X86283Y95205D02*
X89295D01*
X84309Y97178D02*
X86283Y95205D01*
X110135Y84302D02*
X111752D01*
X104745Y89693D02*
X110135Y84302D01*
X101500Y88118D02*
X103390D01*
X111741Y79766D01*
X113084Y79287D02*
Y79555D01*
X112873Y79766D02*
X113084Y79555D01*
X111741Y79766D02*
X112873D01*
X92123Y113623D02*
X96016D01*
X96947Y114554D01*
X90948Y112448D02*
X92123Y113623D01*
X90948Y112448D02*
X91032D01*
X75200Y117653D02*
X76571Y116281D01*
Y116183D02*
Y116281D01*
Y116183D02*
X77420Y115334D01*
X71805Y117653D02*
X75200D01*
X77420Y112848D02*
Y115334D01*
X77214Y112642D02*
X77420Y112848D01*
X96947Y114554D02*
X103449D01*
X104745Y113258D01*
X70391Y102753D02*
Y111659D01*
X71374Y112642D02*
X77214D01*
X70391Y111659D02*
X71374Y112642D01*
X70391Y102753D02*
X71873Y101271D01*
X104745D02*
Y113258D01*
X104181Y100707D02*
X104745Y101271D01*
X99646Y100707D02*
X104181D01*
X98941Y97764D02*
Y100003D01*
X99646Y100707D01*
X111455Y118800D02*
X113475Y116780D01*
Y115520D02*
X113667Y115711D01*
X113475Y114554D02*
Y115520D01*
Y115903D02*
Y116780D01*
X111243Y112321D02*
X113475Y114554D01*
Y115903D02*
X113667Y115711D01*
X110176Y118800D02*
X111455D01*
X109963Y112321D02*
X111243D01*
X79562Y91169D02*
X80355Y90376D01*
X83724Y91661D02*
X89295D01*
X82439Y90376D02*
X83724Y91661D01*
X80355Y90376D02*
X82439D01*
X113278Y106811D02*
X113573D01*
X90948Y104187D02*
X92254D01*
X93429Y103012D01*
Y97764D02*
Y103012D01*
X83600Y93630D02*
X89295D01*
X81553D02*
X83600D01*
X81447Y93736D02*
X81553Y93630D01*
X77420Y104187D02*
X81160D01*
X84309Y101038D01*
X98733Y28609D02*
X98941D01*
X98667Y28542D02*
X98733Y28609D01*
X101500Y89693D02*
X104745D01*
X101509Y93621D02*
X108667D01*
X91861Y95198D02*
Y97757D01*
D81*
X65444Y60313D02*
X67480Y58278D01*
X68107Y59793D02*
X120937D01*
X66072Y61828D02*
X68107Y59793D01*
X67480Y58278D02*
X120937D01*
X61879Y62189D02*
X62240Y61828D01*
X66072D01*
X61841Y60313D02*
X65444D01*
X61748Y62189D02*
X61879D01*
X61748Y60220D02*
X61841Y60313D01*
X123700Y54372D02*
Y57323D01*
X125215Y54999D02*
X126686Y53528D01*
X125215Y54999D02*
Y57950D01*
X122745Y58278D02*
X123700Y57323D01*
Y54372D02*
X126058Y52013D01*
X123372Y59793D02*
X125215Y57950D01*
X126737Y52013D02*
X127857Y50893D01*
X129900Y56150D02*
Y57400D01*
X126058Y52013D02*
X126737D01*
X127278Y53528D02*
X129900Y56150D01*
X126686Y53528D02*
X127278D01*
X127857Y49643D02*
Y50893D01*
X120937Y55563D02*
Y58278D01*
Y59793D02*
X123372D01*
X120937Y58278D02*
X122745D01*
X127857Y49643D02*
X130000Y47500D01*
X120937Y59793D02*
Y63044D01*
D82*
X113372Y89500D02*
X113400D01*
X87374Y72701D02*
X87376Y72700D01*
X87400D01*
X31773Y106232D02*
Y113116D01*
X32087Y113429D01*
X80591Y86212D02*
Y87445D01*
X81946Y84661D02*
X82335Y84272D01*
X80591Y86212D02*
X81946Y84857D01*
X82335Y84272D02*
X82531D01*
X81946Y84661D02*
Y84857D01*
X5000Y112500D02*
X5300D01*
X25800Y113236D02*
X25993Y113429D01*
X25800Y106200D02*
Y113236D01*
D83*
X120904Y118800D02*
X122204Y117500D01*
X130000D01*
X119624Y118800D02*
X120904D01*
X125604Y110196D02*
X128500D01*
X119412Y112321D02*
X119518Y112216D01*
X123584D01*
X125604Y110196D01*
X128500D02*
X130000Y108696D01*
Y107500D02*
Y108696D01*
D84*
X85100Y47415D02*
D03*
X89100Y27415D02*
D03*
X81100D02*
D03*
D85*
X117500Y130000D02*
D03*
X5000Y112500D02*
D03*
Y102500D02*
D03*
Y92500D02*
D03*
Y82500D02*
D03*
Y72500D02*
D03*
Y62500D02*
D03*
Y52500D02*
D03*
Y42500D02*
D03*
Y32500D02*
D03*
X27500Y15000D02*
D03*
X37500D02*
D03*
X47500D02*
D03*
X57500D02*
D03*
X67500D02*
D03*
X77500D02*
D03*
X87500D02*
D03*
X97500D02*
D03*
X107500D02*
D03*
X117500D02*
D03*
X140000Y32500D02*
D03*
Y42500D02*
D03*
Y52500D02*
D03*
Y62500D02*
D03*
Y72500D02*
D03*
Y82500D02*
D03*
Y92500D02*
D03*
Y102500D02*
D03*
Y112500D02*
D03*
X107500Y130000D02*
D03*
X97500D02*
D03*
X87500D02*
D03*
X77500D02*
D03*
X67500D02*
D03*
X57500D02*
D03*
X47500D02*
D03*
X37500D02*
D03*
X27500D02*
D03*
D86*
X15000Y117500D02*
D03*
Y107500D02*
D03*
Y97500D02*
D03*
Y87500D02*
D03*
Y77500D02*
D03*
Y67500D02*
D03*
Y57500D02*
D03*
Y47500D02*
D03*
Y37500D02*
D03*
Y27500D02*
D03*
X32500Y5000D02*
D03*
X42500D02*
D03*
X52500D02*
D03*
X62500D02*
D03*
X72500D02*
D03*
X82500D02*
D03*
X92500D02*
D03*
X102500D02*
D03*
X112500D02*
D03*
X130000Y27500D02*
D03*
Y37500D02*
D03*
Y47500D02*
D03*
Y57500D02*
D03*
Y67500D02*
D03*
Y77500D02*
D03*
Y87500D02*
D03*
Y97500D02*
D03*
Y107500D02*
D03*
Y117500D02*
D03*
X112500Y140000D02*
D03*
X102500D02*
D03*
X92500D02*
D03*
X82500D02*
D03*
X72500D02*
D03*
X62500D02*
D03*
X52500D02*
D03*
X42500D02*
D03*
X32500D02*
D03*
D87*
X10000Y135000D02*
D03*
X135000D02*
D03*
Y10000D02*
D03*
X10000D02*
D03*
D88*
X68100Y44700D02*
D03*
Y40300D02*
D03*
X54700Y40500D02*
D03*
X43800Y44200D02*
D03*
X48300D02*
D03*
X85800Y119700D02*
D03*
X38100Y39000D02*
D03*
X46100Y32400D02*
D03*
X41200Y32300D02*
D03*
X98700Y53700D02*
D03*
X41100Y115100D02*
D03*
X36650Y108949D02*
D03*
X40900Y122600D02*
D03*
X53600Y109200D02*
D03*
X68200Y115600D02*
D03*
Y113600D02*
D03*
X63600Y114100D02*
D03*
X65600Y112300D02*
D03*
X59400Y97300D02*
D03*
X104300Y117800D02*
D03*
X85800Y115900D02*
D03*
X38200Y36000D02*
D03*
X40700Y47700D02*
D03*
X54200Y36900D02*
D03*
Y34200D02*
D03*
X34800Y27400D02*
D03*
X25600Y19900D02*
D03*
X27500Y22200D02*
D03*
X32033Y53933D02*
D03*
X22900Y45300D02*
D03*
X79700Y61550D02*
D03*
X71000Y64200D02*
D03*
X75900Y62400D02*
D03*
X66400Y66000D02*
D03*
X111100Y55600D02*
D03*
X113500Y63000D02*
D03*
X85800Y117800D02*
D03*
X81400Y97500D02*
D03*
X117200Y106800D02*
D03*
X118300Y100600D02*
D03*
X117600Y79400D02*
D03*
X118200Y83900D02*
D03*
X113400Y89500D02*
D03*
X91900Y67900D02*
D03*
X89700Y66250D02*
D03*
X51900Y48500D02*
D03*
X28500Y56200D02*
D03*
X26400Y54500D02*
D03*
X36100Y30500D02*
D03*
X80500Y56100D02*
D03*
X75900Y54450D02*
D03*
X78400Y51300D02*
D03*
X87800Y63100D02*
D03*
X94800Y77300D02*
D03*
X84500Y66000D02*
D03*
X81200Y117700D02*
D03*
X34151Y123948D02*
D03*
X80500Y74000D02*
D03*
X71600Y76100D02*
D03*
X67700Y76200D02*
D03*
X72500Y69850D02*
D03*
X30290Y51729D02*
D03*
X39100Y45000D02*
D03*
X47700Y20300D02*
D03*
X121400Y34800D02*
D03*
X120700Y69300D02*
D03*
X98166Y88850D02*
D03*
X98700Y79600D02*
D03*
X102000Y78600D02*
D03*
X123600Y45600D02*
D03*
X76800Y19600D02*
D03*
X27900Y87300D02*
D03*
X48600Y103200D02*
D03*
X63600Y99500D02*
D03*
X34800Y97700D02*
D03*
X99300Y108200D02*
D03*
X100900Y117800D02*
D03*
X30200Y48800D02*
D03*
X106000Y56400D02*
D03*
X92100Y44800D02*
D03*
X102500Y73637D02*
D03*
X111752Y84302D02*
D03*
X118100Y94400D02*
D03*
X118000Y90000D02*
D03*
X101448Y104460D02*
D03*
X113667Y115711D02*
D03*
X82600Y32415D02*
D03*
X87600Y37415D02*
D03*
X82600D02*
D03*
Y42415D02*
D03*
X80591Y87445D02*
D03*
X101362Y56222D02*
D03*
X92006Y80287D02*
D03*
X98068Y94051D02*
D03*
X31895Y119268D02*
D03*
X25800D02*
D03*
X109196Y73683D02*
D03*
X110380Y76933D02*
D03*
X113278Y106811D02*
D03*
X83634Y88826D02*
D03*
X92851Y89031D02*
D03*
X63593Y84772D02*
D03*
X93048Y93952D02*
D03*
X83600Y93630D02*
D03*
X108667Y28609D02*
D03*
Y45542D02*
D03*
X94688Y37927D02*
D03*
X87600Y32415D02*
D03*
X98941Y28609D02*
D03*
X118667D02*
D03*
X103700Y28600D02*
D03*
X108733Y93555D02*
D03*
X108831Y100314D02*
D03*
X95445Y91259D02*
D03*
X87374Y99526D02*
D03*
X110308Y69605D02*
D03*
M02*
