G04*
G04 #@! TF.GenerationSoftware,Altium Limited,Altium Designer,25.8.1 (18)*
G04*
G04 Layer_Physical_Order=6*
G04 Layer_Color=13010237*
%FSLAX25Y25*%
%MOIN*%
G70*
G04*
G04 #@! TF.SameCoordinates,5B65FB0A-FCFC-48FD-BDDF-372C2C71C5DB*
G04*
G04*
G04 #@! TF.FilePolarity,Positive*
G04*
G01*
G75*
%ADD10C,0.01000*%
%ADD16C,0.00500*%
%ADD20R,0.01968X0.02559*%
%ADD23R,0.01772X0.01378*%
%ADD31C,0.01200*%
%ADD80C,0.00800*%
%ADD84C,0.03400*%
%ADD85R,0.07500X0.05000*%
%ADD86R,0.05000X0.07500*%
%ADD87R,0.17000X0.17000*%
%ADD88C,0.01800*%
%ADD90R,0.01378X0.00984*%
%ADD91R,0.00984X0.01378*%
%ADD92C,0.00700*%
D10*
X68200Y110957D02*
Y115600D01*
X56700Y99457D02*
X68200Y110957D01*
X53895Y93606D02*
X53900Y93600D01*
X53950D01*
X50146Y92326D02*
X51425Y93606D01*
X53800D01*
X56700Y92337D02*
Y99457D01*
X55568Y91206D02*
X56700Y92337D01*
X53830Y91206D02*
X55568D01*
X46087Y92318D02*
X49957D01*
X46000Y92405D02*
X46087Y92318D01*
X118353Y83147D02*
Y83747D01*
X120700Y69300D02*
Y80800D01*
X118353Y83147D02*
X120700Y80800D01*
X118200Y83900D02*
X118353Y83747D01*
X68000Y69000D02*
X69400Y67600D01*
X59780Y66126D02*
X62653Y69000D01*
X68000D01*
X87549Y68200D02*
X89499Y66250D01*
X79200Y68200D02*
X87549D01*
X89499Y66250D02*
X89700D01*
X110380Y114325D02*
Y116680D01*
X112494Y118793D01*
X116207D01*
X78600Y67600D02*
X79200Y68200D01*
X69400Y67600D02*
X78600D01*
X57432Y66495D02*
X58224Y67286D01*
Y68193D01*
X52530Y66495D02*
X57432D01*
X55800Y64146D02*
X55960Y63986D01*
X55800Y64146D02*
Y64200D01*
X55960Y61992D02*
Y63986D01*
X51808Y74000D02*
X53874D01*
X51800Y74008D02*
Y74100D01*
Y74008D02*
X51808Y74000D01*
X53928Y72031D02*
X54271Y71689D01*
X53874Y72031D02*
X53928D01*
X54271Y71689D02*
X55580D01*
X55588Y71681D01*
Y71500D02*
Y71681D01*
X43993Y76007D02*
X44032Y75968D01*
X42500Y76919D02*
X43412Y76007D01*
X43993D01*
X46000Y79600D02*
X46038Y79638D01*
Y81192D01*
X46000Y75968D02*
Y79600D01*
X30246Y89862D02*
X34803D01*
X35389Y88173D02*
Y89276D01*
X34803Y89862D02*
X35389Y89276D01*
X27900Y87516D02*
X30246Y89862D01*
X26000Y87343D02*
X26022Y87322D01*
X27878D01*
X27900Y87300D01*
Y87516D01*
X36115Y75938D02*
X36140Y75963D01*
X34238Y75938D02*
X36115D01*
X34200Y75900D02*
X34238Y75938D01*
X34200Y75900D02*
Y78319D01*
X33800Y72116D02*
Y72297D01*
X34200Y72697D01*
Y75900D01*
X33700Y78819D02*
X34200Y78319D01*
X33700Y78819D02*
Y79000D01*
X32221Y87391D02*
X32814Y87984D01*
X31677Y86300D02*
X32166Y85811D01*
X30200Y86300D02*
X31677D01*
X32981Y87984D02*
X32989Y87992D01*
X32221Y85811D02*
Y87391D01*
X32166Y85811D02*
X32221D01*
X32814Y87984D02*
X32981D01*
X61792Y77192D02*
X61800Y77200D01*
X61792Y76885D02*
Y77192D01*
X59188Y74281D02*
X61792Y76885D01*
X59188Y74100D02*
Y74281D01*
X53800Y91206D02*
X53830D01*
X51944Y64196D02*
Y65909D01*
X52530Y66495D01*
X51906Y64157D02*
X51944Y64196D01*
X40041Y81950D02*
X40049Y81958D01*
X38126Y81912D02*
X38164Y81950D01*
X40049Y81958D02*
Y82012D01*
X38164Y81950D02*
X40041D01*
X38100Y68100D02*
Y70100D01*
X38108Y70108D01*
Y72013D01*
X38126Y72031D01*
X36944Y74038D02*
X38088D01*
X38126Y74000D01*
X110380Y114325D02*
X113278Y111428D01*
Y106811D02*
Y111428D01*
X116207Y118793D02*
X122500Y112500D01*
X40500Y70281D02*
X42212Y71993D01*
X43993D01*
X44032Y72031D01*
X40500Y70100D02*
Y70281D01*
X36116Y74008D02*
X36913D01*
X36108Y74000D02*
X36116Y74008D01*
X36913D02*
X36944Y74038D01*
X38028Y85964D02*
X38126Y85865D01*
X38091Y64092D02*
X38113D01*
X36158Y70063D02*
X36192Y70097D01*
Y72108D02*
X36200Y72116D01*
X36192Y70097D02*
Y72108D01*
X53838Y89835D02*
X53900Y89774D01*
X53838Y89835D02*
Y91198D01*
X53830Y91206D02*
X53838Y91198D01*
X38099Y83571D02*
X38280D01*
X61800Y80000D02*
X61839D01*
X61800Y77200D02*
Y80000D01*
X122500Y112500D02*
X140000D01*
X49937Y87779D02*
X49947Y87789D01*
X49937Y87779D02*
Y89910D01*
X49945Y89918D02*
X49957D01*
X49937Y89910D02*
X49945Y89918D01*
X36103Y70063D02*
X36158D01*
X36108Y76300D02*
X36305D01*
X56731Y70048D02*
X57080Y70397D01*
X49248Y66068D02*
X49899Y65417D01*
X46000Y64157D02*
Y66126D01*
X49899Y64196D02*
Y65417D01*
Y64196D02*
X49937Y64157D01*
X51906D01*
X50000Y59400D02*
X52993D01*
X38100Y66500D02*
X38108Y66492D01*
X38113Y62202D02*
X38126Y62189D01*
X38108Y66492D02*
X39989D01*
X40887Y67168D02*
Y67182D01*
X38100Y66500D02*
X38281D01*
X39989Y66492D02*
X40100Y66381D01*
Y66200D02*
Y66381D01*
X40887Y67168D01*
X38113Y62202D02*
Y64092D01*
X38126Y62189D02*
Y62243D01*
X53874Y68094D02*
X53923Y68144D01*
X55774D02*
X55824Y68193D01*
X42025Y68056D02*
X42063Y68094D01*
X42025Y68133D02*
X42063Y68094D01*
X42025Y68133D02*
Y68394D01*
X40500Y69919D02*
Y70100D01*
X53579Y59986D02*
Y61792D01*
X53560Y61811D02*
Y61992D01*
Y62173D01*
X52993Y59400D02*
X53579Y59986D01*
X53560Y61811D02*
X53579Y61792D01*
X53552Y62181D02*
X53560Y62173D01*
X52982Y62181D02*
X53552D01*
X52974Y62189D02*
X52982Y62181D01*
X53923Y68144D02*
X55774D01*
X55824Y68193D02*
Y68374D01*
X56731Y69282D02*
Y70048D01*
X55824Y68374D02*
X56731Y69282D01*
X49248Y66068D02*
Y68076D01*
X49937Y61863D02*
Y64157D01*
Y61863D02*
X50000Y61800D01*
X53560Y62173D02*
X53874Y62487D01*
X52004Y62189D02*
X52974D01*
X53874Y62487D02*
Y64157D01*
X38091Y64092D02*
X38099Y64100D01*
X40887Y67182D02*
X41761Y68056D01*
X42025D01*
X38099Y64100D02*
X38100D01*
X43995Y66163D02*
X44032Y66126D01*
X42508Y66163D02*
X43995D01*
X42500Y66171D02*
Y66200D01*
Y66171D02*
X42508Y66163D01*
X38234Y74000D02*
X38334Y74100D01*
X38126Y74000D02*
X38234D01*
X38334Y74100D02*
X40100D01*
X40500Y69919D02*
X42025Y68394D01*
X46000Y68526D02*
Y72031D01*
X37355Y79189D02*
X38072Y79905D01*
X38126D02*
X38129Y79903D01*
X39697D01*
X36100Y79181D02*
X36108Y79189D01*
X37355D01*
X39697Y79903D02*
X39700Y79900D01*
X32989Y87992D02*
Y88173D01*
X46100Y83600D02*
X46108Y83592D01*
X47529D01*
X36100Y79000D02*
Y79181D01*
X35389Y87992D02*
X36119Y87262D01*
Y85849D02*
Y87262D01*
X38072Y79905D02*
X38126D01*
X38079Y85971D02*
X38099D01*
X38126Y85811D02*
Y85865D01*
X38071Y85979D02*
X38079Y85971D01*
X40092Y77289D02*
X40100Y77281D01*
X42500Y76919D02*
Y77100D01*
X40100Y76919D02*
Y77100D01*
X38164Y76007D02*
X39188D01*
X40100Y77100D02*
Y77281D01*
X39188Y76007D02*
X40100Y76919D01*
X38126Y75968D02*
X38164Y76007D01*
X35941Y84000D02*
X35949Y84008D01*
Y85548D02*
X36158Y85757D01*
X36119Y85849D02*
X36158Y85811D01*
X34151Y84791D02*
Y85773D01*
X35949Y84008D02*
Y85548D01*
X34151Y85773D02*
X34189Y85811D01*
X36158Y85757D02*
Y85811D01*
X33541Y84181D02*
X34151Y84791D01*
X33541Y84000D02*
Y84181D01*
X57988Y71500D02*
Y71681D01*
X57811Y71858D02*
X57988Y71681D01*
X59180Y72873D01*
X57080Y70411D02*
X57988Y71319D01*
Y71500D01*
X57080Y70397D02*
Y70411D01*
X57811Y71858D02*
Y72031D01*
X55843Y79905D02*
X59306D01*
X47969Y71061D02*
Y72031D01*
Y71061D02*
X48554Y70476D01*
X42500Y74100D02*
X42550Y74050D01*
X43982D02*
X44032Y74000D01*
X48554Y70476D02*
X49248D01*
X42550Y74050D02*
X43982D01*
X53874Y75968D02*
X53912Y75930D01*
X55139D02*
X56788Y74281D01*
Y74100D02*
Y74281D01*
X49895Y80001D02*
X49937Y79960D01*
X49968Y79937D02*
Y81868D01*
X49937Y79905D02*
X49968Y79937D01*
X49937Y79905D02*
Y79960D01*
X49968Y81868D02*
X50000Y81900D01*
X47741Y83804D02*
X47930D01*
X47529Y83592D02*
X47741Y83804D01*
X47930D02*
X47969Y83842D01*
X59180Y74016D02*
Y74092D01*
Y72873D02*
Y74016D01*
X59196Y74000D01*
X59400Y77200D02*
Y80000D01*
X59306Y79905D02*
X59400Y80000D01*
X50000Y81900D02*
X51400D01*
X53874Y79905D02*
Y79960D01*
X53800Y80034D02*
X53874Y79960D01*
X53800Y80034D02*
Y81900D01*
X51900Y77019D02*
Y77200D01*
X48914Y75993D02*
X49500Y76578D01*
X51900Y77019D02*
X52912Y76007D01*
X49500Y76578D02*
Y77200D01*
X52912Y76007D02*
X53836D01*
X53912Y75930D02*
X55139D01*
X53836Y76007D02*
X53874Y75968D01*
X47993Y75993D02*
X48914D01*
X49350Y74050D02*
X49400Y74100D01*
X47969Y74000D02*
X48019Y74050D01*
X49350D01*
X47969Y75968D02*
X47993Y75993D01*
D16*
X66891Y30809D02*
G03*
X67952Y30809I530J530D01*
G01*
X69013Y30809D02*
G03*
X67952Y30809I-530J-530D01*
G01*
X69013Y29748D02*
G03*
X69013Y30809I-530J530D01*
G01*
X65654Y26390D02*
G03*
X65654Y25329I530J-530D01*
G01*
D02*
G03*
X66715Y25329I530J530D01*
G01*
X70073Y27627D02*
G03*
X69012Y27627I-530J-530D01*
G01*
X42063Y55237D02*
X54900Y42400D01*
Y40700D02*
Y42400D01*
X54700Y40500D02*
X54900Y40700D01*
X51900Y48500D02*
X56500Y43900D01*
X55600Y36900D02*
X56500Y37800D01*
Y43900D01*
X38100Y41226D02*
X39100Y42226D01*
X38100Y39000D02*
Y41226D01*
X48200Y34100D02*
X62500Y19800D01*
X36158Y35142D02*
X37200Y34100D01*
X48200D01*
X87800Y63100D02*
X97050Y53850D01*
X98550D01*
X98700Y53700D01*
X84200Y123400D02*
X104672D01*
X83400Y122600D02*
X84200Y123400D01*
X40900Y122600D02*
X83400D01*
X34800Y111600D02*
X38300Y115100D01*
X41100D01*
X34800Y104300D02*
Y111600D01*
X53475Y109075D02*
X53600Y109200D01*
X36775Y109075D02*
X53475D01*
X36650Y108949D02*
X36775Y109075D01*
X109736Y121950D02*
X112384Y124598D01*
X84950Y121950D02*
X109736D01*
X83200Y120200D02*
X84950Y121950D01*
X104672Y123400D02*
X107500Y126228D01*
X92600Y113400D02*
X99500Y120300D01*
X112453D02*
X117500Y125347D01*
X99500Y120300D02*
X112453D01*
X37100Y120200D02*
X83200D01*
X31500Y114600D02*
X37100Y120200D01*
X31500Y105000D02*
Y114600D01*
X34800Y104300D02*
X42063Y97037D01*
X64500Y118200D02*
X70950D01*
X58400Y112100D02*
X64500Y118200D01*
X58400Y106700D02*
Y112100D01*
X51900Y100200D02*
X58400Y106700D01*
X45400Y100200D02*
X51900D01*
X43600Y98400D02*
X45400Y100200D01*
X70950Y118200D02*
X75750Y113400D01*
X38000Y124600D02*
X100500D01*
X35000Y121600D02*
X38000Y124600D01*
X100500D02*
X102500Y126600D01*
X34151Y123948D02*
X36103Y125900D01*
X92150D01*
X96250Y130000D01*
X98700Y79600D02*
Y81900D01*
X95052Y85548D02*
X98700Y81900D01*
X75052Y85548D02*
X95052D01*
X59100Y93800D02*
X66800D01*
X75052Y85548D01*
X73300Y82900D02*
X92000D01*
X66900Y89300D02*
X73300Y82900D01*
X59000Y89300D02*
X66900D01*
X104227Y113554D02*
Y117727D01*
X104300Y117800D01*
X75750Y113400D02*
X92600D01*
X18100Y32500D02*
X18950Y33350D01*
X5000Y32500D02*
X18100D01*
X18950Y33350D02*
Y57350D01*
X108900Y96800D02*
X111000Y98900D01*
X104227Y113554D02*
X111000Y106781D01*
Y98900D02*
Y106781D01*
X103017Y95406D02*
X104410Y96800D01*
X108900D01*
X95250Y17250D02*
X97500Y15000D01*
X78059Y21800D02*
X89400D01*
X93950Y17250D02*
X95250D01*
X89400Y21800D02*
X93950Y17250D01*
X74700Y26800D02*
Y43320D01*
X57799Y60220D02*
X74700Y43320D01*
X63800Y39100D02*
Y44400D01*
Y39100D02*
X73600Y29300D01*
Y26259D02*
Y29300D01*
X51300Y54400D02*
X53800D01*
X63800Y44400D01*
X53350Y50150D02*
X55150D01*
X46000Y57500D02*
X53350Y50150D01*
X46000Y57500D02*
Y62189D01*
X54200Y36900D02*
X55600D01*
X42063Y55237D02*
Y64157D01*
X34900Y34400D02*
X37150Y32150D01*
X38250D01*
X34900Y34400D02*
Y55328D01*
X34189Y56039D02*
X34900Y55328D01*
X36158Y35142D02*
Y62189D01*
X62500Y5000D02*
Y19800D01*
X42500Y5000D02*
Y27900D01*
X38250Y32150D02*
X42500Y27900D01*
X33683Y28517D02*
Y54617D01*
Y28517D02*
X34800Y27400D01*
X38200Y36000D02*
X40750Y38550D01*
Y47650D01*
X39100Y42226D02*
Y45000D01*
X40700Y47700D02*
X40750Y47650D01*
X38126Y55874D02*
X45600Y48400D01*
Y40700D02*
Y48400D01*
X38126Y55874D02*
Y60220D01*
X45600Y40700D02*
X52100Y34200D01*
X54200D01*
X32221Y56080D02*
X33683Y54617D01*
X27669Y25769D02*
X28500Y26600D01*
X27669Y22369D02*
Y25769D01*
X28500Y26600D02*
Y56200D01*
X25600Y19900D02*
Y26600D01*
X26400Y27400D01*
X27500Y22200D02*
X27669Y22369D01*
X27500Y18600D02*
X30200Y21300D01*
Y48800D01*
X27500Y15000D02*
Y18600D01*
X32033Y53933D02*
X32134Y53833D01*
Y5366D02*
Y53833D01*
X30290Y61718D02*
X32729Y64157D01*
X30290Y51729D02*
Y61718D01*
X22500Y51276D02*
X22900Y50876D01*
X22500Y51276D02*
Y56500D01*
X22900Y45300D02*
Y50876D01*
X22500Y56500D02*
X32126Y66126D01*
X20400Y56500D02*
X31376Y67476D01*
X20400Y29100D02*
Y56500D01*
X18657Y27357D02*
X20400Y29100D01*
X18950Y57350D02*
X30200Y68600D01*
X15457Y27357D02*
X18657D01*
X15300Y27200D02*
X15457Y27357D01*
X15000Y27500D02*
X15300Y27200D01*
X47969Y57731D02*
X51300Y54400D01*
X78450Y60300D02*
X79700Y61550D01*
X61686Y60300D02*
X78450D01*
X71000Y64200D02*
X71100Y64100D01*
X75669D01*
X76169Y64600D01*
X80686D01*
X80800Y66000D02*
X96900Y49900D01*
X66400Y66000D02*
X80800D01*
X91900Y67900D02*
X92100D01*
X99300Y60700D01*
X77203Y71500D02*
X77653Y71050D01*
X61216Y71500D02*
X77203D01*
X75621Y69850D02*
X75821Y70050D01*
X77653Y71050D02*
X93450D01*
X59780Y70063D02*
X61216Y71500D01*
X93450Y71050D02*
X105884Y58616D01*
X92550Y70050D02*
X101362Y61238D01*
X75821Y70050D02*
X92550D01*
X32221Y56080D02*
Y60220D01*
X26400Y27400D02*
Y54500D01*
X61800Y35900D02*
X61977Y35723D01*
X66891Y30809D01*
X66891Y30809D02*
X66891Y30809D01*
X67952D02*
X67952Y30809D01*
X65654Y26390D02*
X69013Y29748D01*
X66715Y25329D02*
X69012Y27627D01*
X70073D02*
X70073Y27627D01*
Y27627D02*
X70250Y27450D01*
X61700Y36000D02*
X61800Y35900D01*
X70250Y27450D02*
X72500Y25200D01*
X61700Y36000D02*
Y43600D01*
X55150Y50150D02*
X61700Y43600D01*
X72500Y5000D02*
Y25200D01*
X47969Y57731D02*
Y64157D01*
X93600Y34800D02*
X95900Y32500D01*
X80500Y36200D02*
X81900Y34800D01*
X93600D01*
X95900Y32500D02*
X119222D01*
X80500Y36200D02*
Y56100D01*
X75900Y27400D02*
Y54450D01*
Y27400D02*
X78900Y24400D01*
X78400Y32387D02*
X80080Y30707D01*
X78400Y32387D02*
Y51300D01*
X74700Y26800D02*
X78400Y23100D01*
X73600Y26259D02*
X78059Y21800D01*
X96900Y49900D02*
X113725D01*
X59797Y62189D02*
X61686Y60300D01*
X99300Y55500D02*
Y60700D01*
Y55500D02*
X102300Y52500D01*
X140000D01*
X80686Y64600D02*
X96486Y48800D01*
X112500D01*
X42063Y85858D02*
Y97037D01*
X94800Y77300D02*
Y80100D01*
X97870Y71892D02*
X111993D01*
X68864Y79500D02*
X90262D01*
X97870Y71892D01*
X78400Y23100D02*
X98800D01*
X102500Y19400D01*
X97366Y51200D02*
X114733D01*
X123433Y42500D01*
X84467Y64100D02*
X97366Y51200D01*
X113725Y49900D02*
X126125Y37500D01*
X84467Y65967D02*
X84500Y66000D01*
X84467Y64100D02*
Y65967D01*
X31139Y121600D02*
X35000D01*
X29487Y119948D02*
X31139Y121600D01*
X28500Y122200D02*
X34000Y127700D01*
X25000Y122200D02*
X28500D01*
X22900Y120100D02*
X25000Y122200D01*
X22900Y83700D02*
Y120100D01*
X36250Y130000D02*
X37500D01*
X34000Y127750D02*
X36250Y130000D01*
X34000Y127700D02*
Y127750D01*
X96250Y130000D02*
X97500D01*
X31500Y105000D02*
X40095Y96406D01*
X17250Y83950D02*
Y85250D01*
X27200Y74000D02*
X30252D01*
X17250Y83950D02*
X27200Y74000D01*
X15000Y87500D02*
X17250Y85250D01*
X87600Y37415D02*
X92100Y41915D01*
Y44800D01*
X112500Y48800D02*
X123800Y37500D01*
X90100Y76100D02*
X105800Y60400D01*
X71600Y76100D02*
X90100D01*
X105800Y60400D02*
X121100D01*
X89600Y78300D02*
X100400Y67500D01*
X69800Y78300D02*
X89600D01*
X100400Y67500D02*
X130000D01*
X105884Y56516D02*
Y58616D01*
X101362Y56222D02*
Y61238D01*
X92000Y82900D02*
X94800Y80100D01*
X63593Y84772D02*
X68864Y79500D01*
X67700Y76200D02*
X69800Y78300D01*
X80400Y73900D02*
X80500Y74000D01*
X65536Y73900D02*
X80400D01*
X106106Y81208D02*
X110380Y76933D01*
X106089Y81208D02*
X106106D01*
X123800Y34900D02*
X126200Y32500D01*
X123800Y34900D02*
Y37500D01*
X72500Y69850D02*
X75621D01*
X102500Y5000D02*
Y19400D01*
X32134Y5366D02*
X32500Y5000D01*
X102200Y24400D02*
X107500Y19100D01*
X78900Y24400D02*
X102200D01*
X107500Y15000D02*
Y19100D01*
X106000Y26000D02*
X112500Y19500D01*
Y5000D02*
Y19500D01*
X97800Y26000D02*
X106000D01*
X87300Y44400D02*
X90500Y47600D01*
X87300Y41870D02*
Y44400D01*
X90500Y47600D02*
X111000D01*
X82845Y37415D02*
X87300Y41870D01*
X82600Y37415D02*
X82845D01*
X54000Y17250D02*
X56250Y15000D01*
X51000Y20300D02*
X54000Y17300D01*
X56250Y15000D02*
X57500D01*
X47700Y20300D02*
X51000D01*
X54000Y17250D02*
Y17300D01*
X5048Y72452D02*
X27848D01*
X30237Y70063D02*
X34189D01*
X27848Y72452D02*
X30237Y70063D01*
X31376Y67476D02*
X34748D01*
X35410Y68228D02*
X36024D01*
X35038Y68600D02*
X35410Y68228D01*
X30200Y68600D02*
X35038D01*
X34748Y67476D02*
X36098Y66126D01*
X34189Y56039D02*
Y62189D01*
X80080Y30707D02*
X93093D01*
X97800Y26000D01*
X121351Y34849D02*
Y37249D01*
Y34849D02*
X121400Y34800D01*
X111000Y47600D02*
X121351Y37249D01*
X121100Y60400D02*
X123200Y62500D01*
X140000D01*
X66220Y87779D02*
X72394Y81606D01*
X90688D02*
X92006Y80287D01*
X72394Y81606D02*
X90688D01*
X58100Y88258D02*
Y88400D01*
X57811Y87779D02*
Y87969D01*
X58100Y88258D01*
Y88400D02*
X59000Y89300D01*
X59780Y87779D02*
X66220D01*
X100097Y87200D02*
X106089Y81208D01*
X83634Y88826D02*
X85260Y87200D01*
X100097D01*
X126200Y32500D02*
X140000D01*
X81650Y19600D02*
X86250Y15000D01*
X76800Y19600D02*
X81650D01*
X86250Y15000D02*
X87500D01*
X42063Y83842D02*
X43600Y85379D01*
Y98400D01*
X57811Y85811D02*
X60322Y83300D01*
X61801D02*
X64237Y80864D01*
X60322Y83300D02*
X61801D01*
X29487Y103013D02*
Y119948D01*
Y103013D02*
X34800Y97700D01*
X40095Y85811D02*
Y96406D01*
X32989Y87976D02*
Y87992D01*
X26000Y83800D02*
X26050Y83850D01*
X30150D01*
X30200Y83900D01*
X24711Y81889D02*
X34189D01*
X22900Y83700D02*
X24711Y81889D01*
X102500Y126600D02*
Y140000D01*
X105884Y56516D02*
X106000Y56400D01*
X64237Y75199D02*
X65536Y73900D01*
X111993Y71892D02*
X114101Y74000D01*
X124222Y27500D02*
X130000D01*
X119222Y32500D02*
X124222Y27500D01*
X107500Y126228D02*
Y130000D01*
X103017Y89042D02*
Y95406D01*
X64237Y75199D02*
Y80864D01*
X32729Y64157D02*
X34189D01*
X32126Y66126D02*
X34189D01*
X94688Y37927D02*
X102303Y45542D01*
X108667D01*
X114101Y74000D02*
Y77957D01*
X59780Y62189D02*
X59797D01*
X103017Y89042D02*
X114101Y77957D01*
X36098Y66126D02*
X36158D01*
X112384Y139884D02*
X112500Y140000D01*
X112384Y124598D02*
Y139884D01*
X117500Y125347D02*
Y130000D01*
X5000Y72500D02*
X5048Y72452D01*
X46705Y129205D02*
X47500Y130000D01*
X42016Y85811D02*
X42063Y85858D01*
X126125Y37500D02*
X130000D01*
X123433Y42500D02*
X140000D01*
X36024Y68228D02*
X36158Y68094D01*
D20*
X46000Y88665D02*
D03*
Y92405D02*
D03*
D23*
X26000Y83800D02*
D03*
Y87343D02*
D03*
D31*
X67200Y103100D02*
D03*
X53950Y93600D02*
D03*
X75716Y87093D02*
D03*
X59100Y93800D02*
D03*
X75700Y90577D02*
D03*
X23800Y24500D02*
D03*
Y27300D02*
D03*
X87400Y72700D02*
D03*
X23800Y33900D02*
D03*
Y37961D02*
D03*
Y40950D02*
D03*
Y30952D02*
D03*
X55800Y64200D02*
D03*
X53874Y74000D02*
D03*
Y72031D02*
D03*
X46000Y79600D02*
D03*
X32221Y85811D02*
D03*
X30200Y83900D02*
D03*
X57811Y64157D02*
D03*
X59780Y66126D02*
D03*
X36158Y81874D02*
D03*
X38126Y81912D02*
D03*
X42063Y64157D02*
D03*
X38126Y72031D02*
D03*
Y74000D02*
D03*
X57811Y87779D02*
D03*
X117938Y69605D02*
D03*
X57799Y60220D02*
D03*
X38126D02*
D03*
X32221D02*
D03*
X34189Y70063D02*
D03*
X36158Y66126D02*
D03*
X34189D02*
D03*
X36140Y75963D02*
D03*
X30252Y74000D02*
D03*
X42016Y85811D02*
D03*
X42063Y83842D02*
D03*
X36158Y68094D02*
D03*
X55843Y79905D02*
D03*
Y81874D02*
D03*
X61748Y85811D02*
D03*
X50000Y81900D02*
D03*
X57811Y81874D02*
D03*
X59780Y85811D02*
D03*
X53874Y79905D02*
D03*
X49937D02*
D03*
X47969Y83842D02*
D03*
X57811Y85811D02*
D03*
X53874D02*
D03*
X38126Y79905D02*
D03*
Y83842D02*
D03*
Y85811D02*
D03*
X40095D02*
D03*
X36158D02*
D03*
X42100Y79900D02*
D03*
X47969Y64157D02*
D03*
X49937D02*
D03*
X52004Y62189D02*
D03*
X53874Y64157D02*
D03*
X51906D02*
D03*
X59780Y62189D02*
D03*
X44032Y75968D02*
D03*
X46000Y62189D02*
D03*
Y64157D02*
D03*
X44032Y72031D02*
D03*
X46000D02*
D03*
Y75968D02*
D03*
X44032Y66126D02*
D03*
Y74000D02*
D03*
X42063Y68094D02*
D03*
X59780Y87779D02*
D03*
X49937D02*
D03*
X53874Y89748D02*
D03*
X59780Y70063D02*
D03*
X57811Y72031D02*
D03*
X47969Y75968D02*
D03*
X51906Y70063D02*
D03*
X53874Y68094D02*
D03*
Y75968D02*
D03*
X47969Y72031D02*
D03*
Y74000D02*
D03*
X36158Y70063D02*
D03*
X38126Y75968D02*
D03*
X36158Y62189D02*
D03*
X38100Y68100D02*
D03*
X38126Y62189D02*
D03*
X34189Y64157D02*
D03*
X34200Y75900D02*
D03*
X34189Y81889D02*
D03*
Y85811D02*
D03*
Y62189D02*
D03*
D80*
X111154Y93555D02*
X115400Y97800D01*
X113667Y115711D02*
X115400Y113978D01*
Y97800D02*
Y113978D01*
X111752Y84302D02*
X114950Y87500D01*
X130000D01*
X108733Y93555D02*
X111154D01*
X87162Y104460D02*
X104685D01*
X83600Y100898D02*
X87162Y104460D01*
X104685D02*
X108831Y100314D01*
X108831D01*
X83600Y93630D02*
Y100898D01*
X45191Y81912D02*
X45903Y81200D01*
X42461Y81912D02*
X45191D01*
X45903Y81200D02*
X46100D01*
X42369Y80366D02*
Y81820D01*
X42100Y80097D02*
X42369Y80366D01*
X42100Y79900D02*
Y80097D01*
X42369Y81820D02*
X42461Y81912D01*
D84*
X85100Y47415D02*
D03*
X89100Y27415D02*
D03*
X81100D02*
D03*
D85*
X117500Y130000D02*
D03*
X5000Y112500D02*
D03*
Y102500D02*
D03*
Y92500D02*
D03*
Y82500D02*
D03*
Y72500D02*
D03*
Y62500D02*
D03*
Y52500D02*
D03*
Y42500D02*
D03*
Y32500D02*
D03*
X27500Y15000D02*
D03*
X37500D02*
D03*
X47500D02*
D03*
X57500D02*
D03*
X67500D02*
D03*
X77500D02*
D03*
X87500D02*
D03*
X97500D02*
D03*
X107500D02*
D03*
X117500D02*
D03*
X140000Y32500D02*
D03*
Y42500D02*
D03*
Y52500D02*
D03*
Y62500D02*
D03*
Y72500D02*
D03*
Y82500D02*
D03*
Y92500D02*
D03*
Y102500D02*
D03*
Y112500D02*
D03*
X107500Y130000D02*
D03*
X97500D02*
D03*
X87500D02*
D03*
X77500D02*
D03*
X67500D02*
D03*
X57500D02*
D03*
X47500D02*
D03*
X37500D02*
D03*
X27500D02*
D03*
D86*
X15000Y117500D02*
D03*
Y107500D02*
D03*
Y97500D02*
D03*
Y87500D02*
D03*
Y77500D02*
D03*
Y67500D02*
D03*
Y57500D02*
D03*
Y47500D02*
D03*
Y37500D02*
D03*
Y27500D02*
D03*
X32500Y5000D02*
D03*
X42500D02*
D03*
X52500D02*
D03*
X62500D02*
D03*
X72500D02*
D03*
X82500D02*
D03*
X92500D02*
D03*
X102500D02*
D03*
X112500D02*
D03*
X130000Y27500D02*
D03*
Y37500D02*
D03*
Y47500D02*
D03*
Y57500D02*
D03*
Y67500D02*
D03*
Y77500D02*
D03*
Y87500D02*
D03*
Y97500D02*
D03*
Y107500D02*
D03*
Y117500D02*
D03*
X112500Y140000D02*
D03*
X102500D02*
D03*
X92500D02*
D03*
X82500D02*
D03*
X72500D02*
D03*
X62500D02*
D03*
X52500D02*
D03*
X42500D02*
D03*
X32500D02*
D03*
D87*
X10000Y135000D02*
D03*
X135000D02*
D03*
Y10000D02*
D03*
X10000D02*
D03*
D88*
X68100Y44700D02*
D03*
Y40300D02*
D03*
X54700Y40500D02*
D03*
X43800Y44200D02*
D03*
X48300D02*
D03*
X85800Y119700D02*
D03*
X38100Y39000D02*
D03*
X46100Y32400D02*
D03*
X41200Y32300D02*
D03*
X98700Y53700D02*
D03*
X41100Y115100D02*
D03*
X36650Y108949D02*
D03*
X40900Y122600D02*
D03*
X53600Y109200D02*
D03*
X68200Y115600D02*
D03*
Y113600D02*
D03*
X63600Y114100D02*
D03*
X65600Y112300D02*
D03*
X59400Y97300D02*
D03*
X104300Y117800D02*
D03*
X85800Y115900D02*
D03*
X38200Y36000D02*
D03*
X40700Y47700D02*
D03*
X54200Y36900D02*
D03*
Y34200D02*
D03*
X34800Y27400D02*
D03*
X25600Y19900D02*
D03*
X27500Y22200D02*
D03*
X32033Y53933D02*
D03*
X22900Y45300D02*
D03*
X79700Y61550D02*
D03*
X71000Y64200D02*
D03*
X75900Y62400D02*
D03*
X66400Y66000D02*
D03*
X111100Y55600D02*
D03*
X113500Y63000D02*
D03*
X85800Y117800D02*
D03*
X81400Y97500D02*
D03*
X117200Y106800D02*
D03*
X118300Y100600D02*
D03*
X117600Y79400D02*
D03*
X118200Y83900D02*
D03*
X113400Y89500D02*
D03*
X91900Y67900D02*
D03*
X89700Y66250D02*
D03*
X51900Y48500D02*
D03*
X28500Y56200D02*
D03*
X26400Y54500D02*
D03*
X36100Y30500D02*
D03*
X80500Y56100D02*
D03*
X75900Y54450D02*
D03*
X78400Y51300D02*
D03*
X87800Y63100D02*
D03*
X94800Y77300D02*
D03*
X84500Y66000D02*
D03*
X81200Y117700D02*
D03*
X34151Y123948D02*
D03*
X80500Y74000D02*
D03*
X71600Y76100D02*
D03*
X67700Y76200D02*
D03*
X72500Y69850D02*
D03*
X30290Y51729D02*
D03*
X39100Y45000D02*
D03*
X47700Y20300D02*
D03*
X121400Y34800D02*
D03*
X120700Y69300D02*
D03*
X98166Y88850D02*
D03*
X98700Y79600D02*
D03*
X102000Y78600D02*
D03*
X123600Y45600D02*
D03*
X76800Y19600D02*
D03*
X27900Y87300D02*
D03*
X48600Y103200D02*
D03*
X63600Y99500D02*
D03*
X34800Y97700D02*
D03*
X99300Y108200D02*
D03*
X100900Y117800D02*
D03*
X30200Y48800D02*
D03*
X106000Y56400D02*
D03*
X92100Y44800D02*
D03*
X102500Y73637D02*
D03*
X111752Y84302D02*
D03*
X118100Y94400D02*
D03*
X118000Y90000D02*
D03*
X101448Y104460D02*
D03*
X113667Y115711D02*
D03*
X82600Y32415D02*
D03*
X87600Y37415D02*
D03*
X82600D02*
D03*
Y42415D02*
D03*
X80591Y87445D02*
D03*
X101362Y56222D02*
D03*
X92006Y80287D02*
D03*
X98068Y94051D02*
D03*
X31895Y119268D02*
D03*
X25800D02*
D03*
X109196Y73683D02*
D03*
X110380Y76933D02*
D03*
X113278Y106811D02*
D03*
X83634Y88826D02*
D03*
X92851Y89031D02*
D03*
X63593Y84772D02*
D03*
X93048Y93952D02*
D03*
X83600Y93630D02*
D03*
X108667Y28609D02*
D03*
Y45542D02*
D03*
X94688Y37927D02*
D03*
X87600Y32415D02*
D03*
X98941Y28609D02*
D03*
X118667D02*
D03*
X103700Y28600D02*
D03*
X108733Y93555D02*
D03*
X108831Y100314D02*
D03*
X95445Y91259D02*
D03*
X87374Y99526D02*
D03*
X110308Y69605D02*
D03*
D90*
X30200Y86300D02*
D03*
Y83900D02*
D03*
X49957Y92318D02*
D03*
Y89918D02*
D03*
X53800Y91206D02*
D03*
Y93606D02*
D03*
X36108Y76400D02*
D03*
Y74000D02*
D03*
X49248Y70476D02*
D03*
Y68076D02*
D03*
X46000Y68526D02*
D03*
Y66126D02*
D03*
X50000Y59400D02*
D03*
Y61800D02*
D03*
X38100Y66500D02*
D03*
Y64100D02*
D03*
X46100Y81200D02*
D03*
Y83600D02*
D03*
X38099Y83571D02*
D03*
Y85971D02*
D03*
D91*
X61800Y77200D02*
D03*
X59400D02*
D03*
X40049Y82012D02*
D03*
X42449D02*
D03*
X36200Y72116D02*
D03*
X33800D02*
D03*
X40100Y66200D02*
D03*
X42500D02*
D03*
X55824Y68193D02*
D03*
X58224D02*
D03*
X40500Y70100D02*
D03*
X38100D02*
D03*
X53560Y61992D02*
D03*
X55960D02*
D03*
X42100Y79900D02*
D03*
X39700D02*
D03*
X32989Y88173D02*
D03*
X35389D02*
D03*
X36100Y79000D02*
D03*
X33700D02*
D03*
X42500Y77100D02*
D03*
X40100D02*
D03*
X35941Y84000D02*
D03*
X33541D02*
D03*
X57988Y71500D02*
D03*
X55588D02*
D03*
X42500Y74100D02*
D03*
X40100D02*
D03*
X59188D02*
D03*
X56788D02*
D03*
X61800Y80000D02*
D03*
X59400D02*
D03*
X53800Y81900D02*
D03*
X51400D02*
D03*
X49500Y77200D02*
D03*
X51900D02*
D03*
X49400Y74100D02*
D03*
X51800D02*
D03*
D92*
X58068Y91000D02*
X67500D01*
X74200Y84300D01*
X55580Y88512D02*
X58068Y91000D01*
X74200Y84300D02*
X93000D01*
X55580Y87517D02*
Y88512D01*
X93000Y84300D02*
X96800Y80500D01*
Y77306D02*
X100469Y73637D01*
X96800Y77306D02*
Y80500D01*
X46000Y88665D02*
X46154Y88511D01*
Y86746D02*
X47089Y85811D01*
X46154Y86746D02*
Y88511D01*
X47089Y85811D02*
X53874D01*
X100469Y73637D02*
X102500D01*
X53874Y85811D02*
X55580Y87517D01*
M02*
